<?xml version="1.0" encoding="UTF-8" standalone="no"?>
<!-- Created with Inkscape (http://www.inkscape.org/) -->
<svg
   xmlns:dc="http://purl.org/dc/elements/1.1/"
   xmlns:cc="http://web.resource.org/cc/"
   xmlns:rdf="http://www.w3.org/1999/02/22-rdf-syntax-ns#"
   xmlns:svg="http://www.w3.org/2000/svg"
   xmlns="http://www.w3.org/2000/svg"
   xmlns:xlink="http://www.w3.org/1999/xlink"
   xmlns:sodipodi="http://sodipodi.sourceforge.net/DTD/sodipodi-0.dtd"
   xmlns:inkscape="http://www.inkscape.org/namespaces/inkscape"
   width="48"
   height="48"
   id="svg2"
   sodipodi:version="0.32"
   inkscape:version="0.45"
   version="1.0"
   sodipodi:docbase="/home/frederik/bilder/clipart_freedo"
   sodipodi:docname="wand.svg"
   inkscape:export-filename="/home/frederik/projekte/Tango Skin/buttons/wand.png"
   inkscape:export-xdpi="41.25"
   inkscape:export-ydpi="41.25"
   inkscape:output_extension="org.inkscape.output.svg.inkscape"
   sodipodi:modified="true">
  <defs
     id="defs4">
    <linearGradient
       id="linearGradient3126">
      <stop
         style="stop-color:#000000;stop-opacity:0.26521739;"
         offset="0"
         id="stop3128" />
      <stop
         style="stop-color:#000000;stop-opacity:0;"
         offset="1"
         id="stop3130" />
    </linearGradient>
    <linearGradient
       id="linearGradient3113">
      <stop
         id="stop3115"
         offset="0"
         style="stop-color:#424441;stop-opacity:1;" />
      <stop
         id="stop3117"
         offset="1"
         style="stop-color:#757772;stop-opacity:1;" />
    </linearGradient>
    <linearGradient
       id="linearGradient2209">
      <stop
         style="stop-color:#555753;stop-opacity:1;"
         offset="0"
         id="stop2211" />
      <stop
         style="stop-color:#ffffff;stop-opacity:1;"
         offset="1"
         id="stop2213" />
    </linearGradient>
    <linearGradient
       inkscape:collect="always"
       xlink:href="#linearGradient2209"
       id="linearGradient2215"
       x1="29.576281"
       y1="15.081929"
       x2="20.253881"
       y2="14.617333"
       gradientUnits="userSpaceOnUse"
       gradientTransform="matrix(0.741426,0.671034,-0.671034,0.741426,19.61016,-9.696588)" />
    <linearGradient
       inkscape:collect="always"
       xlink:href="#linearGradient2209"
       id="linearGradient3095"
       gradientUnits="userSpaceOnUse"
       gradientTransform="matrix(0.741426,0.671034,-0.671034,0.741426,1.635174,10.18318)"
       x1="29.576281"
       y1="15.081929"
       x2="20.253881"
       y2="14.617333" />
    <linearGradient
       inkscape:collect="always"
       xlink:href="#linearGradient3113"
       id="linearGradient3111"
       x1="22.241131"
       y1="31.481102"
       x2="15.708925"
       y2="24.948896"
       gradientUnits="userSpaceOnUse" />
    <radialGradient
       inkscape:collect="always"
       xlink:href="#linearGradient3126"
       id="radialGradient3132"
       cx="23.53673"
       cy="45.408802"
       fx="23.53673"
       fy="45.408802"
       r="13.495831"
       gradientTransform="matrix(1,0,0,0.44,4.309704e-18,25.42893)"
       gradientUnits="userSpaceOnUse" />
  </defs>
  <sodipodi:namedview
     id="base"
     pagecolor="#ffffff"
     bordercolor="#666666"
     borderopacity="1.0"
     inkscape:pageopacity="0.0"
     inkscape:pageshadow="2"
     inkscape:zoom="9.2621191"
     inkscape:cx="25.964422"
     inkscape:cy="22.193712"
     inkscape:document-units="px"
     inkscape:current-layer="layer1"
     showgrid="false"
     inkscape:grid-bbox="true"
     stroke="#c4a000"
     fill="#fce94f"
     inkscape:window-width="1280"
     inkscape:window-height="951"
     inkscape:window-x="0"
     inkscape:window-y="24" />
  <metadata
     id="metadata7">
    <rdf:RDF>
      <cc:Work
         rdf:about="">
        <dc:format>image/svg+xml</dc:format>
        <dc:type
           rdf:resource="http://purl.org/dc/dcmitype/StillImage" />
        <dc:title>Wand with Stars</dc:title>
        <dc:date>2005-12-11</dc:date>
        <dc:creator>
          <cc:Agent>
            <dc:title>Frederik Elwert</dc:title>
          </cc:Agent>
        </dc:creator>
        <dc:subject>
          <rdf:Bag>
            <rdf:li>wand</rdf:li>
            <rdf:li>stars</rdf:li>
            <rdf:li>magic</rdf:li>
            <rdf:li>icon</rdf:li>
          </rdf:Bag>
        </dc:subject>
        <cc:license
           rdf:resource="http://web.resource.org/cc/PublicDomain" />
      </cc:Work>
      <cc:License
         rdf:about="http://web.resource.org/cc/PublicDomain">
        <cc:permits
           rdf:resource="http://web.resource.org/cc/Reproduction" />
        <cc:permits
           rdf:resource="http://web.resource.org/cc/Distribution" />
        <cc:permits
           rdf:resource="http://web.resource.org/cc/DerivativeWorks" />
      </cc:License>
    </rdf:RDF>
  </metadata>
  <g
     inkscape:label="Ebene 1"
     inkscape:groupmode="layer"
     id="layer1">
    <path
       style="opacity:1;fill:url(#linearGradient3111);fill-opacity:1.0;stroke:#2e3436;stroke-width:0.98987579;stroke-miterlimit:4;stroke-dasharray:none;stroke-dashoffset:0;stroke-opacity:1"
       d="M 29.272461,9.8383765 L 6.478269,35.023706 L 6.4572996,35.046876 C 6.3942657,35.105223 6.3479666,35.167678 6.289541,35.232232 C 4.9298124,36.734598 5.3545923,39.35957 7.262003,41.085888 C 9.169414,42.812206 11.83713,42.986124 13.196859,41.483758 C 13.255284,41.419203 13.29931,41.35469 13.3511,41.286167 C 13.374642,41.255021 13.412801,41.225408 13.43498,41.193489 L 36.166262,16.077668 L 29.272461,9.8383765 z "
       id="path2182" />
    <path
       sodipodi:type="arc"
       style="opacity:1;fill:#eeeeec;fill-opacity:1;stroke:#2e3436;stroke-width:1.29597151;stroke-miterlimit:4;stroke-dasharray:none;stroke-dashoffset:0;stroke-opacity:1"
       id="path1307"
       sodipodi:cx="23.590714"
       sodipodi:cy="7.4045382"
       sodipodi:rx="7.8275824"
       sodipodi:ry="3.6708663"
       d="M 31.418296 7.4045382 A 7.8275824 3.6708663 0 1 1  15.763131,7.4045382 A 7.8275824 3.6708663 0 1 1  31.418296 7.4045382 z"
       transform="matrix(0.441446,0.399534,-0.671034,0.741426,27.60498,-2.315185)" />
    <path
       style="fill:url(#linearGradient2215);fill-opacity:1.0;stroke:#2e3436;stroke-width:0.98987579;stroke-miterlimit:4;stroke-dashoffset:0;stroke-opacity:1"
       d="M 31.127547,21.632974 C 29.410311,23.134543 26.997307,22.868387 25.224012,21.263451 C 23.450715,19.658514 22.922794,17.262962 24.099394,15.567126 L 29.278939,9.84424 L 29.302109,9.8652098 C 28.323536,11.400284 28.841341,13.747334 30.592285,15.33204 C 32.344719,16.918095 34.730531,17.201987 36.160303,16.072276 L 31.127547,21.632974 z "
       id="path2192"
       sodipodi:nodetypes="cscccscc" />
    <path
       sodipodi:nodetypes="cscccscc"
       id="path3093"
       d="M 13.152561,41.512746 C 11.435325,43.014315 9.0223211,42.748159 7.2490261,41.143223 C 5.4757291,39.538286 4.9478081,37.142734 6.1244081,35.446898 L 11.303953,29.724012 L 11.327123,29.744982 C 10.34855,31.280056 10.866355,33.627106 12.617299,35.211812 C 14.369733,36.797867 16.755545,37.081759 18.185317,35.952048 L 13.152561,41.512746 z "
       style="fill:url(#linearGradient3095);fill-opacity:1;stroke:#2e3436;stroke-width:0.98987579;stroke-miterlimit:4;stroke-dashoffset:0;stroke-opacity:1" />
    <path
       sodipodi:type="arc"
       style="opacity:1;fill:url(#radialGradient3132);fill-opacity:1;stroke:none;stroke-width:1.18369913;stroke-miterlimit:5;stroke-dasharray:none;stroke-dashoffset:0;stroke-opacity:1"
       id="path3124"
       sodipodi:cx="23.53673"
       sodipodi:cy="45.408802"
       sodipodi:rx="13.495831"
       sodipodi:ry="5.9381661"
       d="M 37.03256 45.408802 A 13.495831 5.9381661 0 1 1  10.040899,45.408802 A 13.495831 5.9381661 0 1 1  37.03256 45.408802 z"
       transform="matrix(1.296696,0,0,0.6995,-9.019995,9.73654)" />
    <path
       sodipodi:type="star"
       style="opacity:1;fill:#fce94f;fill-opacity:1;stroke:#c4a000;stroke-width:0.69084484;stroke-miterlimit:5;stroke-dasharray:none;stroke-dashoffset:0;stroke-opacity:1"
       id="path3152"
       sodipodi:sides="5"
       sodipodi:cx="25.696064"
       sodipodi:cy="4.7053719"
       sodipodi:r1="7.9924498"
       sodipodi:r2="3.3178074"
       sodipodi:arg1="0.87179672"
       sodipodi:arg2="1.5001153"
       inkscape:flatsided="false"
       inkscape:rounded="0.1"
       inkscape:randomized="0"
       d="M 30.838824,10.823482 C 30.405927,11.187366 26.494481,7.974957 25.930375,8.0148952 C 25.366269,8.0548333 21.946441,11.786289 21.466595,11.487027 C 20.986749,11.187765 22.833228,6.4750685 22.620926,5.9509136 C 22.408625,5.4267588 17.803014,3.3273926 17.939349,2.7785546 C 18.075684,2.2297167 23.128317,2.5295193 23.561214,2.1656357 C 23.99411,1.8017521 24.567514,-3.2271837 25.131619,-3.2671218 C 25.695725,-3.3070599 26.971945,1.5909244 27.451792,1.8901868 C 27.931638,2.1894492 32.891631,1.1807622 33.103933,1.704917 C 33.316235,2.2290719 29.052349,4.95639 28.916014,5.505228 C 28.779679,6.0540659 31.27172,10.459599 30.838824,10.823482 z "
       transform="matrix(1.433028,0,0,1.433028,5.514467e-2,13.17722)" />
    <path
       transform="matrix(0.700974,-0.240988,0.240988,0.700974,20.26764,32.84781)"
       d="M 30.838824,10.823482 C 30.405927,11.187366 26.494481,7.974957 25.930375,8.0148952 C 25.366269,8.0548333 21.946441,11.786289 21.466595,11.487027 C 20.986749,11.187765 22.833228,6.4750685 22.620926,5.9509136 C 22.408625,5.4267588 17.803014,3.3273926 17.939349,2.7785546 C 18.075684,2.2297167 23.128317,2.5295193 23.561214,2.1656357 C 23.99411,1.8017521 24.567514,-3.2271837 25.131619,-3.2671218 C 25.695725,-3.3070599 26.971945,1.5909244 27.451792,1.8901868 C 27.931638,2.1894492 32.891631,1.1807622 33.103933,1.704917 C 33.316235,2.2290719 29.052349,4.95639 28.916014,5.505228 C 28.779679,6.0540659 31.27172,10.459599 30.838824,10.823482 z "
       inkscape:randomized="0"
       inkscape:rounded="0.1"
       inkscape:flatsided="false"
       sodipodi:arg2="1.5001153"
       sodipodi:arg1="0.87179672"
       sodipodi:r2="3.3178074"
       sodipodi:r1="7.9924498"
       sodipodi:cy="4.7053719"
       sodipodi:cx="25.696064"
       sodipodi:sides="5"
       id="use3154"
       style="fill:#fce94f;fill-opacity:1;stroke:#c4a000;stroke-width:1.33559608;stroke-miterlimit:5;stroke-dasharray:none;stroke-dashoffset:0;stroke-opacity:1"
       sodipodi:type="star" />
    <path
       sodipodi:type="star"
       style="fill:#fce94f;fill-opacity:1;stroke:#c4a000;stroke-width:0.86571807;stroke-miterlimit:5;stroke-dasharray:none;stroke-dashoffset:0;stroke-opacity:1"
       id="path3158"
       sodipodi:sides="5"
       sodipodi:cx="25.696064"
       sodipodi:cy="4.7053719"
       sodipodi:r1="7.9924498"
       sodipodi:r2="3.3178074"
       sodipodi:arg1="0.87179672"
       sodipodi:arg2="1.5001153"
       inkscape:flatsided="false"
       inkscape:rounded="0.1"
       inkscape:randomized="0"
       d="M 30.838824,10.823482 C 30.405927,11.187366 26.494481,7.974957 25.930375,8.0148952 C 25.366269,8.0548333 21.946441,11.786289 21.466595,11.487027 C 20.986749,11.187765 22.833228,6.4750685 22.620926,5.9509136 C 22.408625,5.4267588 17.803014,3.3273926 17.939349,2.7785546 C 18.075684,2.2297167 23.128317,2.5295193 23.561214,2.1656357 C 23.99411,1.8017521 24.567514,-3.2271837 25.131619,-3.2671218 C 25.695725,-3.3070599 26.971945,1.5909244 27.451792,1.8901868 C 27.931638,2.1894492 32.891631,1.1807622 33.103933,1.704917 C 33.316235,2.2290719 29.052349,4.95639 28.916014,5.505228 C 28.779679,6.0540659 31.27172,10.459599 30.838824,10.823482 z "
       transform="matrix(1.143121,-3.167028e-2,3.167028e-2,1.143121,1.902807,28.03634)" />
  </g>
</svg>
