<?xml version="1.0" encoding="UTF-8" standalone="no"?>
<!-- Created with Inkscape (http://www.inkscape.org/) -->

<svg
   xmlns:dc="http://purl.org/dc/elements/1.1/"
   xmlns:cc="http://creativecommons.org/ns#"
   xmlns:rdf="http://www.w3.org/1999/02/22-rdf-syntax-ns#"
   xmlns:svg="http://www.w3.org/2000/svg"
   xmlns="http://www.w3.org/2000/svg"
   xmlns:sodipodi="http://sodipodi.sourceforge.net/DTD/sodipodi-0.dtd"
   xmlns:inkscape="http://www.inkscape.org/namespaces/inkscape"
   inkscape:version="0.47 r22583"
   version="1.1"
   id="svg2"
   height="691.47449"
   width="749.44409"
   sodipodi:docname="square root.svg">
  <sodipodi:namedview
     id="base"
     pagecolor="#ffffff"
     bordercolor="#666666"
     borderopacity="1.0"
     inkscape:pageopacity="0"
     inkscape:pageshadow="2"
     inkscape:zoom="0.25"
     inkscape:cx="1339.2446"
     inkscape:cy="515.99481"
     inkscape:document-units="px"
     inkscape:current-layer="svg2"
     showgrid="false"
     inkscape:window-width="1237"
     inkscape:window-height="972"
     inkscape:window-x="-1"
     inkscape:window-y="32"
     inkscape:window-maximized="1"
     showborder="true" />
  <defs
     id="defs4">
    <inkscape:perspective
       id="perspective10"
       inkscape:persp3d-origin="372.04724 : 350.78739 : 1"
       inkscape:vp_z="744.09448 : 526.18109 : 1"
       inkscape:vp_y="0 : 1000 : 0"
       inkscape:vp_x="0 : 526.18109 : 1"
       sodipodi:type="inkscape:persp3d" />
  </defs>
  <metadata
     id="metadata7">
    <rdf:RDF>
      <cc:Work
         rdf:about="">
        <dc:format>image/svg+xml</dc:format>
        <dc:type
           rdf:resource="http://purl.org/dc/dcmitype/StillImage" />
        <dc:title></dc:title>
      </cc:Work>
    </rdf:RDF>
  </metadata>
  <g
     id="layer1"
     inkscape:groupmode="layer"
     inkscape:label="Layer 1"
     transform="translate(1.4300194,-213.76469)" />
  <g
     id="g2847"
     transform="matrix(13.046495,0,0,13.046495,-3947.4789,-4250.0859)"
     style="fill:#0000ff">
    <g
       word-spacing="normal"
       letter-spacing="normal"
       font-size-adjust="none"
       font-stretch="normal"
       font-weight="normal"
       font-variant="normal"
       font-style="normal"
       fill-rule="even-odd"
       stroke-miterlimit="10.433"
       xml:space="preserve"
       transform="matrix(1.0629921,0,0,-1.0629921,-186.02362,789.27165)"
       id="content"
       style="font-style:normal;font-variant:normal;font-weight:normal;font-stretch:normal;letter-spacing:normal;word-spacing:normal;text-anchor:start;fill:#0000ff;stroke:#000000;stroke-linecap:butt;stroke-linejoin:miter;stroke-miterlimit:10.43299961;stroke-opacity:1;stroke-dasharray:none;stroke-dashoffset:0"><path
         id="path2850"
         d="m 475.38,391.41 -8.77,19.38 c -0.35,0.8 -0.6,0.8 -0.75,0.8 -0.05,0 -0.3,0 -0.84,-0.4 l -4.73,-3.59 c -0.65,-0.5 -0.65,-0.65 -0.65,-0.8 0,-0.25 0.15,-0.55 0.49,-0.55 0.3,0 1.15,0.7 1.7,1.1 0.3,0.25 1.05,0.8 1.59,1.2 l 9.81,-21.57 c 0.36,-0.8 0.6,-0.8 1.05,-0.8 0.75,0 0.9,0.3 1.25,1 L 498.14,434 c 0.35,0.7 0.35,0.9 0.35,1 0,0.5 -0.4,0.99 -0.99,0.99 -0.4,0 -0.75,-0.25 -1.15,-1.04 z"
         style="fill:#0000ff;stroke-width:0" /><polyline
         id="polyline2852"
         points="497,434 513.68,434 513.68,436.04 497,436.04 "
         style="fill:#0000ff;fill-rule:nonzero;stroke-width:0" /></g>  </g>
</svg>
