<?xml version="1.0" encoding="UTF-8" standalone="no"?>
<!-- Created with Inkscape (http://www.inkscape.org/) -->

<svg
   xmlns:dc="http://purl.org/dc/elements/1.1/"
   xmlns:cc="http://creativecommons.org/ns#"
   xmlns:rdf="http://www.w3.org/1999/02/22-rdf-syntax-ns#"
   xmlns:svg="http://www.w3.org/2000/svg"
   xmlns="http://www.w3.org/2000/svg"
   xmlns:sodipodi="http://sodipodi.sourceforge.net/DTD/sodipodi-0.dtd"
   xmlns:inkscape="http://www.inkscape.org/namespaces/inkscape"
   inkscape:version="0.47 r22583"
   version="1.1"
   id="svg2"
   height="48"
   width="48"
   sodipodi:docname="square root.svg">
  <sodipodi:namedview
     id="base"
     pagecolor="#ffffff"
     bordercolor="#666666"
     borderopacity="1.0"
     inkscape:pageopacity="0"
     inkscape:pageshadow="2"
     inkscape:zoom="0.25"
     inkscape:cx="1055.1078"
     inkscape:cy="728.48434"
     inkscape:document-units="px"
     inkscape:current-layer="svg2"
     showgrid="false"
     inkscape:window-width="1237"
     inkscape:window-height="972"
     inkscape:window-x="-1"
     inkscape:window-y="32"
     inkscape:window-maximized="1"
     showborder="true" />
  <defs
     id="defs4">
    <inkscape:perspective
       sodipodi:type="inkscape:persp3d"
       inkscape:vp_x="0 : 526.18109 : 1"
       inkscape:vp_y="0 : 1000 : 0"
       inkscape:vp_z="744.09448 : 526.18109 : 1"
       inkscape:persp3d-origin="372.04724 : 350.78739 : 1"
       id="perspective10" />
  </defs>
  <metadata
     id="metadata7">
    <rdf:RDF>
      <cc:Work
         rdf:about="">
        <dc:format>image/svg+xml</dc:format>
        <dc:type
           rdf:resource="http://purl.org/dc/dcmitype/StillImage" />
        <dc:title></dc:title>
      </cc:Work>
    </rdf:RDF>
  </metadata>
  <g
     transform="translate(-282.70679,-1069.7287)"
     inkscape:label="Layer 1"
     inkscape:groupmode="layer"
     id="layer1" />
  <g
     id="g2889"
     transform="matrix(15.686645,0,0,15.686645,-4457.1523,-2785.1096)"
     style="fill:#0000ff">
    <g
       word-spacing="normal"
       letter-spacing="normal"
       font-size-adjust="none"
       font-stretch="normal"
       font-weight="normal"
       font-variant="normal"
       font-style="normal"
       fill-rule="even-odd"
       stroke-miterlimit="10.433"
       xml:space="preserve"
       transform="matrix(0.9878207,0,0,-0.9878207,-172.86862,562.08307)"
       id="content"
       style="font-style:normal;font-variant:normal;font-weight:normal;font-stretch:normal;letter-spacing:normal;word-spacing:normal;text-anchor:start;fill:#0000ff;stroke:#000000;stroke-linecap:butt;stroke-linejoin:miter;stroke-miterlimit:10.43299961;stroke-opacity:1;stroke-dasharray:none;stroke-dashoffset:0"><path
         id="path2892"
         d="m 477.22,421.24 0.21,0 0.21,-0.01 0.2,-0.03 0.2,-0.02 0.19,-0.04 0.19,-0.05 0.18,-0.05 0.18,-0.06 0.17,-0.07 0.17,-0.07 0.16,-0.09 0.15,-0.09 0.15,-0.1 0.14,-0.1 0.14,-0.11 0.12,-0.13 0.13,-0.12 0.11,-0.14 0.11,-0.14 0.1,-0.15 0.09,-0.16 0.09,-0.16 0.08,-0.17 0.07,-0.17 0.06,-0.19 0.06,-0.19 0.04,-0.19 0.04,-0.21 0.03,-0.21 0.02,-0.21 0.02,-0.22 0,-0.23 c 0,-2.54 -1.57,-3.89 -3.79,-3.89 -0.27,0 -3.23,0 -4.51,1.3 1.03,0.15 1.32,0.92 1.32,1.52 0,0.92 -0.69,1.52 -1.51,1.52 -0.8,0 -1.55,-0.52 -1.55,-1.57 0,-2.59 2.94,-3.79 6.33,-3.79 4.08,0 6.63,2.47 6.63,4.88 0,2.05 -1.83,3.79 -4.66,4.44 2.98,0.97 3.78,2.86 3.78,4.26 0,2.04 -2.54,3.56 -5.68,3.56 -3.06,0 -5.53,-1.3 -5.53,-3.54 0,-1.17 0.95,-1.47 1.43,-1.47 0.72,0 1.41,0.53 1.41,1.42 0,0.57 -0.29,1.27 -1.19,1.42 1.07,1.15 3.29,1.22 3.81,1.22 1.82,0 3.11,-0.92 3.11,-2.61 0,-1.45 -0.95,-3.71 -3.56,-3.87 -0.7,-0.02 -0.8,-0.04 -1.44,-0.07 -0.28,-0.02 -0.55,-0.05 -0.55,-0.42 0,-0.43 0.25,-0.43 0.69,-0.43 z"
         style="fill:#0000ff;stroke-width:0" /><path
         id="path2894"
         d="m 478.38,391.41 -8.77,19.38 c -0.35,0.8 -0.6,0.8 -0.75,0.8 -0.05,0 -0.3,0 -0.84,-0.4 l -4.73,-3.59 c -0.65,-0.5 -0.65,-0.65 -0.65,-0.8 0,-0.25 0.15,-0.55 0.49,-0.55 0.3,0 1.15,0.7 1.7,1.1 0.3,0.25 1.05,0.8 1.59,1.2 l 9.81,-21.57 c 0.36,-0.8 0.6,-0.8 1.05,-0.8 0.75,0 0.9,0.3 1.25,1 L 501.14,434 c 0.35,0.7 0.35,0.9 0.35,1 0,0.5 -0.4,0.99 -0.99,0.99 -0.4,0 -0.75,-0.25 -1.15,-1.04 z"
         style="fill:#0000ff;stroke-width:0" /><polyline
         id="polyline2896"
         points="500,434 516.68,434 516.68,436.04 500,436.04 "
         style="fill:#0000ff;fill-rule:nonzero;stroke-width:0" /></g>  </g>
</svg>
