<?xml version="1.0" encoding="UTF-8" standalone="no"?>
<!-- Created with Inkscape (http://www.inkscape.org/) -->

<svg
   xmlns:dc="http://purl.org/dc/elements/1.1/"
   xmlns:cc="http://creativecommons.org/ns#"
   xmlns:rdf="http://www.w3.org/1999/02/22-rdf-syntax-ns#"
   xmlns:svg="http://www.w3.org/2000/svg"
   xmlns="http://www.w3.org/2000/svg"
   xmlns:xlink="http://www.w3.org/1999/xlink"
   xmlns:sodipodi="http://sodipodi.sourceforge.net/DTD/sodipodi-0.dtd"
   xmlns:inkscape="http://www.inkscape.org/namespaces/inkscape"
   width="640"
   height="640"
   id="svg2"
   version="1.1"
   inkscape:version="0.48.3.1 r9886"
   sodipodi:docname="logo.svg">
  <defs
     id="defs4">
    <linearGradient
       inkscape:collect="always"
       id="linearGradient4141">
      <stop
         style="stop-color:#000000;stop-opacity:1;"
         offset="0"
         id="stop4143" />
      <stop
         style="stop-color:#000000;stop-opacity:0;"
         offset="1"
         id="stop4145" />
    </linearGradient>
    <linearGradient
       inkscape:collect="always"
       xlink:href="#linearGradient4141"
       id="linearGradient4156"
       gradientUnits="userSpaceOnUse"
       gradientTransform="translate(-1.4285801,4.0861573e-6)"
       x1="45.764688"
       y1="347.49918"
       x2="686.56469"
       y2="347.49918" />
    <linearGradient
       inkscape:collect="always"
       xlink:href="#linearGradient4141"
       id="linearGradient3050"
       gradientUnits="userSpaceOnUse"
       gradientTransform="translate(-1.4285801,4.0861573e-6)"
       x1="45.764688"
       y1="347.49918"
       x2="686.56469"
       y2="347.49918" />
    <linearGradient
       inkscape:collect="always"
       xlink:href="#linearGradient4141"
       id="linearGradient3064"
       gradientUnits="userSpaceOnUse"
       gradientTransform="translate(-1.4285801,4.0861573e-6)"
       x1="45.764688"
       y1="347.49918"
       x2="686.56469"
       y2="347.49918" />
  </defs>
  <sodipodi:namedview
     id="base"
     pagecolor="#242424"
     bordercolor="#666666"
     borderopacity="1.0"
     inkscape:pageopacity="0.91764706"
     inkscape:pageshadow="2"
     inkscape:zoom="0.35355339"
     inkscape:cx="120.64315"
     inkscape:cy="405.90267"
     inkscape:document-units="px"
     inkscape:current-layer="layer1"
     showgrid="false"
     fit-margin-top="0"
     fit-margin-left="0"
     fit-margin-right="0"
     fit-margin-bottom="0"
     inkscape:showpageshadow="true"
     inkscape:window-width="1366"
     inkscape:window-height="694"
     inkscape:window-x="0"
     inkscape:window-y="24"
     inkscape:window-maximized="1" />
  <metadata
     id="metadata7">
    <rdf:RDF>
      <cc:Work
         rdf:about="">
        <dc:format>image/svg+xml</dc:format>
        <dc:type
           rdf:resource="http://purl.org/dc/dcmitype/StillImage" />
        <dc:title />
      </cc:Work>
    </rdf:RDF>
  </metadata>
  <g
     inkscape:label="Layer 1"
     inkscape:groupmode="layer"
     id="layer1"
     transform="translate(-44.736118,-27.499177)">
    <g
       id="g2999">
      <rect
         style="fill:#ffffff;fill-opacity:1;stroke:url(#linearGradient3064);stroke-width:0;stroke-linejoin:round;stroke-miterlimit:4;stroke-opacity:1;stroke-dasharray:none"
         id="rect4152"
         width="640"
         height="640"
         x="44.736118"
         y="27.499178"
         ry="80"
         rx="80" />
      <path
         sodipodi:nodetypes="cccccccccscccccsscsccccccccccccccccc"
         id="path3173"
         d="m 122.44504,27.515536 c -37.387433,1.16193 -74.653542,28.956634 -77.530351,74.484594 -0.232142,21.64285 -0.05357,-26.312503 -0.196428,59.83035 l -0.01786,69.46429 6.660714,-8.25893 c 3,-4 8.625,-10.75 12.375,-14.875 l 7,-7.625 -1.375,-9.625 c -3.625,-25.125 7.125,-51.375 31.000005,-75.375 10.25,-10.375 27.75,-24.249999 30.5,-24.249999 1.625,0 1.375,4 -1.25,18.749999 -2.25,12.5 -2.875,39.125 -1.25,47.625 4,20 15,30.875 35.375,35 6.875,1.375 7.125,1.375 16,-3.375 17.75,-9.25 29,-22.75 35.875,-43 5,-14.75 6.625,-26.75 6.625,-48.249999 0,-13.5 0.375,-16.75 1.75,-16.75 3.5,0 19.25,13.75 26.125,22.749999 6.125,8 20,30.125 21.25,33.875 0.25,0.75 5,-2.625 10.5,-7.375 19.25,-17.125 33.375,-25 52.5,-29.375 9.875,-2.249999 14.25,-2.624999 27.625,-2.124999 33,1.374999 61.75,12.124999 90,33.624999 11.375,8.75 36.75,33.875 46.5,46 l 6.875,8.5 7.875,0.875 c 19.625,2.125 42.375,8.125 55.875,14.875 17.375,8.5 28.875,19.125 41.25,37.625 6.125,9.25 7.25,10.25 13.375,12.375 14.5,5 32.625,17.5 50,34.5 l 11,10.625 0,-101.875 0,-87.63393 c 0.54441,-49.911734 -41.68134,-81.717562 -76.62056,-81.011374 -11.15546,0.01777 -22.00444,0.02031 -243.00444,0.145305 -205.5,0 -236.16862,-0.130076 -242.66608,-0.145305 z"
         inkscape:connector-curvature="0"
         style="fill:#ff6600;fill-opacity:1;stroke:none" />
      <path
         id="path3175"
         d="m 231.86112,119.66084 c -0.75,18.25 -3.625,30.75 -9.75,43.625 -5.625,11.625 -19.75,25.75 -31.625,31.75 -11.5,5.75 -21,15.125 -25.875,25.625 -3.625,7.625 -3.875,9.125 -3.375,18.25 0.375,5.375 0.375,9.875 0.25,9.875 -0.25,0 -1.875,-2.75 -3.625,-6.25 -5.5,-10.875 -4,-23.25 4.375,-33.75 l 3.75,-4.75 -8.875,-1.25 c -7.375,-1.125 -9.875,-2.125 -15.75,-6.625 -21.5,-16.625 -29.5,-42.75 -23.5,-76.75 1,-5.375 1.625,-10.125 1.375,-10.25 -1.125,-1.125 -21.500001,22.25 -28.125001,32.125 -10.375001,15.5 -14.375001,28.375 -13.625001,43.125 0.25,5.875 0.875,10.875 1.25,11.375 0.375,0.375 3.375,-0.25 6.5,-1.25 6.000001,-2 16.500002,-2.625 21.875002,-1.125 2.375,0.625 0.5,1.5 -8.875001,4.625 -14.875001,4.875 -24.375001,10.625 -33.375001,20.125 -13.25,14.25 -19.75,31.25 -18.5,48.125 1.625,20.625 11.875,39.5 35.25,65.5 6.75,7.375 12.375001,13.125 12.750001,12.75 0.375,-0.375 0.125,-3.875 -0.625,-7.875 -0.75,-4 -1.75,-10.375 -2.25,-14.125 l -0.75,-6.875 7.625,8.375 c 4.250001,4.625 11.250001,10.625 15.500001,13.5 8.875,5.75 22.25,10.375 28.75,9.75 l 4.5,-0.375 -6.125,-9 c -7.5,-11.25 -11.25,-21 -11.25,-29.5 l 0.125,-6.5 2.625,5 c 3.625,7.125 9.5,13 15.75,15.875 3,1.375 5.75,2.125 6.125,1.875 0.25,-0.375 -0.75,-3.125 -2.25,-6.125 -5.25,-10.25 -7.625,-24.875 -5.375,-33.125 l 0.75,-2.875 3.75,3.125 c 2.75,2.375 5.125,3.125 9.375,3.125 4.75,0 6.25,-0.625 10,-4.375 4.5,-4.5 4.75,-6.375 2.625,-17.25 -0.25,-1.875 2.25,-3.25 14.375,-7.75 59.875,-22.25 83.375,-49.75 76.625,-89.25 -2.25,-12.625 -7.25,-26.25 -14.75,-40.125 -4.5,-8.25 -15.875,-26.25 -16.625,-26.25 -0.125,0 -0.625,7.125 -1,15.875 z"
         inkscape:connector-curvature="0"
         style="fill:#003f7d;fill-opacity:1;stroke:none" />
      <path
         id="path3177"
         d="m 337.73612,112.28584 c -19.375,5 -37,15.875 -54.5,33.625 l -9.625,9.75 2,6.875 c 4.125,14.5 2.5,40.75 -3.125,51.875 -1.625,3 -1.875,7.875 -1.625,25 0.25,23 -1,32.375 -6.625,47.25 -7.625,20.375 -20.375,34.125 -42.5,46.25 -4.875,2.625 -7.5,4.5 -5.75,4 1.75,-0.375 9,-1.625 16.25,-2.75 35,-5.375 58.25,7.125 66.75,35.875 3.75,12.625 3.75,43.25 0,58.25 -0.625,2.625 -0.25,2.875 7.375,3.625 10.625,1.125 32.125,-1.25 45.625,-5.125 14.375,-4.125 35.75,-14.625 49.625,-24.5 14.375,-10.125 35.125,-31 46,-46.125 11.5,-16.125 22.25,-38.375 27.75,-57.25 5,-17.375 7.625,-23 13.375,-29.5 8.375,-9.625 21,-12.5 37.75,-8.875 24.25,5.5 44.75,21.625 55,43.375 8.875,18.875 11.875,35.125 12,63 0,8.875 -0.875,24.125 -1.875,33.75 -1.125,9.625 -2.25,21 -2.75,25.375 l -0.75,7.75 17.625,0 c 10.125,0 17.875,-0.5 18.375,-1.25 1.875,-3 4.625,-42.125 4.75,-68.125 0.125,-30.875 -1.25,-44.875 -6,-66.375 -1.75,-7.375 -2.875,-13.625 -2.75,-13.875 0.25,-0.125 4.375,1.625 9.375,4 26.75,12.75 37.75,25.375 36.125,41.25 -0.75,6.875 -4.625,15.25 -17.875,38.125 -5.875,10.25 -6.125,11 -6,20 0.125,11.375 3.125,20.375 11.125,33.25 5.375,8.625 7.75,11.375 8.75,10.25 0.25,-0.25 5.5,-18.75 11.75,-41.125 10.875,-39 11.375,-41.375 11.375,-53.375 0,-15.375 -2.25,-22.125 -11.125,-34.125 -10.625,-14.5 -31.25,-28.875 -53.5,-37.75 -9.625,-3.75 -10.5,-4.375 -13.625,-10 -4.375,-8.125 -16.5,-23 -23.25,-28.5 -18.5,-15.375 -41.375,-24.5 -67.5,-27.25 l -11,-1 -15.875,-15.375 c -39.125,-37.625 -73,-60.25 -102.875,-68.75 -13.375,-3.875 -36.25,-4.5 -48.25,-1.5 z"
         inkscape:connector-curvature="0"
         style="fill:#003f7d;fill-opacity:1;stroke:none" />
      <path
         id="path3179"
         d="m 250.36112,241.41084 c -8.5,7 -37.5,22.125 -55.25,28.625 -11.25,4.125 -11.625,4.375 -11.625,8.25 0,4.75 -4.25,11.375 -9.875,15.125 -4.625,3.125 -14.5,4 -18.875,1.625 -2.125,-1.125 -2.25,-0.875 -1.625,3.375 1.125,8.5 4.25,18.375 7.875,25.125 2.875,5.375 3.25,6.75 1.75,7.375 -2.75,1 -12.25,-0.75 -17.375,-3.375 l -4.625,-2.375 0.75,3.375 c 0.5,1.875 3.625,7.5 7.125,12.5 3.5,5.125 5.875,9.625 5.5,10 -0.5,0.5 -6.25,0.875 -12.875,0.75 -13,0 -20.125,-2.25 -28.625,-8.75 l -4.125,-3.125 0,28.125 0,28 3.25,3.875 c 4.25,5.125 9.875,6 21,3.375 25,-6.125 44.625,-5.5 58.5,2 41.5,22.125 4.125,85 -73.125,123 l -9.625,4.75 0,17.125 0,17.125 9,-2.75 c 37.125,-11.375 72.5,-32.125 102,-59.625 4.375,-4 8.25,-7.375 8.5,-7.375 0.25,0 0.5,12.75 0.5,28.25 0,18.125 0.5,30.125 1.5,33.25 4,13.5 23.5,16.375 33.625,5 2.375,-2.625 8.875,-14.5 14.875,-27.375 5.875,-12.5 11,-22.75 11.625,-22.875 0.5,0 0.875,12.375 0.875,27.5 l 0,27.5 18.5,0 18.375,0 -0.625,-55.875 c -0.625,-51.25 -0.875,-56.25 -2.875,-59.25 -5,-7.375 -19.75,-8.875 -28.625,-3 -4.375,2.875 -6.375,6.125 -17,28.25 -6.625,13.625 -12.5,24.875 -13,24.875 -0.625,0 -1,-11.875 -1,-26.25 l 0,-26.25 7.5,-15.375 c 8.875,-18 12.5,-31.375 12.625,-45.375 0,-15.125 -2.5,-22.625 -10.375,-30.125 -7.375,-7.125 -14.875,-9.625 -30.375,-10.125 -16.375,-0.625 -29.5,1.5 -49,8 -7.25,2.25 -13.375,4.25 -13.75,4.25 -0.375,0 -0.125,-3.625 1.625,-24.5 l 0.625,-7.5 7.625,-1.625 c 18.125,-3.75 38.875,-14.875 48.5,-26.125 6.875,-8.125 13.375,-20.75 15.75,-31 1.625,-6.875 3.75,-37 2.625,-36.625 -0.125,0 -3.625,2.875 -7.75,6.25 z m -126.375,135.5 c 1,4.125 5.125,6 10.875,5.25 4.125,-0.5 4.875,-0.25 4.875,1.625 0,4 -6.125,8.75 -11.5,8.75 -9,0 -14.5,-10.25 -8.875,-16.5 2.75,-3 3.75,-2.875 4.625,0.875 z"
         inkscape:connector-curvature="0"
         style="fill:#ff6600;fill-opacity:1;stroke:none" />
      <path
         sodipodi:nodetypes="cccccccc"
         id="path3181"
         d="m 44.861118,426.53584 -0.125,142.25 25.625,0 25.625001,0 0,-107.25 0,-107.125 c -21.255674,-20.52368 -42.79463,-47.16382 -51.125001,-70 z"
         inkscape:connector-curvature="0"
         style="fill:#ff6600;fill-opacity:1;stroke:none" />
      <path
         id="path3183"
         d="m 147.86112,416.28584 c -16.375,3.125 -29.125,3.375 -34.5,0.75 -2.125,-1.125 -4.25,-2 -4.5,-2 -0.125,0 -0.375,22.875 -0.375,50.75 l 0,50.625 9.75,-5.25 c 40.375,-22.125 64.25,-42.875 71.625,-62.375 2.25,-5.875 2.375,-7.75 1.25,-14.125 -1.5,-8.5 -4.375,-13.875 -9.125,-17.5 -4.75,-3.5 -18.25,-3.875 -34.125,-0.875 z"
         inkscape:connector-curvature="0"
         style="fill:#003f7d;fill-opacity:1;stroke:none" />
      <path
         id="path3185"
         d="m 501.73612,447.66084 c -33.375,5.25 -57.375,37.5 -52.125,70.125 5.375,34.125 37.875,57.875 71.5,52.375 33.875,-5.375 58.125,-37.75 52.625,-70.5 -5.75,-34.125 -37.875,-57.375 -72,-52 z m 23.25,40.5 c 13.25,8.75 15.375,27.25 4.5,37.75 -11.25,10.875 -27.25,10.125 -37,-1.5 -10.875,-13.375 -4.625,-34.125 11.875,-39.375 5.75,-1.875 15.25,-0.375 20.625,3.125 z"
         inkscape:connector-curvature="0"
         style="fill:#ff6600;fill-opacity:1;stroke:none" />
      <path
         id="path3187"
         d="m 349.73612,462.53584 0,13.75 18.625,0 c 16.875,0 18.875,0.25 21.875,2.625 2.375,1.875 3.25,3.75 3.25,6.75 0,7 -2.875,8.125 -22.125,8.125 l -16.625,0 0,12.375 0,12.5 18.75,0.375 c 20,0.375 21.5,0.875 23.125,7.25 0.5,2.25 0,4.25 -1.875,6.625 l -2.625,3.375 -21.25,0 -21.125,0 0,16.375 0,16.375 29.75,-0.5 c 29.625,-0.375 29.625,-0.375 36.75,-3.875 8.75,-4.25 13.75,-10.125 16.625,-19.25 2.5,-7.75 2,-19.25 -1.125,-25.25 -1.875,-3.625 -10.5,-11.875 -13.375,-12.875 -1.125,-0.375 -0.5,-1.875 2.25,-5.5 14.375,-18.125 7.875,-45.125 -12.25,-51 -5,-1.5 -12.75,-2 -32.625,-2 l -26,0 0,13.75 z"
         inkscape:connector-curvature="0"
         style="fill:#ff6600;fill-opacity:1;stroke:none" />
      <path
         id="path3189"
         d="m 590.36112,508.78584 0,60 18.5,0 18.375,0 0,-23.75 0,-23.875 9.75,0.375 9.625,0.375 0.375,23.375 0.25,23.5 18.125,0 18.125,0 0,-60 0,-60 -18.125,0 -18.125,0 0,21.25 0,21.25 -10,0 -10,0 0,-21.25 0,-21.25 -18.375,0 -18.5,0 0,60 z"
         inkscape:connector-curvature="0"
         style="fill:#ff6600;fill-opacity:1;stroke:none" />
      <path
         sodipodi:nodetypes="ccccccccccccccccsccccsccccc"
         id="path3191"
         d="m 207.87228,532.79093 c -19,15.875 -48.375,33.375 -68.125,40.375 -17.5,6.375 -23.5,7.125 -59.875001,7.875 l -35.321429,1.28571 0.267858,11.375 c 3.198707,35.84559 29.140106,70.5456 75.892862,73.89286 l 28.23214,0.33929 213.67857,-0.51786 c 221.75,0.25 221.67503,0.2811 238.21075,0.26325 48.80357,1.51785 82.34952,-35.12039 83.90309,-76.60253 l 0,-10.0179 -53.3638,-0.0714 -53.5,-0.19643 -0.375,-16.75 -0.375,-16.875 -5,7.75 c -12.5,19.125 -33.125,29.375 -58.625,29.375 -22.625,0 -41.375,-8 -58,-24.375 -5.375,-5.375 -10,-9.625 -10.125,-9.5 -0.125,0.25 -1.875,3.375 -3.875,7.125 -6.625,12.5 -18.125,19.75 -35.75,22.625 -4.75,0.75 -39.375,1.25 -87.625,1.25 -86,0 -84.75,0.125 -91.875,-6.625 -6.875,-6.375 -8.25,-11.375 -8.75,-30.625 -0.25,-9.75 -0.875,-17.75 -1.25,-17.625 -0.5,0 -4.25,2.875 -8.375,6.25 z"
         inkscape:connector-curvature="0"
         style="fill:#003f7d;fill-opacity:1;stroke:none" />
    </g>
  </g>
</svg>
