<?xml version="1.0" encoding="UTF-8" standalone="no"?>
<svg
   xmlns:dc="http://purl.org/dc/elements/1.1/"
   xmlns:cc="http://creativecommons.org/ns#"
   xmlns:rdf="http://www.w3.org/1999/02/22-rdf-syntax-ns#"
   xmlns:svg="http://www.w3.org/2000/svg"
   xmlns="http://www.w3.org/2000/svg"
   xmlns:sodipodi="http://sodipodi.sourceforge.net/DTD/sodipodi-0.dtd"
   xmlns:inkscape="http://www.inkscape.org/namespaces/inkscape"
   version="1.0"
   width="512.000000pt"
   height="512.000000pt"
   viewBox="0 0 512.000000 512.000000"
   preserveAspectRatio="xMidYMid meet"
   id="svg4234"
   inkscape:version="0.48.3.1 r9886"
   sodipodi:docname="minilogo.svg">
  <defs
     id="defs4254" />
  <sodipodi:namedview
     pagecolor="#31312d"
     bordercolor="#666666"
     borderopacity="1"
     objecttolerance="10"
     gridtolerance="10"
     guidetolerance="10"
     inkscape:pageopacity="1"
     inkscape:pageshadow="2"
     inkscape:window-width="1366"
     inkscape:window-height="694"
     id="namedview4252"
     showgrid="false"
     inkscape:zoom="0.52149125"
     inkscape:cx="-95.479009"
     inkscape:cy="180.44085"
     inkscape:window-x="0"
     inkscape:window-y="24"
     inkscape:window-maximized="1"
     inkscape:current-layer="svg4234"
     borderlayer="false" />
  <metadata
     id="metadata4236">
Created by potrace 1.11, written by Peter Selinger 2001-2013
<rdf:RDF>
  <cc:Work
     rdf:about="">
    <dc:format>image/svg+xml</dc:format>
    <dc:type
       rdf:resource="http://purl.org/dc/dcmitype/StillImage" />
    <dc:title />
  </cc:Work>
</rdf:RDF>
</metadata>
  <g
     id="g2996">
    <g
       id="g6340">
      <rect
         style="fill:#ffffff;fill-opacity:1;stroke:#000000;stroke-width:0;stroke-linejoin:round;stroke-miterlimit:4;stroke-opacity:1;stroke-dasharray:none"
         id="rect4256"
         width="512"
         height="512"
         x="0"
         y="0"
         rx="64"
         ry="64" />
      <path
         sodipodi:nodetypes="ccccccccccc"
         style="fill:#ff6600;stroke:none"
         inkscape:connector-curvature="0"
         id="path4240"
         d="M 0.00847457,60.881197 C -0.07118644,72.64476 0,69.473069 -0.13898305,106.02142 L 0.02542373,150.9122 4.7254237,145.16776 C 8.2016949,141.15735 25.3,120.54723 35.1,112.55073 l 5.7,-4.59799 -1.9,-5.89741 C 27.5,65.27143 43.5,31.386264 84.4,5.6975106 L 93.70678,-0.03563202 60.950847,0.06432422 C 25.457615,1.8588045 1.5351625,30.105855 0.00847457,60.881197 z" />
      <path
         style="fill:#003e7d;stroke:none;fill-opacity:1"
         inkscape:connector-curvature="0"
         id="path4242"
         d="M 99.5,9.195979 C 73.6,30.386702 59.7,45.280182 53.2,58.774274 c -4.4,9.395887 -5.4,20.291117 -2.7,32.685691 0.9,4.597987 2,8.796145 2.4,9.395885 0.5,0.79965 4.1,0.29987 12.6,-1.899167 10.6,-2.698819 13.1,-2.998688 22,-2.598863 9.5,0.499782 17.5,2.199038 17.5,3.69838 0,0.39983 -2.6,0.99956 -5.7,1.29943 -14.6,1.49935 -36.4,9.09602 -53,18.29199 -6.9,3.79834 -11.3,7.39677 -20.4,16.39283 -12.4,12.39457 -19,21.79046 -23.4,33.28543 -2.3,6.29724 -2.5,7.89654 -2.5,24.28936 0,14.99344 0.3,18.29199 2.1,23.58967 6.5,19.39152 21.6,40.68219 44.5,62.77252 11.7,11.29506 32.2,28.48753 33,27.78784 0.2,-0.29987 -0.5,-4.29812 -1.6,-8.99606 -2,-8.29637 -5,-26.48841 -5,-30.08683 0,-1.29943 2.8,0.99956 8.8,6.99693 22,22.09033 52.7,36.28412 78.8,36.28412 l 7.4,0 -8.8,-10.49541 c -9.9,-11.79483 -14.2,-18.59186 -18,-27.68787 -3,-7.59668 -5,-20.69095 -3.6,-23.88955 1,-2.09908 1.3,-1.69925 4.7,4.29812 5.3,9.49585 11.6,15.993 19.4,20.09121 6.1,3.1986 18.3,7.19685 18.3,6.09733 0,-0.29987 -1.8,-3.49847 -4,-7.09689 -7.6,-12.59449 -11.5,-26.48841 -10.7,-38.28324 0.2,-4.09821 0.9,-8.6962 1.6,-10.2955 l 1.1,-2.69882 4.5,3.49847 c 5.8,4.39808 11.3,5.79746 19.7,5.29768 12,-0.8996 20.6,-8.29636 21.6,-18.79177 0.4,-3.99825 0,-5.69751 -2.2,-9.5958 -1.4,-2.59886 -2.5,-4.7979 -2.4,-4.89785 0.2,-0.19992 7.3,-2.19904 15.8,-4.49804 62.8,-16.8926 106.8,-37.58354 130.6,-61.37313 14.1,-14.19378 20.1,-25.78871 21.1,-41.181968 1.5,-21.590548 -9.9,-43.480964 -35.4,-68.470024 -10,-9.795712 -23.9,-21.8904168 -25.2,-21.8904168 -0.4,0 -0.7,5.397637 -0.8,11.8947928 -0.6,31.486215 -10.9,52.876851 -32.8,68.070199 -8.6,5.897418 -25.2,13.993874 -40,19.391511 -38.6,14.293746 -58.6,43.381006 -49.9,72.568226 0.7,2.39895 1.2,4.59799 0.9,4.7979 -0.6,0.59974 -8.6,-9.99562 -11.3,-15.19334 -2.3,-4.39808 -2.7,-6.3972 -2.7,-13.59405 0,-7.69663 0.3,-9.19598 3.4,-15.49322 2.3,-4.69794 5.6,-9.09602 10.2,-13.59405 l 6.8,-6.69707 -6.2,-0.69969 c -17.2,-1.79921 -28.4,-4.7979 -40.8,-10.99519 C 132,90.060577 118.1,73.667754 111.4,51.577425 c -2.5,-8.096456 -2.8,-10.495405 -2.8,-23.989498 0,-10.395449 0.5,-16.892604 1.6,-21.2906789 0.8,-3.3985122 1.3,-6.1972869 0.9,-6.09733066 -0.3,0 -5.5,4.09820586 -11.6,8.99606156 z" />
      <path
         style="fill:#ff6600;stroke:none"
         inkscape:connector-curvature="0"
         id="path4244"
         d="m 128.2,1.7992173 c -0.4,0.9995624 -0.7,10.2954927 -0.7,20.7908977 0,16.792649 0.3,19.891292 2.3,26.788273 3.4,11.894792 7.6,19.39151 15.1,26.688316 11.1,10.995186 26.6,17.492342 49,20.590985 l 12,1.5993 10.8,-3.1986 c 54.1,-15.992998 80.4,-39.982496 83.9,-76.666436 0.3,-3.898293 0.3,-9.6957552 0,-12.6944424 l -0.7,-5.5975494 -85.5,0 c -80.5,0 -85.5,0.09995624 -86.2,1.6992561 z" />
      <path
         sodipodi:nodetypes="cccccscccccccssccsccccc"
         style="fill:#003e7d;fill-opacity:1;stroke:none"
         inkscape:connector-curvature="0"
         id="path4246"
         d="m 356.6,12.394579 c 26.1,26.988185 38.7,51.877288 38.8,76.666436 0.1,16.992565 -5.2,30.086825 -16.9,41.981625 l -5.5,5.49759 1.2,6.49715 c 0.6,3.59843 1.2,14.99344 1.2,25.48885 0,21.79046 -1.4,31.68612 -7,48.47877 -13.3,39.78259 -45.5,70.66906 -89.7,85.96237 -8.5,2.99869 -7.9,3.79834 1.4,1.99912 18.7,-3.59842 55.4,-5.09777 72.9,-2.99868 39.1,4.7979 64.6,21.99037 71.5,48.07895 3.2,11.89479 1.3,30.68656 -4.5,44.98031 -21.1,51.97724 -86.41648,95.23988 -164.9,113.45033 -18.4725,3.50464 -18.69504,3.36589 -18.99504,3.66576 -0.3,0.29987 57.14265,-0.43747 110.99504,-0.26725 90.24062,0.28523 92.81514,0.3794 100.97392,0.20606 42.01629,-0.47169 63.37443,-34.67739 63.97663,-61.87712 C 512.27527,428.11 512,394.82715 512,255.18829 512,66.670817 512.47528,90.65697 512.20522,62.821696 511.17505,19.501055 472.55722,-0.92050216 451.17199,0.02446909 L 400.81236,0.10811591 344.7,4.96e-6 z" />
      <path
         sodipodi:nodetypes="cccscccccccsccsccccsscccsccccccccccccccccccccccccccccccscccccc"
         style="fill:#ff6600;stroke:none"
         inkscape:connector-curvature="0"
         id="path4248"
         d="m 353,158.43065 c -7.4,7.19684 -28.2,18.29199 -50.5,27.08814 -11.9,4.69794 -47.9,16.8926 -64.7,21.99037 -8.8,2.59886 -8.8,2.59886 -8.8,5.99737 0,5.39764 -5.8,15.39326 -11.5,19.69138 -9.5,7.29681 -25,9.79571 -36.1,5.99738 l -5.1,-1.79922 0.4,4.59799 c 1.2,11.79484 6.5,25.78871 14.7,38.48315 5.5,8.49628 5,8.99607 -7.3,8.19642 -9,-0.59974 -17.4,-2.99869 -24.7,-7.0969 -2.4,-1.39938 -4.4,-2.29899 -4.4,-1.99912 0,0.19991 0.8,2.29899 1.7,4.59799 2.2,5.6975 6.1,11.39501 15.5,22.49015 4.3,5.09777 7.8,9.69575 7.8,10.19554 0,0.69969 -3.5,1.19947 -8.7,1.29943 -31.1,0.8996 -45.7,-2.19904 -63,-13.39414 l -6.8,-4.39807 0.3,36.9838 c 0.1,20.39108 0.5,38.58311 0.8,40.38233 1.3,7.79658 11.8,14.19378 23.4,14.19378 3.2,0 13.7,-1.5993 23.2,-3.49847 29.3,-5.79746 38.6,-6.89698 58.8,-6.99693 15.2,0 19.6,0.29987 24.4,1.79921 11.5,3.59842 16.6,8.79615 16.6,17.29243 0,9.19597 -5.8,18.99168 -18.7,31.88604 -33,32.78565 -94,60.87335 -137.5,63.17234 l -10.8,0.59974 0,-87.36175 0,-87.36176 -5.7,-4.49803 c -24.949678,-19.2807 -50.116797,-40.22412 -65.9,-63.57217 -2,-3.1986 -5.2,-8.8961 -7,-12.7944 L 0,233.49778 0.01236334,345.44877 -0.07527331,451.83878 C 3.4952975,493.56654 37.40508,511.80551 61.628006,512.082 79.169218,511.95745 142.2,511.97587 183.3,506.27836 c 73.4,-10.19554 136.5,-34.58486 177.2,-68.47002 14.4,-11.99475 26.2,-26.18854 32.8,-39.38276 6.3,-12.49453 8.6,-24.58924 6.7,-34.18504 -4.5,-21.6905 -22.4,-34.88472 -55.5,-40.8821 -12.1,-2.19904 -46.5,-2.4989 -62,-0.49978 -10.1,1.19948 -32.1,4.69794 -36.2,5.79746 l -2.3,0.49978 0,-18.39194 0,-18.39195 7.8,-1.89917 c 19.9,-4.59799 43.1,-14.49366 58,-24.68919 10,-6.89698 22.5,-19.39151 28.7,-28.68744 6,-9.09602 11.6,-21.89042 14.4,-33.08552 2.8,-10.99519 4.6,-32.38582 3.5,-41.28193 l -0.9,-6.79702 z M 127,350.54654 c 0,3.49847 5.5,8.8961 10.5,10.29549 5,1.39939 8,1.39939 12.8,0 4.7,-1.29943 5.3,-0.79965 3.8,2.99869 -3.8,8.8961 -16.2,13.59405 -25.9,9.49584 -11.6,-4.7979 -14.5,-16.09295 -5.8,-22.88998 3.9,-3.09864 4.6,-3.09864 4.6,0.1 z" />
      <path
         style="fill:#003e7d;stroke:none;fill-opacity:1"
         inkscape:connector-curvature="0"
         id="path4250"
         d="m 193,395.6268 c -10.6,1.09952 -26,3.8983 -38.4,7.0969 -12.6,3.09864 -15.6,3.49846 -27.6,3.59842 -12,0.1 -14,-0.1 -18.4,-2.19904 -2.7,-1.19947 -5.1,-2.09908 -5.3,-1.89917 -0.2,0.19992 -0.2,18.19204 -0.1,39.88254 l 0.3,39.58268 9.1,-2.299 c 38.1,-9.89567 85.2,-33.18547 102.8,-50.87772 6.6,-6.59712 11.6,-16.49278 11.6,-22.88998 0,-8.19641 -13.4,-12.09471 -34,-9.99563 z" />
    </g>
  </g>
</svg>
