<?xml version="1.0"?>
<svg xmlns:rdf="http://www.w3.org/1999/02/22-rdf-syntax-ns#" xmlns="http://www.w3.org/2000/svg" xmlns:cc="http://web.resource.org/cc/" xmlns:xlink="http://www.w3.org/1999/xlink" xmlns:dc="http://purl.org/dc/elements/1.1/" xmlns:svg="http://www.w3.org/2000/svg" version="1.1" viewBox="0 0 369.76 369.76">
  <defs>
    <linearGradient id="grad_dp_001" y2="1090.4" gradientUnits="userSpaceOnUse" y1="1402.3" x2="982.51" x1="1166.2">
      <stop stop-color="#b5eb13" offset="0"/>
      <stop stop-color="#00eb31" offset="1"/>
    </linearGradient>
    <radialGradient id="grad_dp_002" gradientUnits="userSpaceOnUse" cy="1245.5" cx="1079" r="182.27">
      <stop stop-color="#fff" stop-opacity=".24706" offset="0"/>
      <stop stop-color="#dedede" stop-opacity=".24706" offset=".7386"/>
      <stop stop-opacity=".24706" offset="1"/>
    </radialGradient>
    <radialGradient id="grad_dp_003" gradientUnits="userSpaceOnUse" cy="1121.2" cx="1076.1" r="105.03">
      <stop stop-color="#fff" stop-opacity=".36471" offset="0"/>
      <stop stop-color="#d6d6d6" stop-opacity=".36471" offset="1"/>
    </radialGradient>
  </defs>
  <g id="selection" transform="translate(-891.26 -1060.6)" fill-rule="evenodd">
    <path id="dp_path001" stroke-width="1.3333" fill="url(#grad_dp_001)" d="m1076.1 1064c100.3 0 181.6 81.3 181.6 181.5 0 100.3-81.3 181.6-181.6 181.6-100.23 0-181.51-81.3-181.51-181.6 0-100.2 81.28-181.5 181.51-181.5z"/>
    <path id="dp_path002" stroke-width="1.3333" fill="url(#grad_dp_002)" d="m1076.1 1064c100.3 0 181.6 81.3 181.6 181.5 0 100.3-81.3 181.6-181.6 181.6-100.23 0-181.51-81.3-181.51-181.6 0-100.2 81.28-181.5 181.51-181.5z"/>
    <path id="dp_path003" stroke-width="6.6667" fill="none" d="m1076.1 1064c100.3 0 181.6 81.3 181.6 181.5 0 100.3-81.3 181.6-181.6 181.6-100.23 0-181.51-81.3-181.51-181.6 0-100.2 81.28-181.5 181.51-181.5z"/>
    <path id="dp_path004" stroke-width="1.3333" fill="url(#grad_dp_003)" d="m1076.1 1064c57.8 0 104.6 25.6 104.6 57.2s-46.8 57.3-104.6 57.3c-57.7 0-104.58-25.7-104.58-57.3s46.88-57.2 104.58-57.2z"/>
  </g>
  <metadata>
    <rdf:RDF>
      <cc:Work>
        <dc:format>image/svg+xml</dc:format>
        <dc:type rdf:resource="http://purl.org/dc/dcmitype/StillImage"/>
        <cc:license rdf:resource="http://creativecommons.org/licenses/publicdomain/"/>
        <dc:publisher>
          <cc:Agent rdf:about="http://openclipart.org/">
            <dc:title>Openclipart</dc:title>
          </cc:Agent>
        </dc:publisher>
        <dc:title>Empty Button Green</dc:title>
        <dc:date>2012-01-06T16:58:12</dc:date>
        <dc:description>button, buttons, clip art, clipart, green, </dc:description>
        <dc:source>http://openclipart.org/detail/166886/empty-button-green-by-jogdragoon</dc:source>
        <dc:creator>
          <cc:Agent>
            <dc:title>jogdragoon</dc:title>
          </cc:Agent>
        </dc:creator>
        <dc:subject>
          <rdf:Bag>
            <rdf:li>button</rdf:li>
            <rdf:li>buttons</rdf:li>
            <rdf:li>clip art</rdf:li>
            <rdf:li>clipart</rdf:li>
            <rdf:li>green</rdf:li>
          </rdf:Bag>
        </dc:subject>
      </cc:Work>
      <cc:License rdf:about="http://creativecommons.org/licenses/publicdomain/">
        <cc:permits rdf:resource="http://creativecommons.org/ns#Reproduction"/>
        <cc:permits rdf:resource="http://creativecommons.org/ns#Distribution"/>
        <cc:permits rdf:resource="http://creativecommons.org/ns#DerivativeWorks"/>
      </cc:License>
    </rdf:RDF>
  </metadata>
</svg>
