<?xml version="1.0"?>
<svg xmlns:rdf="http://www.w3.org/1999/02/22-rdf-syntax-ns#" xmlns="http://www.w3.org/2000/svg" xmlns:ns="http://creativecommons.org/ns#" xmlns:cc="http://web.resource.org/cc/" xmlns:xlink="http://www.w3.org/1999/xlink" xmlns:dc="http://purl.org/dc/elements/1.1/" xmlns:svg="http://www.w3.org/2000/svg" id="svg2" viewBox="0 0 180 190" version="1.0">
  <defs id="defs5">
    <linearGradient id="linearGradient3226">
      <stop id="stop3228" stop-color="#ececec" offset="0"/>
      <stop id="stop3230" stop-color="#ececec" stop-opacity="0" offset="1"/>
    </linearGradient>
    <linearGradient id="linearGradient3164" y2="499.5" gradientUnits="userSpaceOnUse" y1="499.5" x2="308.38" x1="203.82">
      <stop id="stop3160" stop-color="#fff" offset="0"/>
      <stop id="stop3162" stop-color="#b40200" offset="1"/>
    </linearGradient>
    <filter id="filter3218">
      <feGaussianBlur id="feGaussianBlur3220" stdDeviation="3.5545661"/>
    </filter>
    <linearGradient id="linearGradient3232" x1="249.25" xlink:href="#linearGradient3226" gradientUnits="userSpaceOnUse" x2="249.25" y1="399.32" y2="497.08"/>
    <linearGradient id="linearGradient3236" x1="249.25" xlink:href="#linearGradient3226" gradientUnits="userSpaceOnUse" x2="249.25" y1="547.29" y2="411.72"/>
    <filter id="filter3580">
      <feGaussianBlur id="feGaussianBlur3582" stdDeviation="3.8053667"/>
    </filter>
    <filter id="filter3620">
      <feGaussianBlur id="feGaussianBlur3622" stdDeviation="0.65401177"/>
    </filter>
  </defs>
  <path id="path3426" filter="url(#filter3580)" transform="translate(-238.84 -412.57)" fill="#333" d="m405.09 502.32a79.728 79.728 0 1 1 -159.46 0 79.728 79.728 0 1 1 159.46 0z"/>
  <path id="path2382" d="m405.09 502.32a79.728 79.728 0 1 1 -159.46 0 79.728 79.728 0 1 1 159.46 0z" transform="translate(-243.28 -420.24)" filter="url(#filter3620)" stroke="#fff" stroke-linecap="round" stroke-width="4.7" fill="#f00"/>
  <path id="path3156" d="m306.03 499.5a49.931 50.334 0 1 1 -99.86 0 49.931 50.334 0 1 1 99.86 0z" fill-rule="evenodd" transform="matrix(1.3312 0 0 1.3286 -258.45 -581.55)" filter="url(#filter3218)" stroke="url(#linearGradient3164)" stroke-linecap="round" stroke-width="4.7" fill="#f00"/>
  <rect id="rect3222" fill-rule="evenodd" ry="0" height="29.798" width="124.83" y="69.14" x="19.705" fill="#ececec"/>
  <path id="path3224" fill-rule="evenodd" fill="url(#linearGradient3232)" transform="matrix(1.202 0 0 1.1698 -217.12 -497.8)" d="m289.12 454.4a39.864 21.341 0 1 1 -79.73 0 39.864 21.341 0 1 1 79.73 0z"/>
  <path id="path3234" fill-rule="evenodd" fill="url(#linearGradient3236)" transform="matrix(.66667 0 0 .28302 -85.298 18.305)" d="m289.12 454.4a39.864 21.341 0 1 1 -79.73 0 39.864 21.341 0 1 1 79.73 0z"/>
  <metadata>
    <rdf:RDF>
      <cc:Work>
        <dc:format>image/svg+xml</dc:format>
        <dc:type rdf:resource="http://purl.org/dc/dcmitype/StillImage"/>
        <cc:license rdf:resource="http://creativecommons.org/licenses/publicdomain/"/>
        <dc:publisher>
          <cc:Agent rdf:about="http://openclipart.org/">
            <dc:title>Openclipart</dc:title>
          </cc:Agent>
        </dc:publisher>
        <dc:title>No Entry</dc:title>
        <dc:date>2009-03-02T23:26:48</dc:date>
        <dc:description>No Entry Sign (forbidden)</dc:description>
        <dc:source>http://openclipart.org/detail/21814/no-entry-by-paulo_tavares-21814</dc:source>
        <dc:creator>
          <cc:Agent>
            <dc:title>paulo_tavares</dc:title>
          </cc:Agent>
        </dc:creator>
        <dc:subject>
          <rdf:Bag>
            <rdf:li>clip art</rdf:li>
            <rdf:li>clipart</rdf:li>
            <rdf:li>image</rdf:li>
            <rdf:li>media</rdf:li>
            <rdf:li>png</rdf:li>
            <rdf:li>public domain</rdf:li>
            <rdf:li>sign</rdf:li>
            <rdf:li>svg</rdf:li>
            <rdf:li>traffic</rdf:li>
          </rdf:Bag>
        </dc:subject>
      </cc:Work>
      <cc:License rdf:about="http://creativecommons.org/licenses/publicdomain/">
        <cc:permits rdf:resource="http://creativecommons.org/ns#Reproduction"/>
        <cc:permits rdf:resource="http://creativecommons.org/ns#Distribution"/>
        <cc:permits rdf:resource="http://creativecommons.org/ns#DerivativeWorks"/>
      </cc:License>
    </rdf:RDF>
  </metadata>
</svg>
