<?xml version="1.0"?>
<svg xmlns:rdf="http://www.w3.org/1999/02/22-rdf-syntax-ns#" xmlns="http://www.w3.org/2000/svg" xmlns:cc="http://creativecommons.org/ns#" xmlns:dc="http://purl.org/dc/elements/1.1/" xmlns:svg="http://www.w3.org/2000/svg" id="Layer_1" style="enable-background:new 0 0 137.152 137.112" space="preserve" viewBox="0 0 137.152 137.112" version="1.1">
  <g id="g3">
    <path id="path5" fill="#5471af" d="m137.15 68.534c0 34.94-27.408 65.096-62.231 68.297-34.833 3.2-67.43-21.29-73.802-55.742-6.3711-34.441 15.125-69.137 48.881-78.603 33.766-9.468 70.253 8.916 82.705 41.693 2.949 7.763 4.449 16.052 4.449 24.356"/>
    <radialGradient id="XMLID_2_" gradientUnits="userSpaceOnUse" cy="68.533" cx="68.591" gradientTransform="matrix(-1.1852 -.0019030 -.0022293 1.3884 150.39 -26.488)" r="63.739">
      <stop id="stop8" stop-color="#fff" offset="0"/>
      <stop id="stop10" stop-color="#27b51b" offset="1"/>
    </radialGradient>
    <path id="path5-1" fill-opacity=".84127" fill="#808080" d="m133.32 68.129c0 32.627-25.66 60.786-58.262 63.775-32.61 3-63.128-19.88-69.094-52.048-5.9641-32.161 14.161-64.559 45.764-73.399 31.612-8.8407 65.772 8.326 77.432 38.933 2.7609 7.249 4.1652 14.989 4.1652 22.743"/>
    <path id="path12" fill="url(#XMLID_2_)" d="m129.25 68.534c0 32.867-27.443 60.31-60.311 60.31s-60.311-27.443-60.311-60.31c0-32.869 27.443-60.312 60.311-60.312 32.868-0.0009462 60.311 27.443 60.311 60.312"/>
    <path id="path14" fill-opacity=".54497" fill="#68a031" d="m125.42 47.535c4.08 28.539-14.11 56.535-42.21 64.985-29.802 8.97-62.532-6.6-73.988-34.98 4.864 34.08 39.713 57.43 73.864 49.49 35.264-8.2 55.724-46.363 42.334-79.495"/>
    <path id="path16" fill="#b2e796" d="m106.23 38.713c-8.341 1.725-17.944-10.091-25.175-13.097-13.511-5.617-30.389-3.009-42.63 4.639-12.948 8.09-22.157 23.629-23.573 38.883-0.0048 0.04353-0.0048 0.05204-0.000946 0.02271 0.95568-9.237 0.31036-17.92 3.8284-26.849 5.8278-14.8 18.431-26.388 33.628-31.045 15.713-4.8125 32.895-1.7505 46.431 7.4231 4.1795 2.8349 20.268 17.378 7.4931 20.023"/>
    <path id="path18" fill="#fff" d="m54.042 39.348v50.322c0 5.1238-2.1035 14.647 5.3906 15.006 6.3066 0.30563 13.436-8.0609 17.881-11.569 7.362-5.806 14.724-11.611 22.088-17.419 7.098-5.595 1.838-9.749-3.412-13.905-7.909-6.262-15.819-12.527-23.729-18.79-2.546-2.017-5.091-4.033-7.638-6.049-2.56-2.028-10.581-2.348-10.581 2.404"/>
    <path id="path20" fill="#5471af" d="m64.771 35.97c12.157 9.6259 24.312 19.251 36.468 28.877 7.5177 5.9536-0.90458 11.198-5.5543 14.861-8.2283 6.4901-16.459 12.982-24.687 19.471-2.0183 1.5896-4.0356 3.1802-6.053 4.7727-3.7026 2.921-11.759 1.9483-11.759-3.8445v-60.076c0-5.3566 7.882-6.9954 11.585-4.0621m-1.0617 66.778c12.034-9.493 24.069-18.984 36.101-28.472 6.4-5.053-1.162-9.299-5.187-12.487-7.936-6.284-15.873-12.569-23.811-18.854-2.2397-1.7742-4.4794-3.5493-6.7201-5.3225-2.1498-1.7032-9.1954-2.1536-9.1954 1.9095v59.253c0.000946 4.4104 5.0169 6.9822 8.8131 3.9704"/>
  </g>
  <metadata>
    <rdf:RDF>
      <cc:Work>
        <dc:format>image/svg+xml</dc:format>
        <dc:type rdf:resource="http://purl.org/dc/dcmitype/StillImage"/>
        <cc:license rdf:resource="http://creativecommons.org/licenses/publicdomain/"/>
        <dc:publisher>
          <cc:Agent rdf:about="http://openclipart.org/">
            <dc:title>Openclipart</dc:title>
          </cc:Agent>
        </dc:publisher>
        <dc:title>Play Button Green with Blue Border</dc:title>
        <dc:date>2011-10-19T15:27:31</dc:date>
        <dc:description>A play button, round, mainly green, blue border, can indicate on or go.</dc:description>
        <dc:source>http://openclipart.org/detail/164119/play-button-green-with-blue-border-by-gr8dan</dc:source>
        <dc:creator>
          <cc:Agent>
            <dc:title>GR8DAN</dc:title>
          </cc:Agent>
        </dc:creator>
        <dc:subject>
          <rdf:Bag>
            <rdf:li>arrow</rdf:li>
            <rdf:li>blue</rdf:li>
            <rdf:li>border</rdf:li>
            <rdf:li>button</rdf:li>
            <rdf:li>circle</rdf:li>
            <rdf:li>circular</rdf:li>
            <rdf:li>clip art</rdf:li>
            <rdf:li>clipart</rdf:li>
            <rdf:li>down</rdf:li>
            <rdf:li>green</rdf:li>
            <rdf:li>on</rdf:li>
            <rdf:li>play</rdf:li>
            <rdf:li>pressed</rdf:li>
            <rdf:li>right</rdf:li>
            <rdf:li>round</rdf:li>
            <rdf:li>triangle</rdf:li>
          </rdf:Bag>
        </dc:subject>
      </cc:Work>
      <cc:License rdf:about="http://creativecommons.org/licenses/publicdomain/">
        <cc:permits rdf:resource="http://creativecommons.org/ns#Reproduction"/>
        <cc:permits rdf:resource="http://creativecommons.org/ns#Distribution"/>
        <cc:permits rdf:resource="http://creativecommons.org/ns#DerivativeWorks"/>
      </cc:License>
    </rdf:RDF>
  </metadata>
</svg>
