<?xml version="1.0"?>
<svg xmlns:rdf="http://www.w3.org/1999/02/22-rdf-syntax-ns#" xmlns="http://www.w3.org/2000/svg" xmlns:dc="http://purl.org/dc/elements/1.1/" xmlns:cc="http://web.resource.org/cc/" xmlns:xlink="http://www.w3.org/1999/xlink" xmlns:sodipodi="http://inkscape.sourceforge.net/DTD/sodipodi-0.dtd" xmlns:svg="http://www.w3.org/2000/svg" id="svg2" height="20.7cm" sodipodi:version="0.32" width="18cm" sodipodi:docname="traffic light-red.svg" sodipodi:docbase="/home/dan">
  <defs id="defs4">
    <linearGradient id="linearGradient20572">
      <stop id="stop20574" stop-color="#929292" offset="0"/>
      <stop id="stop20576" stop-color="#242424" offset=".61538"/>
      <stop id="stop20578" offset="1"/>
    </linearGradient>
    <radialGradient id="radialGradient20697" gradientUnits="userSpaceOnUse" cy="91.649" cx="491.48" gradientTransform="matrix(1.3278 .42280 -.25222 .49639 -132.05 -119.56)" r="100.01">
      <stop id="stop20623" stop-color="#c6c6c6" offset="0"/>
      <stop id="stop20631" stop-color="#393939" offset=".57692"/>
      <stop id="stop20625" offset="1"/>
    </radialGradient>
    <linearGradient id="linearGradient20713" y2="794.68" xlink:href="#linearGradient20572" gradientUnits="userSpaceOnUse" y1="636.47" gradientTransform="translate(28)" x2="605" x1="623.99"/>
    <linearGradient id="linearGradient20725" y2="794.68" xlink:href="#linearGradient20572" gradientUnits="userSpaceOnUse" y1="636.47" gradientTransform="translate(28)" x2="605" x1="573.99"/>
    <linearGradient id="linearGradient20729" y2="794.68" xlink:href="#linearGradient20572" gradientUnits="userSpaceOnUse" y1="636.47" gradientTransform="translate(28)" x2="605" x1="579.7"/>
    <linearGradient id="linearGradient20733" y2="794.68" xlink:href="#linearGradient20572" gradientUnits="userSpaceOnUse" y1="636.47" gradientTransform="translate(28)" x2="605" x1="575.42"/>
    <linearGradient id="linearGradient21523" y2="505.93" gradientUnits="userSpaceOnUse" y1="505.93" gradientTransform="matrix(1.0015 0 0 1.0045 -97.597 -114.43)" x2="535.71" x1="300">
      <stop id="stop16204" offset="0"/>
      <stop id="stop16210" stop-color="#2a2a2a" offset=".11779"/>
      <stop id="stop16214" stop-color="#2a2a2a" offset=".68058"/>
      <stop id="stop16212" stop-color="#292929" offset=".88943"/>
      <stop id="stop16206" stop-color="#b1b1b1" offset="1"/>
    </linearGradient>
    <radialGradient id="radialGradient21548" gradientUnits="userSpaceOnUse" cy="326.99" cx="423.84" gradientTransform="matrix(1.3674 -.0065388 .0062105 1.2987 -157.74 -94.913)" r="54.286">
      <stop id="stop4247" stop-color="#ffb1b1" offset="0"/>
      <stop id="stop4257" stop-color="#d60000" offset=".44168"/>
      <stop id="stop4259" stop-color="#d60000" offset=".82027"/>
      <stop id="stop4249" stop-color="#a10000" offset="1"/>
    </radialGradient>
    <linearGradient id="linearGradient21550" y2="400.75" gradientUnits="userSpaceOnUse" y1="289.84" x2="408.57" x1="408.57">
      <stop id="stop3500" stop-color="#373737" offset="0"/>
      <stop id="stop3511" stop-color="#363636" offset=".25962"/>
      <stop id="stop3508" offset=".51923"/>
      <stop id="stop3502" stop-color="#323232" offset="1"/>
    </linearGradient>
    <radialGradient id="radialGradient21572" gradientUnits="userSpaceOnUse" cy="326.99" cx="423.84" gradientTransform="matrix(1.3674 -.0065388 .0062105 1.2987 -157.74 -94.913)" r="54.286">
      <stop id="stop5013" stop-color="#fff2b1" offset="0"/>
      <stop id="stop5015" stop-color="#d6b000" offset=".44168"/>
      <stop id="stop5017" stop-color="#d6b000" offset=".82027"/>
      <stop id="stop5019" stop-color="#a18500" offset="1"/>
    </radialGradient>
    <radialGradient id="radialGradient21591" gradientUnits="userSpaceOnUse" cy="326.99" cx="423.84" gradientTransform="matrix(1.3674 -.0065388 .0062105 1.2987 -157.74 -94.913)" r="54.286">
      <stop id="stop5749" stop-color="#89ffa2" offset="0"/>
      <stop id="stop5751" stop-color="#00ae24" offset=".42591"/>
      <stop id="stop5753" stop-color="#00ae24" offset=".82027"/>
      <stop id="stop5755" stop-color="#007818" offset="1"/>
    </radialGradient>
  </defs>
  <sodipodi:namedview id="base" bordercolor="#666666" borderopacity="1.0" showborder="false" pagecolor="#ffffff"/>
  <g id="layer1">
    <path id="path20611" sodipodi:rx="100.00510" sodipodi:ry="49.497475" style="color:#000000" sodipodi:type="arc" d="m535.38 160.4a100.01 49.497 0 1 1 -200.01 0 100.01 49.497 0 1 1 200.01 0z" transform="matrix(.91993 0 0 1.1621 -78.712 -103.73)" sodipodi:cy="160.39749" sodipodi:cx="435.37573" fill="url(#radialGradient20697)"/>
    <rect id="rect15472" style="color:#000000" height="635.56" width="236.07" y="76.01" x="202.86" fill="url(#linearGradient21523)"/>
    <g id="g11616" transform="translate(-97.143 -117.14)">
      <rect id="rect7217" style="color:#000000" ry="0" height="202.14" width="202.14" y="205.22" x="317.86" fill="#242424"/>
      <path id="path7221" d="m520.25 204.98h-202.11l8.17 8.17h185.78l8.16-8.17z" sodipodi:nodetypes="ccccc" fill="#4c4c4c" fill-rule="evenodd"/>
      <path id="path8682" d="m520.25 407.6h-202.61l8.17-8.17h186.28l8.16 8.17z" sodipodi:nodetypes="ccccc" fill-rule="evenodd"/>
      <path id="path8694" d="m317.64 204.48v203.12l8.17-8.17v-186.79l-8.17-8.16z" sodipodi:nodetypes="ccccc" fill-rule="evenodd"/>
      <path id="path8696" d="m520.25 204.98v202.62l-8.16-8.17v-186.28l8.16-8.17z" sodipodi:nodetypes="ccccc" fill="#4c4c4c" fill-rule="evenodd"/>
    </g>
    <path id="path3517" sodipodi:rx="54.285713" sodipodi:ry="54.285713" style="color:#000000" sodipodi:type="arc" d="m462.86 343.79a54.286 54.286 0 1 1 -108.57 0 54.286 54.286 0 1 1 108.57 0z" transform="matrix(1.4033 0 0 1.4033 -251.58 -293.56)" sodipodi:cy="343.79074" sodipodi:cx="408.57144" fill="url(#radialGradient21548)"/>
    <g id="g11627" transform="translate(-97.143 87.857)">
      <rect id="rect11629" style="color:#000000" ry="0" height="202.14" width="202.14" y="205.22" x="317.86" fill="#242424"/>
      <path id="path11631" d="m520.25 204.98h-202.11l8.17 8.17h185.78l8.16-8.17z" sodipodi:nodetypes="ccccc" fill="#4c4c4c" fill-rule="evenodd"/>
      <path id="path11633" d="m520.25 407.6h-202.61l8.17-8.17h186.28l8.16 8.17z" sodipodi:nodetypes="ccccc" fill-rule="evenodd"/>
      <path id="path11635" d="m317.64 204.48v203.12l8.17-8.17v-186.79l-8.17-8.16z" sodipodi:nodetypes="ccccc" fill-rule="evenodd"/>
      <path id="path11637" d="m520.25 204.98v202.62l-8.16-8.17v-186.28l8.16-8.17z" sodipodi:nodetypes="ccccc" fill="#4c4c4c" fill-rule="evenodd"/>
    </g>
    <path id="path4269" sodipodi:rx="54.285713" sodipodi:ry="54.285713" style="color:#000000" sodipodi:type="arc" d="m462.86 343.79a54.286 54.286 0 1 1 -108.57 0 54.286 54.286 0 1 1 108.57 0z" transform="matrix(1.4033 0 0 1.4033 -251.58 -88.56)" sodipodi:cy="343.79074" sodipodi:cx="408.57144" fill="url(#radialGradient21572)"/>
    <g id="g11639" transform="translate(-97.143 292.86)">
      <rect id="rect11641" style="color:#000000" ry="0" height="202.14" width="202.14" y="205.22" x="317.86" fill="#242424"/>
      <path id="path11643" d="m520.25 204.98h-202.11l8.17 8.17h185.78l8.16-8.17z" sodipodi:nodetypes="ccccc" fill="#4c4c4c" fill-rule="evenodd"/>
      <path id="path11645" d="m520.25 407.6h-202.61l8.17-8.17h186.28l8.16 8.17z" sodipodi:nodetypes="ccccc" fill-rule="evenodd"/>
      <path id="path11647" d="m317.64 204.48v203.12l8.17-8.17v-186.79l-8.17-8.16z" sodipodi:nodetypes="ccccc" fill-rule="evenodd"/>
      <path id="path11649" d="m520.25 204.98v202.62l-8.16-8.17v-186.28l8.16-8.17z" sodipodi:nodetypes="ccccc" fill="#4c4c4c" fill-rule="evenodd"/>
    </g>
    <path id="path4277" sodipodi:rx="54.285713" sodipodi:ry="54.285713" style="color:#000000" sodipodi:type="arc" d="m462.86 343.79a54.286 54.286 0 1 1 -108.57 0 54.286 54.286 0 1 1 108.57 0z" transform="matrix(1.4033 0 0 1.4033 -251.56 116.44)" sodipodi:cy="343.79074" sodipodi:cx="408.57144" fill="url(#radialGradient21591)"/>
    <g id="g15403" transform="translate(-83.143 -117.14)">
      <path id="path11710" style="color:#000000" d="m547.29 790.93l1.42-150.71h143.58c-0.55 34.57 7.66 45.99-45.51 89.77-28.07 23.12-42.44 29.56-43.78 60.94h-55.71z" sodipodi:nodetypes="ccsccc" stroke="url(#linearGradient20713)" stroke-linecap="round" stroke-width="7.5" fill="url(#linearGradient20713)"/>
      <rect id="rect15401" style="color:#000000" ry="0" height="202.54" width="15.714" y="615" x="522.29" fill="#242424"/>
      <path id="path14673" d="m537.96 614.98v202.62l8.17-8.17v-186.28l-8.17-8.17z" sodipodi:nodetypes="ccccc" fill="#4c4c4c" fill-rule="evenodd"/>
    </g>
    <g id="g15412" transform="translate(-83.143 -527.14)">
      <path id="path15414" style="color:#000000" d="m547.29 790.93l1.42-150.71h143.58c-0.55 34.57 7.66 45.99-45.51 89.77-28.07 23.12-42.44 29.56-43.78 60.94h-55.71z" sodipodi:nodetypes="ccsccc" stroke="url(#linearGradient20713)" stroke-linecap="round" stroke-width="7.5" fill="url(#linearGradient20713)"/>
      <rect id="rect15416" style="color:#000000" ry="0" height="202.54" width="15.714" y="615" x="522.29" fill="#242424"/>
      <path id="path15418" d="m537.96 614.98v202.62l8.17-8.17v-186.28l-8.17-8.17z" sodipodi:nodetypes="ccccc" fill="#4c4c4c" fill-rule="evenodd"/>
    </g>
    <g id="g15424" transform="translate(-83.143 -322.14)">
      <path id="path15426" style="color:#000000" d="m547.29 790.93l1.42-150.71h143.58c-0.55 34.57 7.66 45.99-45.51 89.77-28.07 23.12-42.44 29.56-43.78 60.94h-55.71z" sodipodi:nodetypes="ccsccc" stroke="url(#linearGradient20713)" stroke-linecap="round" stroke-width="7.5" fill="url(#linearGradient20713)"/>
      <rect id="rect15428" style="color:#000000" ry="0" height="202.54" width="15.714" y="615" x="522.29" fill="#242424"/>
      <path id="path15430" d="m537.96 614.98v202.62l8.17-8.17v-186.28l-8.17-8.17z" sodipodi:nodetypes="ccccc" fill="#4c4c4c" fill-rule="evenodd"/>
    </g>
    <g id="g15436" transform="matrix(-1 0 0 1 725.34 -117.14)">
      <path id="path15438" style="color:#000000" d="m547.29 790.93l1.42-150.71h143.58c-0.55 34.57 7.66 45.99-45.51 89.77-28.07 23.12-42.44 29.56-43.78 60.94h-55.71z" sodipodi:nodetypes="ccsccc" stroke="url(#linearGradient20725)" stroke-linecap="round" stroke-width="7.5" fill="url(#linearGradient20725)"/>
      <rect id="rect15440" style="color:#000000" ry="0" height="202.54" width="15.714" y="615" x="522.29" fill="#242424"/>
      <path id="path15442" d="m537.96 614.98v202.62l8.17-8.17v-186.28l-8.17-8.17z" sodipodi:nodetypes="ccccc" fill-rule="evenodd"/>
    </g>
    <g id="g15444" transform="matrix(-1 0 0 1 725.34 -527.14)">
      <path id="path15446" style="color:#000000" d="m547.29 790.93l1.42-150.71h143.58c-0.55 34.57 7.66 45.99-45.51 89.77-28.07 23.12-42.44 29.56-43.78 60.94h-55.71z" sodipodi:nodetypes="ccsccc" stroke="url(#linearGradient20729)" stroke-linecap="round" stroke-width="7.5" fill="url(#linearGradient20729)"/>
      <rect id="rect15448" style="color:#000000" ry="0" height="202.54" width="15.714" y="615" x="522.29" fill="#242424"/>
      <path id="path15450" d="m537.96 614.98v202.62l8.17-8.17v-186.28l-8.17-8.17z" sodipodi:nodetypes="ccccc" fill-rule="evenodd"/>
    </g>
    <g id="g15452" transform="matrix(-1 0 0 1 725.34 -322.14)">
      <path id="path15454" style="color:#000000" d="m547.29 790.93l1.42-150.71h143.58c-0.55 34.57 7.66 45.99-45.51 89.77-28.07 23.12-42.44 29.56-43.78 60.94h-55.71z" sodipodi:nodetypes="ccsccc" stroke="url(#linearGradient20733)" stroke-linecap="round" stroke-width="7.5" fill="url(#linearGradient20733)"/>
      <rect id="rect15456" style="color:#000000" ry="0" height="202.54" width="15.714" y="615" x="522.29" fill="#242424"/>
      <path id="path15458" d="m537.96 614.98v202.62l8.17-8.17v-186.28l-8.17-8.17z" sodipodi:nodetypes="ccccc" fill-rule="evenodd"/>
    </g>
    <path id="path20601" opacity=".25" style="color:#000000" d="m178.06 263.79l-1.43-150.71s-24.8 22.41-98.069 89.77c28.069 23.11 42.449 29.56 43.779 60.94h55.72z" sodipodi:nodetypes="ccccc" stroke="#000" stroke-linecap="round" stroke-width="7.5"/>
    <path id="path20607" opacity=".25" style="color:#000000" d="m178.06 468.79l-1.43-150.71h-143.57c0.544 34.57-7.663 45.99 45.501 89.77 28.069 23.11 42.449 29.56 43.779 60.94h55.72z" sodipodi:nodetypes="ccsccc" stroke="#000" stroke-linecap="round" stroke-width="7.5"/>
    <path id="path20609" opacity=".25" style="color:#000000" d="m178.06 673.79l-1.43-150.71h-143.57c0.544 34.57-7.663 45.99 45.501 89.77 28.069 23.11 42.449 29.56 43.779 60.94h55.72z" sodipodi:nodetypes="ccsccc" stroke="#000" stroke-linecap="round" stroke-width="7.5"/>
    <path id="path2044" sodipodi:rx="54.285713" sodipodi:ry="54.285713" style="color:#000000" sodipodi:type="arc" d="m462.86 343.79a54.286 54.286 0 1 1 -108.57 0 54.286 54.286 0 1 1 108.57 0z" stroke-linejoin="round" stroke-linecap="round" transform="matrix(1.4033 0 0 1.4033 -251.58 -293.56)" stroke="url(#linearGradient21550)" sodipodi:cy="343.79074" sodipodi:cx="408.57144" stroke-width="5.3444" fill="none"/>
    <path id="path21556" sodipodi:rx="54.285713" sodipodi:ry="54.285713" style="color:#000000" sodipodi:type="arc" d="m462.86 343.79a54.286 54.286 0 1 1 -108.57 0 54.286 54.286 0 1 1 108.57 0z" fill-opacity=".66667" transform="matrix(1.4033 0 0 1.4033 -251.58 -88.56)" sodipodi:cy="343.79074" sodipodi:cx="408.57144"/>
    <path id="path4271" sodipodi:rx="54.285713" sodipodi:ry="54.285713" style="color:#000000" sodipodi:type="arc" d="m462.86 343.79a54.286 54.286 0 1 1 -108.57 0 54.286 54.286 0 1 1 108.57 0z" stroke-linejoin="round" stroke-linecap="round" transform="matrix(1.4033 0 0 1.4033 -251.58 -88.56)" stroke="url(#linearGradient21550)" sodipodi:cy="343.79074" sodipodi:cx="408.57144" stroke-width="5.3444" fill="none"/>
    <path id="path21597" sodipodi:rx="54.285713" sodipodi:ry="54.285713" style="color:#000000" sodipodi:type="arc" d="m462.86 343.79a54.286 54.286 0 1 1 -108.57 0 54.286 54.286 0 1 1 108.57 0z" fill-opacity=".66667" transform="matrix(1.4033 0 0 1.4033 -251.56 116.44)" sodipodi:cy="343.79074" sodipodi:cx="408.57144"/>
    <path id="path4279" sodipodi:rx="54.285713" sodipodi:ry="54.285713" style="color:#000000" sodipodi:type="arc" d="m462.86 343.79a54.286 54.286 0 1 1 -108.57 0 54.286 54.286 0 1 1 108.57 0z" stroke-linejoin="round" stroke-linecap="round" transform="matrix(1.4033 0 0 1.4033 -251.56 116.44)" stroke="url(#linearGradient21550)" sodipodi:cy="343.79074" sodipodi:cx="408.57144" stroke-width="5.3444" fill="none"/>
  </g>
  <metadata>
    <rdf:RDF>
      <cc:Work>
        <dc:format>image/svg+xml</dc:format>
        <dc:type rdf:resource="http://purl.org/dc/dcmitype/StillImage"/>
        <cc:license rdf:resource="http://creativecommons.org/licenses/publicdomain/"/>
        <dc:publisher>
          <cc:Agent rdf:about="http://openclipart.org/">
            <dc:title>Openclipart</dc:title>
          </cc:Agent>
        </dc:publisher>
        <dc:title>traffic light red dan ge 01</dc:title>
        <dc:date>2011-02-16T17:34:37</dc:date>
        <dc:description>originally uploaded by Dan Gerhards for OCAL 0.18</dc:description>
        <dc:source>http://openclipart.org/detail/118825/traffic-light-red-dan-ge-01-by-anonymous</dc:source>
        <dc:creator>
          <cc:Agent>
            <dc:title>Anonymous</dc:title>
          </cc:Agent>
        </dc:creator>
        <dc:subject>
          <rdf:Bag>
            <rdf:li>clip art</rdf:li>
            <rdf:li>clipart</rdf:li>
            <rdf:li>light</rdf:li>
            <rdf:li>red</rdf:li>
            <rdf:li>road</rdf:li>
            <rdf:li>roadsign</rdf:li>
            <rdf:li>signal</rdf:li>
            <rdf:li>stop</rdf:li>
            <rdf:li>traffic</rdf:li>
            <rdf:li>traffic light</rdf:li>
          </rdf:Bag>
        </dc:subject>
      </cc:Work>
      <cc:License rdf:about="http://creativecommons.org/licenses/publicdomain/">
        <cc:permits rdf:resource="http://creativecommons.org/ns#Reproduction"/>
        <cc:permits rdf:resource="http://creativecommons.org/ns#Distribution"/>
        <cc:permits rdf:resource="http://creativecommons.org/ns#DerivativeWorks"/>
      </cc:License>
    </rdf:RDF>
  </metadata>
</svg>
