<?xml version="1.0" encoding="UTF-8" standalone="no"?>
<!-- Created with Inkscape (http://www.inkscape.org/) -->

<svg
   xmlns:dc="http://purl.org/dc/elements/1.1/"
   xmlns:cc="http://creativecommons.org/ns#"
   xmlns:rdf="http://www.w3.org/1999/02/22-rdf-syntax-ns#"
   xmlns:svg="http://www.w3.org/2000/svg"
   xmlns="http://www.w3.org/2000/svg"
   xmlns:sodipodi="http://sodipodi.sourceforge.net/DTD/sodipodi-0.dtd"
   xmlns:inkscape="http://www.inkscape.org/namespaces/inkscape"
   width="48px"
   height="48px"
   id="svg3145"
   version="1.1"
   inkscape:version="0.48.3.1 r9886"
   sodipodi:docname="sample.svg">
  <defs
     id="defs3147" />
  <sodipodi:namedview
     id="base"
     pagecolor="#ffffff"
     bordercolor="#666666"
     borderopacity="1.0"
     inkscape:pageopacity="0.0"
     inkscape:pageshadow="2"
     inkscape:zoom="7"
     inkscape:cx="24"
     inkscape:cy="24"
     inkscape:current-layer="layer1"
     showgrid="true"
     inkscape:grid-bbox="true"
     inkscape:document-units="px"
     inkscape:window-width="947"
     inkscape:window-height="857"
     inkscape:window-x="0"
     inkscape:window-y="52"
     inkscape:window-maximized="0" />
  <metadata
     id="metadata3150">
    <rdf:RDF>
      <cc:Work
         rdf:about="">
        <dc:format>image/svg+xml</dc:format>
        <dc:type
           rdf:resource="http://purl.org/dc/dcmitype/StillImage" />
        <dc:title></dc:title>
      </cc:Work>
    </rdf:RDF>
  </metadata>
  <g
     id="layer1"
     inkscape:label="Layer 1"
     inkscape:groupmode="layer">
    <g
       id="g3194">
      <path
         inkscape:connector-curvature="0"
         d="m 9.86791,1.72092 c 0.80559,0.0994 1.62105,0.1197 2.4319,0.14867 1.6101,-0.003 3.21242,0.12907 4.79683,0.41237 0.88998,0.23935 1.89324,0.4185 2.72264,0.84024 0.11043,0.0562 0.21145,0.12916 0.31717,0.19374 0.52205,0.37251 0.75997,0.93677 0.97028,1.5176 0.22306,0.61312 0.39219,1.24477 0.51545,1.88506 0.27367,1.01137 0.23767,2.06633 0.2929,3.10454 0.0858,1.59929 0.28258,3.18987 0.44071,4.78303 0.14362,1.50907 0.15844,3.02444 0.17865,4.53866 -0.0214,1.68167 -0.0307,3.36347 -0.0524,5.04513 -0.005,1.57809 -0.14138,3.15275 -0.26773,4.72486 -0.0919,1.32134 -0.18047,2.64659 -0.42786,3.94933 -0.11869,0.66237 -0.32173,1.30543 -0.52392,1.94603 -0.11405,0.40772 -0.27655,0.79205 -0.4784,1.16261 -0.27681,0.42198 -0.5548,0.84268 -0.82546,1.2692 -0.19002,0.30647 -0.39702,0.60948 -0.53726,0.94209 -0.12552,0.2512 -0.34467,0.42939 -0.5505,0.6123 -1.47853,2.54719 -6.11641,3.90067 -7.56056,4.74082 -0.40843,0.16586 -0.81133,0.35021 -1.1924,0.57207 -0.40134,0.24867 -0.86647,0.36267 -1.29049,0.56002 -0.15293,0.0856 -0.26232,0.21497 -0.42397,0.2866 -0.0493,0.0219 -0.10387,0.0306 -0.15304,0.0528 -0.38206,0.17281 0.13086,-0.0156 -0.2705,0.12394 -0.0493,0.01 -0.0982,0.0218 -0.14799,0.029 -0.0494,0.007 -0.1008,10e-4 -0.14917,0.014 -0.042,0.0108 -0.0771,0.0402 -0.11796,0.0547 -0.043,0.0154 -0.0905,0.0168 -0.13249,0.0348 -0.2867,0.12313 0.0882,0.03 -0.25995,0.0993 -0.18124,-0.0183 -0.27909,0.10587 -0.42413,0.17394 -0.0514,0.0241 -0.1108,0.0266 -0.16345,0.0478 -0.0525,0.0212 -0.1004,0.0525 -0.1506,0.0788 -0.0548,0.02 -0.10963,0.0399 -0.16444,0.0599 -0.0559,0.0141 -0.11508,0.0186 -0.16767,0.0422 -0.0451,0.0202 -0.0775,0.0621 -0.12032,0.0869 -0.2104,0.12201 -0.0393,-9.2e-4 -0.25859,0.0864 -0.48586,0.19346 0.29972,-0.0615 -0.228,0.1023 0,0 6.46361,-5.08266 6.46361,-5.08266 l 0,0 c 0.3762,-0.18831 -0.17325,0.0781 0.23776,-0.0911 0.18561,-0.0764 0.0143,-0.0463 0.21862,-0.10871 0.0472,-0.0144 0.0982,-0.0138 0.14492,-0.0296 0.0487,-0.0165 0.0929,-0.0443 0.13932,-0.0665 0.5288,-0.23779 -0.24879,0.1061 0.32476,-0.12721 0.053,-0.0216 0.10058,-0.0559 0.15473,-0.0744 0.15317,-0.0524 0.32671,-0.0388 0.46701,-0.13183 0.2471,-0.12129 0.53634,-0.12829 0.7567,-0.30743 0.16028,-0.0979 0.076,-0.0529 0.25355,-0.13385 0.19143,-0.10798 0.3632,-0.23947 0.5896,-0.2749 0.41817,-0.14688 0.79997,-0.37967 1.19274,-0.58164 0.42394,-0.19955 0.8518,-0.40003 1.24532,-0.65544 -2.29352,1.33482 -4.59231,2.66063 -6.88057,4.00446 -0.0376,0.0221 0.0854,-0.0196 0.12527,-0.0372 0.15513,-0.0685 0.29442,-0.15589 0.41131,-0.28105 0.12289,-0.25766 0.28536,-0.47858 0.53478,-0.62672 0.18441,-0.13952 0.0273,-10e-4 0.18625,-0.21644 0.0343,-0.0464 0.0818,-0.0823 0.11414,-0.12999 0.1301,-0.19214 0.22723,-0.41143 0.36335,-0.60082 0.15028,-0.21579 0.28229,-0.44252 0.43357,-0.65748 0.0444,-0.0632 0.0996,-0.11898 0.13853,-0.18566 0.0398,-0.0682 0.0642,-0.14426 0.0962,-0.21639 0.0354,-0.0566 0.0708,-0.1132 0.10623,-0.16979 0.23951,-0.3197 0.4505,-0.65284 0.6085,-1.02111 0.2616,-0.65736 0.5204,-1.31581 0.7767,-1.97506 0.0263,-0.0881 0.30664,-1.02307 0.32188,-1.08661 0.22272,-0.92844 0.24418,-1.89375 0.33837,-2.83965 0.1312,-1.57493 0.31938,-3.14668 0.37814,-4.72653 0.0399,-1.65974 -0.002,-3.31998 -0.0302,-4.97974 -0.007,-1.50081 -0.0335,-3.00281 -0.12559,-4.50105 -0.1111,-1.5883 -0.306,-3.16802 -0.47931,-4.75037 C 14.95755,12.41006 14.78584,11.44256 14.54729,10.49068 14.43814,9.89429 14.24506,9.32754 14.02075,8.76513 13.86789,8.35812 13.7494,7.93398 13.36971,7.67675 12.59442,7.17689 11.70768,6.87604 10.81075,6.67838 10.17742,6.56118 9.99598,6.51479 9.34257,6.44823 8.24484,6.33642 7.14383,6.38713 6.04334,6.41513 c -0.94751,0.0308 -1.89723,0.058 -2.84116,0.14868 0,0 6.66563,-4.84287 6.66563,-4.84287 z"
         id="path3044"
         style="fill:#000000" />
      <path
         inkscape:connector-curvature="0"
         d="m 22.33027,2.05751 c 0.5221,-0.0671 1.04398,-0.12675 1.5659,-0.19611 0.52498,-0.0659 1.05132,-0.11117 1.5804,-0.11818 0.52405,-0.003 1.04749,0.0254 1.57122,0.0384 0.72157,0.0145 1.44336,0.009 2.16495,-0.002 0.32451,0.005 0.63908,0.0859 0.95834,0.13318 0.10441,0.0155 0.2104,0.0209 0.31388,0.0417 0.23868,0.0479 0.47261,0.1174 0.71078,0.16772 0.86254,0.30121 1.75381,0.47497 2.64872,0.64281 0.68594,0.1595 1.36956,0.32959 2.05141,0.50569 0.71985,0.1684 1.30703,0.63135 1.93295,0.99776 0.87725,0.59288 1.81075,1.09993 2.71099,1.65789 0.71074,0.40246 1.27937,0.96684 1.74648,1.62885 0.42402,0.66925 0.81565,1.36015 1.15737,2.07495 0.32839,0.72977 0.69487,1.44201 0.99814,2.18298 0.21056,0.51373 0.31082,1.04857 0.3425,1.59944 0.0283,0.5681 0.017,1.1323 -0.0808,1.69275 -0.18777,0.69668 -0.60447,1.29461 -0.94679,1.92084 -0.32806,0.6508 -0.731,1.25395 -1.19223,1.81663 -0.35038,0.35238 -0.71815,0.70946 -1.15105,0.96174 -7.10962,4.14316 -4.61741,3.15016 -7.579,4.30284 -1.05936,0.35426 -2.17433,0.46622 -3.2814,0.56447 -1.75648,0.13129 -3.51908,0.1287 -5.27933,0.13867 -1.4963,-0.0463 -2.99827,0.0955 -4.49335,-0.003 -0.25885,-0.0171 -0.51626,-0.0514 -0.77439,-0.0771 -0.86957,-0.10286 -1.74511,-0.14829 -2.60535,-0.31348 -0.0535,0.003 -0.11406,-0.0169 -0.16042,0.01 -0.0326,0.0189 -0.0714,0.12607 -0.0395,0.10593 2.32674,-1.4709 4.63343,-2.97332 6.94342,-4.47039 0.01,-0.006 -0.004,-0.0363 0.008,-0.0345 0.0352,0.005 0.0619,0.0356 0.0945,0.0502 0.0436,0.0196 0.0889,0.0348 0.13342,0.0522 0.44775,0.10266 0.86087,0.3178 1.28293,0.49388 0.43226,0.24785 0.91289,0.38692 1.36827,0.57993 0.15763,0.0668 0.30932,0.14686 0.46398,0.22029 0.16889,0.0711 0.33778,0.14226 0.50667,0.21339 0.95386,0.34058 1.88767,0.72556 2.79413,1.17718 0.84719,0.3984 1.69529,0.80125 2.49486,1.28948 1.02801,0.71662 2.00315,1.50987 2.97165,2.30472 0.95814,0.81948 1.72006,1.81616 2.35269,2.89951 0.39858,0.72243 0.65248,1.50968 0.94455,2.27775 0.67665,1.77948 -0.2018,-0.57305 0.48024,1.2616 0.41082,1.05155 0.83012,2.10045 1.17156,3.17683 0.16843,0.54836 0.22726,1.11851 0.26507,1.688 0.0568,0.38288 -10e-4,0.7547 -0.0458,1.1336 -0.0619,0.46355 -0.2734,0.87374 -0.49126,1.27951 -0.20329,0.40581 -0.48686,0.74843 -0.80451,1.06812 -2.50561,1.80091 -5.595,3.31275 -8.05405,4.73098 -0.32363,0.11373 -0.64298,0.24422 -0.98407,0.2988 -0.1192,0.0191 -0.41003,0.0338 -0.52925,0.0411 -0.5664,0.0251 -1.13365,0.0109 -1.70026,3.3e-4 -0.71275,-0.0141 -1.42562,-0.0186 -2.13847,-0.0216 -0.7589,0.01 -1.51003,-0.10372 -2.26323,-0.1775 -0.67771,-0.13841 -1.31302,-0.39797 -1.95007,-0.6588 -0.70986,-0.2328 -1.35523,-0.61015 -2.0323,-0.9158 -0.87298,-0.43127 -1.76704,-0.81486 -2.69717,-1.10463 -0.77197,-0.2633 -1.56079,-0.49328 -2.3747,-0.57387 -0.34285,-0.0151 -0.68638,0.004 -1.02919,0.0155 -0.16453,-0.0632 -0.34645,-0.0555 -0.51506,-0.0952 -0.17432,-0.041 -0.33391,-0.0978 -0.51245,-0.12698 -0.26774,-0.003 -0.49468,-0.13109 -0.71618,-0.26693 0,0 6.83,-4.51868 6.83,-4.51868 l 0,0 c 0.19726,0.0467 0.39877,0.0582 0.59618,0.10466 0.30737,0.0689 0.62725,0.12171 0.94256,0.0915 0.36604,0.0134 0.73405,0.034 1.08144,0.16272 0.72332,0.25473 1.41663,0.58738 2.14748,0.82208 0.98838,0.32983 1.98898,0.64076 2.93749,1.07496 0.64707,0.33355 1.31122,0.62627 2.00307,0.8555 0.59594,0.2151 1.20349,0.42079 1.83732,0.48503 0.72548,0.0886 1.45266,0.16229 2.18516,0.12688 0.72756,-10e-4 1.45519,-10e-4 2.18265,-0.0153 0.55849,-0.0138 1.12142,-0.0191 1.67159,-0.12712 0.47482,-0.1202 0.93083,-0.31207 1.34211,-0.58002 -11.76774,6.79597 -8.34446,4.83224 -5.83823,3.3696 0.37233,-0.18199 0.69906,-0.43546 0.94053,-0.77569 0.22131,-0.31526 0.43526,-0.64528 0.57994,-1.00307 0.0789,-0.2563 0.0266,-0.049 0.0638,-0.33284 0.0291,-0.22183 0.11256,-0.43117 0.0875,-0.66111 0.021,-0.53861 0.0252,-1.07904 -0.0419,-1.61504 -0.15118,-1.10172 -0.46851,-2.17116 -0.89739,-3.19683 -0.45683,-1.1406 -0.89132,-2.29451 -1.48604,-3.37299 -0.34984,-0.63847 -0.7039,-1.27792 -1.18543,-1.82999 -0.14031,-0.16086 -0.29479,-0.30882 -0.44539,-0.46009 -0.14895,-0.1496 -0.3021,-0.29495 -0.45314,-0.44243 -0.17101,-0.14438 -0.3359,-0.29635 -0.51304,-0.43315 -0.80244,-0.61968 -1.69222,-1.12026 -2.55464,-1.64876 -0.81149,-0.43315 -1.62272,-0.86649 -2.4627,-1.2427 -0.88873,-0.41157 -1.77209,-0.83761 -2.69418,-1.17147 -0.83944,-0.30228 -1.6968,-0.552 -2.52856,-0.87655 -0.47251,-0.16259 -0.956,-0.30101 -1.41442,-0.49803 -0.0306,-0.0172 -0.62545,-0.34003 -0.54316,-0.39898 2.23803,-1.6032 4.57131,-3.06908 6.85696,-4.60362 0.1286,0.13382 0.053,0.0787 0.22981,0.16119 0.70844,0.21147 1.4326,0.37713 2.16254,0.4933 1.686,0.1694 3.38343,0.11833 5.07581,0.11543 1.7882,-0.0268 3.58225,-0.0619 5.35654,-0.30689 1.1526,-0.19388 2.31636,-0.42308 3.37362,-0.94226 2.57129,-1.43601 -0.12784,0.0689 -6.1044,3.54301 -0.108,0.0628 0.22198,-0.11492 0.32978,-0.17804 0.30095,-0.17622 0.59839,-0.36821 0.86032,-0.59919 0.0865,-0.0698 0.17888,-0.13308 0.25966,-0.20953 0.42756,-0.40466 0.72782,-0.91427 1.05004,-1.39917 0.16375,-0.31745 0.31084,-0.64511 0.49228,-0.95309 0.1055,-0.17906 0.23087,-0.34605 0.33405,-0.52647 0.0452,-0.0791 0.0821,-0.16262 0.12314,-0.24393 0.0308,-0.0756 0.0693,-0.14842 0.0925,-0.22667 0.118,-0.3986 0.0597,-0.81702 0.065,-1.22489 -0.0144,-0.47756 -0.0293,-0.95935 -0.16003,-1.42239 -0.22519,-0.7393 -0.51732,-1.457 -0.88958,-2.13532 -0.34609,-0.66446 -0.6986,-1.32852 -1.14442,-1.93295 C 34.95863,11.07871 34.47671,10.58427 33.8993,10.18672 33.61317,9.98856 33.36055,9.80736 33.06118,9.62682 32.44093,9.25276 31.77532,8.96518 31.14015,8.61882 30.5446,8.2897 29.94805,7.96451 29.2706,7.8388 28.6159,7.67736 27.97897,7.45362 27.32136,7.30304 26.42569,7.09689 25.53881,6.84749 24.6301,6.70352 23.9972,6.59182 23.35354,6.51145 22.7104,6.50384 c -0.71897,-0.0111 -1.43814,-0.0172 -2.15714,-0.005 -0.55017,0.0119 -1.10019,0.0318 -1.65006,0.0533 -0.4848,0.0265 -0.97053,0.0574 -1.44963,0.14033 -0.54375,0.0938 -1.10215,0.17057 -1.58038,0.4677 0,0 6.45754,-5.10349 6.45754,-5.10349 z"
         id="path3058"
         style="fill:#0000ff" />
    </g>
  </g>
</svg>
