<?xml version="1.0" encoding="UTF-8" standalone="no"?>
<!-- Created with Inkscape (http://www.inkscape.org/) -->

<svg
   xmlns:dc="http://purl.org/dc/elements/1.1/"
   xmlns:cc="http://creativecommons.org/ns#"
   xmlns:rdf="http://www.w3.org/1999/02/22-rdf-syntax-ns#"
   xmlns:svg="http://www.w3.org/2000/svg"
   xmlns="http://www.w3.org/2000/svg"
   xmlns:xlink="http://www.w3.org/1999/xlink"
   xmlns:sodipodi="http://sodipodi.sourceforge.net/DTD/sodipodi-0.dtd"
   xmlns:inkscape="http://www.inkscape.org/namespaces/inkscape"
   width="744.09448819"
   height="1052.3622047"
   id="svg2"
   version="1.1"
   inkscape:version="0.48.3.1 r9886"
   sodipodi:docname="mushroom-logo.svg"
   inkscape:export-filename="/home/bikeshedder/projects/mushroom/docs/_static/logo.png"
   inkscape:export-xdpi="47.834724"
   inkscape:export-ydpi="47.834724">
  <defs
     id="defs4">
    <linearGradient
       inkscape:collect="always"
       id="linearGradient3827">
      <stop
         style="stop-color:#bed4eb;stop-opacity:1;"
         offset="0"
         id="stop3829" />
      <stop
         style="stop-color:#000000;stop-opacity:1"
         offset="1"
         id="stop3831" />
    </linearGradient>
    <linearGradient
       inkscape:collect="always"
       id="linearGradient3898">
      <stop
         style="stop-color:#ffffff;stop-opacity:1;"
         offset="0"
         id="stop3900" />
      <stop
         style="stop-color:#ffffff;stop-opacity:0;"
         offset="1"
         id="stop3902" />
    </linearGradient>
    <linearGradient
       id="linearGradient3888">
      <stop
         style="stop-color:#ffffff;stop-opacity:0;"
         offset="0"
         id="stop3890" />
      <stop
         style="stop-color:#ffffff;stop-opacity:1;"
         offset="1"
         id="stop3892" />
    </linearGradient>
    <linearGradient
       id="linearGradient3108">
      <stop
         style="stop-color:#ffffff;stop-opacity:0;"
         offset="0"
         id="stop3110" />
      <stop
         style="stop-color:#ffffff;stop-opacity:1;"
         offset="1"
         id="stop3112" />
    </linearGradient>
    <linearGradient
       inkscape:collect="always"
       xlink:href="#linearGradient3898"
       id="linearGradient3815"
       gradientUnits="userSpaceOnUse"
       gradientTransform="matrix(0.35057439,0,0,0.35057439,1028.4881,275.82751)"
       x1="-2494.6726"
       y1="201.00562"
       x2="-2135.4626"
       y2="182.62083" />
    <linearGradient
       inkscape:collect="always"
       xlink:href="#linearGradient3888"
       id="linearGradient3818"
       gradientUnits="userSpaceOnUse"
       gradientTransform="matrix(0.35057439,0,0,0.35057439,1028.4881,275.82751)"
       x1="-2330"
       y1="-351.63782"
       x2="-2370"
       y2="-425.63782" />
    <linearGradient
       inkscape:collect="always"
       xlink:href="#linearGradient3827"
       id="linearGradient3833"
       x1="623.66815"
       y1="-284.06964"
       x2="328.09753"
       y2="-284.06964"
       gradientUnits="userSpaceOnUse"
       gradientTransform="matrix(1.8493724,0,0,1.3076923,-527.94544,56.837279)" />
  </defs>
  <sodipodi:namedview
     id="base"
     pagecolor="#ffffff"
     bordercolor="#666666"
     borderopacity="1.0"
     inkscape:pageopacity="0.0"
     inkscape:pageshadow="2"
     inkscape:zoom="0.70710678"
     inkscape:cx="248.75546"
     inkscape:cy="978.84087"
     inkscape:document-units="px"
     inkscape:current-layer="layer1"
     showgrid="false"
     showguides="true"
     inkscape:guide-bbox="true"
     inkscape:window-width="1040"
     inkscape:window-height="1250"
     inkscape:window-x="71"
     inkscape:window-y="545"
     inkscape:window-maximized="0" />
  <metadata
     id="metadata7">
    <rdf:RDF>
      <cc:Work
         rdf:about="">
        <dc:format>image/svg+xml</dc:format>
        <dc:type
           rdf:resource="http://purl.org/dc/dcmitype/StillImage" />
        <dc:title></dc:title>
      </cc:Work>
    </rdf:RDF>
  </metadata>
  <g
     inkscape:label="Layer 1"
     inkscape:groupmode="layer"
     id="layer1">
    <path
       style="fill:#30363c;fill-opacity:1;stroke:none"
       d="m 189.69894,240.78032 21.98713,12.8084 141.0579,2.55671 33.62721,-3.44559 7.71264,-17.87929 -43.82182,-26.29308 -160.91365,-19.28158 -45.57466,16.12641 4.55746,18.93102 7.36206,12.62068 22.08619,-1.05173 z"
       id="path3102"
       inkscape:connector-curvature="0"
       sodipodi:nodetypes="cccccccccccc"
       inkscape:export-filename="/home/bikeshedder/projects/mushroom/docs/_static/logo.png"
       inkscape:export-xdpi="47.834724"
       inkscape:export-ydpi="47.834724" />
    <path
       style="fill:#8c9dae;fill-opacity:1;stroke:none"
       d="m 231.16686,194.20398 c 1.29731,11.85278 2.24753,23.70553 -3.0049,35.55827 -4.39245,10.58848 -9.29828,26.82421 -15.02461,52.08533 -0.37837,19.10106 -4.4917,35.14618 9.01478,65.60752 2.49437,15.63997 9.05362,29.925 23.53855,41.56809 9.39843,3.48819 16.79482,0.97023 23.53858,-3.50574 l 39.5648,-21.03445 c 21.21031,-7.67037 31.29936,-44.49153 26.04267,-64.60586 l -26.54349,-93.65343 z"
       id="path3100"
       inkscape:connector-curvature="0"
       sodipodi:nodetypes="cccccccccc"
       inkscape:export-filename="/home/bikeshedder/projects/mushroom/docs/_static/logo.png"
       inkscape:export-xdpi="47.834724"
       inkscape:export-ydpi="47.834724" />
    <path
       style="fill:#626d79;fill-opacity:1;stroke:none"
       d="m 134.00769,217.74257 c -9.33746,-16.52303 -7.12898,-28.55156 -2.00326,-39.81523 11.69952,-19.01915 27.14948,-38.13881 58.596,-55.84149 39.00435,-21.14173 66.94933,-14.02059 94.15426,-5.00823 16.67878,8.92358 34.64607,20.85371 47.57796,21.03445 20.36669,2.0705 45.24079,25.03039 60.59928,48.57964 8.6133,11.90722 30.98184,51.90555 -1.47742,65.73269 -6.03223,2.56961 -11.44693,4.8002 -17.92935,5.78447 -10.6509,1.61718 -18.82254,1.33244 -28.672,-1.90313 -1.1212,-0.74746 3.199,-4.47595 9.01474,-3.50574 8.8261,1.47241 19.10872,0.9725 26.54351,-4.00657 3.23525,-2.16659 7.83906,-3.8933 6.53573,-7.56238 -2.88291,-8.11586 -20.1457,-12.81566 -30.57512,-16.47699 -10.28925,4.79098 -14.31423,-0.30914 -18.53035,-4.50737 -11.25504,-1.51736 -22.11114,-1.50477 -33.35465,-3.10511 -19.12121,-2.72158 -37.65197,-9.84242 -56.79306,-12.42036 -22.99943,-3.09757 -46.7107,-4.74401 -69.61405,-1.00163 -9.43142,1.54109 -27.04431,9.51561 -27.04431,9.51561 8.43302,5.33556 7.13098,12.75723 6.51065,20.03279 8.68881,-0.74446 18.3802,-7.75176 25.29145,-3.75614 2.56687,6.71395 17.74603,14.68909 28.89736,22.26146 2.93666,1.99417 -0.22627,3.71185 -5.68432,0.81386 -11.37351,-6.03881 -24.58928,-9.59729 -32.47823,-13.30931 l -17.77914,0.5008 c -13.83797,0.3898 -21.73281,-9.20199 -21.78568,-22.03609 z"
       id="path3098"
       inkscape:connector-curvature="0"
       sodipodi:nodetypes="ccccccsscsssccssscccsscsc"
       inkscape:export-filename="/home/bikeshedder/projects/mushroom/docs/_static/logo.png"
       inkscape:export-xdpi="47.834724"
       inkscape:export-ydpi="47.834724" />
    <path
       style="fill:url(#linearGradient3818);fill-opacity:1;stroke:none"
       d="m 137.67905,188.75497 c 10.5593,-15.70868 26.60835,-38.59235 43.62927,-50.07451 16.89572,-11.39769 39.40256,-23.92225 67.92285,-21.31884 10.29057,0.93936 19.01799,2.45483 28.96098,6.06977 -0.5014,-1.25345 -42.32716,2.06184 -78.41943,20.13647 -24.11079,12.07444 -40.45719,25.71165 -53.98152,37.48972 -2.84939,2.48152 -5.5424,5.03611 -8.11215,7.69739 z"
       id="path3106"
       inkscape:connector-curvature="0"
       sodipodi:nodetypes="csscssc"
       inkscape:export-filename="/home/bikeshedder/projects/mushroom/docs/_static/logo.png"
       inkscape:export-xdpi="47.834724"
       inkscape:export-ydpi="47.834724" />
    <path
       style="fill:url(#linearGradient3815);fill-opacity:1;stroke:none"
       d="m 229.27933,256.06171 c 0,0 -4.22108,9.17559 -5.94945,19.33569 -2.27684,13.3844 -5.27218,23.72743 -3.47048,37.18403 1.29692,9.68643 6.6185,18.40136 9.41993,27.76408 2.44741,8.17955 -0.0951,19.30138 6.44525,24.78938 6.35017,5.32838 17.2829,5.5001 24.78936,1.98313 9.34212,-4.377 14.78968,-15.43232 17.84834,-25.28515 3.87105,-12.46973 1.91512,-26.33492 -0.49579,-39.16717 -1.82504,-9.71406 -4.8255,-19.60994 -10.41152,-27.76408 -9.26117,-13.51885 -38.17564,-18.83991 -38.17564,-18.83991 z"
       id="path3896"
       inkscape:connector-curvature="0"
       sodipodi:nodetypes="cssssssssc"
       inkscape:export-filename="/home/bikeshedder/projects/mushroom/docs/_static/logo.png"
       inkscape:export-xdpi="47.834724"
       inkscape:export-ydpi="47.834724" />
    <path
       style="fill:#5c6671;fill-opacity:1;stroke:none"
       d="m 223.85971,365.289 c 0.3991,2.32518 2.60018,17.09172 8.47394,22.84931 4.57162,4.48122 11.49418,6.55153 17.87929,7.01149 11.25236,0.81056 22.42775,-3.65421 32.954,-7.71264 10.34682,-3.98922 21.14069,-8.40259 29.09767,-16.12641 3.12054,-3.0291 6.04742,-12.70833 6.04742,-12.70833 0,0 -4.03494,-2.17089 -6.74857,-2.01579 -7.7045,0.44031 -12.65867,8.96502 -19.63216,12.27009 -6.91245,3.27616 -14.87208,3.98466 -21.73561,7.36206 -4.15852,2.04634 -6.96248,7.20195 -11.56897,7.71264 -3.23544,0.35871 -6.13648,-2.192 -9.11492,-3.50575 -5.02065,-2.2145 -11.50645,-2.91709 -14.72412,-7.36206 -2.35485,-3.25302 -2.02773,-4.48774 -3.85632,-8.0632 -6.03304,-8.96819 -7.82237,-4.08545 -7.07165,0.28859 z"
       id="path3906"
       inkscape:connector-curvature="0"
       sodipodi:nodetypes="ssssscsssssscs"
       inkscape:export-filename="/home/bikeshedder/projects/mushroom/docs/_static/logo.png"
       inkscape:export-xdpi="47.834724"
       inkscape:export-ydpi="47.834724" />
    <text
       xml:space="preserve"
       style="font-size:61.49175644000000318px;font-style:normal;font-weight:bold;line-height:125%;letter-spacing:0px;word-spacing:0px;fill:#30363c;fill-opacity:1;stroke:none;font-family:Sans;-inkscape-font-specification:Sans Bold"
       x="84.187614"
       y="484.06622"
       id="text4002"
       sodipodi:linespacing="125%"
       inkscape:export-filename="/home/bikeshedder/projects/mushroom/docs/_static/logo.png"
       inkscape:export-xdpi="47.834724"
       inkscape:export-ydpi="47.834724"><tspan
         sodipodi:role="line"
         id="tspan4004"
         x="84.187614"
         y="484.06622">mushroom</tspan></text>
    <text
       xml:space="preserve"
       style="font-size:28.60549355px;font-style:normal;font-weight:normal;line-height:125%;letter-spacing:0px;word-spacing:0px;fill:#30363c;fill-opacity:1;stroke:none;font-family:Sans;-inkscape-font-specification:Sans"
       x="87.097008"
       y="524.06238"
       id="text4210"
       sodipodi:linespacing="125%"
       inkscape:export-filename="/home/bikeshedder/projects/mushroom/docs/_static/logo.png"
       inkscape:export-xdpi="47.834724"
       inkscape:export-ydpi="47.834724"><tspan
         sodipodi:role="line"
         x="87.097008"
         y="524.06238"
         id="tspan3841">real-time web messaging</tspan></text>
  </g>
</svg>
