<?xml version="1.0" encoding="UTF-8" standalone="no"?>
<!-- Created with Inkscape (http://www.inkscape.org/) -->
<svg
   xmlns:dc="http://purl.org/dc/elements/1.1/"
   xmlns:cc="http://creativecommons.org/ns#"
   xmlns:rdf="http://www.w3.org/1999/02/22-rdf-syntax-ns#"
   xmlns:svg="http://www.w3.org/2000/svg"
   xmlns="http://www.w3.org/2000/svg"
   xmlns:sodipodi="http://sodipodi.sourceforge.net/DTD/sodipodi-0.dtd"
   xmlns:inkscape="http://www.inkscape.org/namespaces/inkscape"
   id="svg2"
   sodipodi:version="0.32"
   inkscape:version="0.46"
   width="393"
   height="400"
   version="1.0"
   sodipodi:docname="fighting_cat_col.svg"
   inkscape:output_extension="org.inkscape.output.svg.inkscape"
   style="display:inline"
   inkscape:export-filename="/home/joanna/gfx/vector/nature_animals/fighting_cat_col.png"
   inkscape:export-xdpi="45.114525"
   inkscape:export-ydpi="45.114525">
  <metadata
     id="metadata7">
    <rdf:RDF>
      <cc:Work
         rdf:about="">
        <dc:format>image/svg+xml</dc:format>
        <dc:type
           rdf:resource="http://purl.org/dc/dcmitype/StillImage" />
      </cc:Work>
    </rdf:RDF>
  </metadata>
  <defs
     id="defs5">
    <inkscape:perspective
       sodipodi:type="inkscape:persp3d"
       inkscape:vp_x="0 : 526.18109 : 1"
       inkscape:vp_y="0 : 1000 : 0"
       inkscape:vp_z="744.09448 : 526.18109 : 1"
       inkscape:persp3d-origin="372.04724 : 350.78739 : 1"
       id="perspective9" />
    <inkscape:perspective
       id="perspective2537"
       inkscape:persp3d-origin="372.04724 : 350.78739 : 1"
       inkscape:vp_z="744.09448 : 526.18109 : 1"
       inkscape:vp_y="0 : 1000 : 0"
       inkscape:vp_x="0 : 526.18109 : 1"
       sodipodi:type="inkscape:persp3d" />
  </defs>
  <sodipodi:namedview
     inkscape:window-height="715"
     inkscape:window-width="1232"
     inkscape:pageshadow="2"
     inkscape:pageopacity="0.0"
     guidetolerance="10.0"
     gridtolerance="10.0"
     objecttolerance="10.0"
     borderopacity="1.0"
     bordercolor="#666666"
     pagecolor="#ffffff"
     id="base"
     showgrid="false"
     inkscape:zoom="0.6175"
     inkscape:cx="159.27337"
     inkscape:cy="280.41523"
     inkscape:window-x="0"
     inkscape:window-y="0"
     inkscape:current-layer="layer1" />
  <g
     inkscape:groupmode="layer"
     id="layer1"
     inkscape:label="wyz"
     style="display:inline">
    <path
       style="fill:#ffffff;fill-opacity:1"
       d="M 75.78125,186 C 70.840713,188.17629 73.574929,195.11283 74.46875,199.03125 C 77.170588,203.07469 80.009122,197.47325 79.34375,194.53125 C 79.394543,191.66382 80.294504,185.70141 75.78125,186 z"
       id="path2652" />
    <path
       style="fill:#ffffff;fill-opacity:1"
       d="M 112.3125,186 C 107.44026,187.26708 108.89394,194.05406 109.4375,197.71875 C 112.3296,201.03843 115.83653,195.38747 116.75,192.5625 C 117.4393,189.22932 118.17758,184.68847 113.1875,185.96875 C 112.89607,185.98301 112.6018,185.94287 112.3125,186 z"
       id="path2654" />
    <path
       style="fill:#ffffff;fill-opacity:1"
       d="M 137.90625,98.5625 C 132.31728,99.954265 130.10994,106.78387 125.82172,110.2348 C 122.71014,113.88648 113.82452,119.47668 120,124.65625 C 126.18581,131.37506 137.20934,131.55777 145.15625,128 C 152.0669,123.83448 151.06195,113.95737 149.53125,107.1875 C 148.29334,102.13465 143.00236,98.487293 137.90625,98.5625 z M 130,117.9375 C 130.9967,119.50377 129.56883,120.52206 129.4375,118.53125 C 129.5218,118.3483 129.84817,117.47982 130,117.9375 z"
       id="path2656" />
    <path
       style="fill:#ffffbf;fill-opacity:1"
       d="M 247.03125,98.1875 C 242.40213,98.287276 240.85322,107.57524 245.84375,107.9375 C 249.03963,106.72286 256.02146,106.06423 255.125,101.34375 C 253.31604,99.008795 249.87451,98.119054 247.03125,98.1875 z"
       id="path2628" />
    <path
       style="fill:#ffffbf;fill-opacity:1"
       d="M 263.53125,84.8125 C 255.14234,86.275981 251.16361,96.845477 255.9375,103.78125 C 257.6685,108.60276 264.45799,109.87744 267.3125,105.46875 C 272.39811,100.01078 274.20784,84.843624 263.53125,84.8125 z"
       id="path2630" />
    <path
       style="fill:#ffffbf;fill-opacity:1"
       d="M 279.5625,87.625 C 275.56234,89.38383 270.9785,92.820382 270.0625,97.1875 C 272.04257,101.36531 277.94384,98.226306 281.40625,98.1875 C 284.84555,96.238905 284.45411,88.983842 280.65625,87.59375 C 280.29202,87.607842 279.92414,87.564716 279.5625,87.625 z"
       id="path2632" />
    <path
       style="fill:#ffffbf;fill-opacity:1"
       d="M 285.53125,96.71875 C 283.11455,99.964383 277.49244,98.335899 273.9375,99.625 C 269.03386,99.200957 264.70514,107.48751 269.71875,109.9375 C 274.83376,110.2999 280.76277,112.68199 285.59375,110.375 C 290.48527,105.02855 288.69363,96.786819 289.5625,90.21875 C 288.21875,92.385417 286.875,94.552083 285.53125,96.71875 z"
       id="path2634" />
    <path
       style="fill:#ffffbf;fill-opacity:1"
       d="M 266.71875,109.8125 C 263.31039,111.25732 264.11336,117.18005 263.57151,120.59232 C 263.86793,124.77575 262.07796,131.17958 264.33575,133.9075 C 270.63008,134.32494 278.00639,136.73309 283.71875,134.1875 C 287.1519,128.13211 287.54937,120.44723 288.53125,113.5625 C 286.68769,109.13421 280.02554,112.11953 276.45094,110.60984 C 273.20412,110.47549 269.95998,109.79266 266.71875,109.8125 z"
       id="path2636" />
    <path
       style="fill:#ffffbf;fill-opacity:1"
       d="M 274.0625,135.09375 C 270.18714,135.76165 264.18263,133.89992 261.57041,136.16502 C 261.47963,141.56553 259.72609,147.90887 262.40625,152.84375 C 267.23733,155.66094 273.40024,153.67754 278.75,154.03125 C 282.30893,149.01567 286.45377,143.3971 287.5,137.34375 C 285.13064,133.16291 278.75878,135.88497 274.78136,135.08771 L 274.0625,135.09375 z"
       id="path2638" />
    <path
       style="fill:#804040;fill-opacity:1"
       d="M 95.875,138.21875 C 88.802701,138.8967 80.702845,138.82367 74.96875,143.5 C 75.730963,148.47131 81.311692,151.25546 85.1875,153.96875 C 88.918311,156.7452 94.197889,157.43068 97.4375,153.59375 C 101.01917,149.53696 107.10429,147.93313 109.875,143.28125 C 109.37284,137.71329 101.44246,138.28312 97.3125,138.15625 L 96.313444,138.19969 L 95.875,138.21875 z"
       id="path2624" />
    <path
       style="fill:#404040;fill-opacity:1"
       d="M 128.3125,60.9375 C 122.46721,63.543077 120.89407,71.174205 116.75,75.71875 C 102.06093,94.629975 83.519757,110.89605 62.09375,122.125 C 56.671088,124.77392 61.80203,131.06396 63.9375,134.28125 C 69.921192,143.02708 85.041599,141.36269 89.09375,131.5625 C 93.230054,125.7653 89.538514,117.71703 92.125,111.96875 C 107.75952,98.347649 122.71305,83.02549 131.28125,63.875 C 131.77885,62.10554 129.98948,60.637414 128.3125,60.9375 z"
       id="path2620" />
    <path
       style="fill:#ffbfbf;fill-opacity:1"
       d="M 204.90625,24.59375 C 192.79496,28.270459 185.55689,40.08146 178.49049,49.778678 C 176.50491,53.609072 173.31359,57.534514 173.53125,62.09375 C 177.61662,63.045646 169.81586,67.799997 174.28125,69.9375 C 176.33172,71.134975 179.35557,66.890906 177.03125,70.375 C 174.39402,74.135343 180.6931,73.259208 178.09375,75.59375 C 175.21648,78.876397 180.75762,79.706603 177.125,81.90625 C 175.06796,83.887973 169.99085,89.704332 175.46875,90.375 C 178.79415,88.876979 174.47318,92.575086 176.84375,93.78125 C 180.25292,94.22549 178.431,94.880703 177.125,97.03125 C 176.30314,99.427764 179.82706,100.55367 177.09375,102.78125 C 173.75349,111.19164 173.22296,121.14284 174.90625,129.875 C 177.92413,133.52334 182.83963,128.72596 186.1875,127.6875 C 200.84147,120.38191 212.70399,104.7075 210.0625,87.65625 C 207.92838,68.997578 203.26949,48.729531 212.375,31.125 C 214.39962,26.996145 208.24088,24.052312 204.90625,24.59375 z"
       id="path2612" />
    <path
       style="fill:#ffbfbf;fill-opacity:1"
       d="M 15.75,47.75 C 15.247804,52.533652 20.521413,56.234242 22.21875,60.625 C 32.582695,76.46225 29.653399,97.363443 41.5,112.40625 C 46.147121,119.33736 55.24664,126.02852 63.65625,121.125 C 68.718587,118.09354 76.23594,116.31993 78.40625,110.25 C 78.259537,106.97986 75.923242,103.988 78.53125,100.75 C 81.137527,96.211663 73.587508,98.515786 70.625,98.3125 C 67.745096,99.046915 73.5664,94.88817 70.8125,92.84375 C 69.903315,90.51253 65.60533,91.960903 65.46875,90.875 C 64.378147,88.141216 63.106431,85.424342 63.375,81.8125 C 63.408249,76.440581 60.954053,71.235966 55.78125,69.09375 C 43.165624,61.536493 30.679171,52.75451 17.53125,46.65625 C 16.409983,46.361373 16.033201,46.70794 15.75,47.75 z"
       id="path2614" />
    <path
       style="fill:#bf8040;fill-opacity:1"
       d="M 192.6875,26.40625 C 178.55287,37.108501 166.87906,51.379552 153.25,62.5 C 154.26955,60.095022 154.00346,56.22852 150.4375,57.71875 C 148.41262,58.534325 145.77382,61.130275 144.125,61.25 C 145.77587,58.892435 147.07027,52.683167 142.375,54.34375 C 129.00947,63.740752 123.09429,80.209763 112.12764,91.980128 C 106.19611,99.882046 97.383726,105.19626 91.53125,113.0625 C 89.802939,115.89202 89.120751,123.94745 94.28125,121.65625 C 95.390336,120.34686 99.192841,120.47976 99.15625,121.125 C 95.715338,121.85111 88.712509,122.77795 90.40625,127.90625 C 91.441131,129.95991 96.466162,128.80201 96.34375,129.375 C 93.306155,129.93734 84.743055,131.46219 88.3125,136.03125 C 94.996052,139.19742 104.18831,135.36488 109.96875,140.5625 C 112.99687,144.92924 105.99855,147.17412 103.25,148.90625 C 98.416525,150.515 96.230549,156.91515 91.03125,157.21875 C 83.819916,156.58492 78.777584,150.62254 73.25,146.65625 C 65.347921,151.31538 54.543545,157.72319 56.25,168.53125 C 58.02993,170.20097 57.897644,170.21546 56.375,172.25 C 54.786165,176.20983 60.236385,176.55438 61.9375,173.8125 C 64.068517,172.18693 66.712527,171.3895 64.28125,174.59375 C 62.350428,178.07842 58.224589,182.18012 64.6875,182.9375 C 72.695691,185.13043 82.001226,184.93549 89.625,181.46875 C 93.742825,179.09198 89.647849,174.97832 86.84375,173.625 C 85.356244,173.44772 82.573998,169.89088 85.3125,170.53125 C 94.769883,176.71169 103.72521,185.71036 115.875,185.1875 C 119.95768,185.60404 124.06004,185.49821 128.15625,185.5 C 123.58996,180.47773 118.16224,176.20506 114.8125,170.34375 C 119.35892,174.63722 123.10198,180.95358 129.34375,182.9375 C 133.3893,182.21324 138.72248,180.24757 140.125,176.0625 C 138.96305,171.34605 132.29882,171.27598 128.8125,168.6875 C 133.26742,169.45274 138.14368,174.30187 142.625,171.96875 C 146.14668,167.17591 143.65106,160.34117 143.3125,154.875 C 142.1756,151.21574 142.8566,152.31341 144.84375,153.71875 C 150.32242,155.72087 156.48077,151.5614 160.25,148.4375 C 156.93566,153.18619 150.51207,154.14238 146.34375,157.40625 C 145.04849,162.62997 144.17552,168.51933 145.03125,173.8125 C 148.25609,177.27416 153.06149,172.49223 156.5625,171.46875 C 158.42972,170.70362 161.10496,168.9537 162.28125,168.4375 C 158.5054,172.02174 165.14156,174.6302 165.6875,178.3125 C 167.96286,181.54423 166.27989,189.2183 171.40625,189.125 C 175.64226,184.98234 173.48697,177.75614 174.96875,172.40625 C 176.6813,172.44653 177.74922,179.24644 180.875,179.5 C 185.28682,177.96959 181.96388,171.35526 182.90625,167.75 C 182.80608,164.21478 186.13669,170.18885 187.28125,170.84375 C 190.25513,172.93383 192.21364,179.92042 196.5625,177.75 C 198.68259,172.28726 195.47036,166.01068 193.90625,160.6875 C 189.67816,149.44232 181.13063,140.8887 174.03125,131.59375 C 171.23803,124.88226 174.23296,117.19969 174.875,110.28125 C 177.33566,103.57186 175.75148,96.444555 173.53125,89.90625 C 168.07957,90.549407 174.21076,86.194825 175.03125,83.6875 C 179.19617,77.020641 171.32524,70.220182 172.20369,63.855568 C 176.03069,49.829077 187.03688,39.623449 195.71875,28.6875 C 196.3588,25.717559 194.90174,25.824627 192.6875,26.40625 z M 145.6875,87.5625 C 147.76567,87.679127 149.68616,88.982527 151.59375,89.78125 C 150.64019,89.167912 144.87994,88.073548 145.6875,87.5625 z M 144.28125,88.625 C 141.85726,90.641021 135.94072,97.062699 141.9375,98.4375 C 147.77865,100.30066 151.8479,106.89469 150.9375,113.09375 C 151.21396,119.63823 149.85273,128.70897 141.875,129.71875 C 136.93173,131.13794 131.60096,130.52509 126.625,132.0625 C 130.69019,136.46262 125.9644,134.65981 124.875,136.34375 C 118.73533,132.0903 116.71481,124.15752 111.15625,119.4375 C 107.63164,119.25801 105.21792,116.10134 105.9375,112.5 C 106.28883,112.71649 107.30557,118.01682 110.375,118.0625 C 119.94067,120.30315 125.51712,110.38794 131.09375,104.59375 C 135.87522,99.130821 139.8017,92.752596 145.03125,87.78125 L 144.36689,88.528659 L 144.28125,88.625 z M 158.0625,135.78125 C 161.63798,137.64724 168.56087,136.89208 170.6875,138.25 C 167.22564,138.60311 161.43942,139.35069 161.9375,141.6875 C 160.94452,138.8347 156.7265,138.26878 155.5625,136.28125 C 156.25358,135.21726 156.7983,135.01431 158.0625,135.78125 z"
       id="path2568" />
    <path
       style="fill:#bf8040;fill-opacity:1"
       d="M 87.125,51.15625 C 83.016108,50.871946 83.838365,56.249701 87.3125,56.59375 C 91.020501,58.541328 97.489397,60.059774 99.53125,62.1875 C 94.200407,63.848746 87.370866,61.515941 82.78125,64.90625 C 80.801823,69.6113 88.707279,68.550698 90.03125,69.25 C 83.466708,73.943202 74.808095,77.140783 70.6875,84.3125 C 70.803607,89.089415 76.551044,86.287943 78.75,84.75 C 76.916953,88.516839 72.821937,91.573148 72.8125,95.9375 C 75.601286,98.47286 79.101847,93.941241 81.28125,93.65625 C 79.576712,98.498502 77.035885,104.46993 79.09375,109.5 C 83.768734,111.87105 87.448618,105.46674 91.058712,103.42768 C 103.51528,92.400275 116.8391,81.273761 124.875,66.46875 C 125.88715,61.698304 119.11707,63.041056 116.567,61.046378 C 106.77276,57.878273 97.516767,51.966316 87.125,51.15625 z"
       id="path2570" />
    <path
       style="fill:#bf8040;fill-opacity:1"
       d="M 27.5625,48.09375 C 25.455212,51.991236 31.974363,53.713814 34.34375,55.875 C 42.424364,61.421037 51.871424,64.840042 59.9375,70.1875 C 62.692139,75.516854 63.013285,82.547605 66.21875,87.25 C 70.170889,87.932982 71.317472,82.254836 74.3125,80.5 C 76.407118,77.853555 83.316958,74.346265 79.40625,70.46875 C 65.306769,58.619938 46.704207,54.529073 29.8125,47.59375 C 29.055295,47.547314 27.933112,47.087397 27.5625,48.09375 z"
       id="path2572" />
    <path
       style="fill:#bf8040;fill-opacity:1"
       d="M 157.6875,171 C 155.16347,171.94154 152.46413,173.5916 150.9375,175.8125 C 152.36433,180.92996 159.05166,183.02736 162.125,187.34375 C 163.64971,190.26996 169.32174,192.3022 168.46875,187.375 C 166.81905,181.56801 164.82988,172.11348 157.6875,171 z"
       id="path2580" />
    <path
       style="fill:#bf8040;fill-opacity:1"
       d="M 92.25,180.09375 C 88.12067,184.05092 97.52853,188.33533 93.71875,193.25 C 92.506748,196.05755 86.637387,201.06756 92.40625,201.90625 C 95.06122,201.57462 98.931461,198.44955 100.40625,199.09375 C 99.916622,202.05554 96.330991,205.9226 99.71875,208.21875 C 103.2539,208.09697 104.66663,203.03714 106.46875,202.03125 C 107.23519,205.83592 106.77187,213.47087 112.34375,213.25 C 116.33008,211.49392 114.37569,206.28061 115.65625,203.21875 C 118.28722,205.3587 123.10906,210.48639 126.21875,206.78125 C 127.27993,204.04392 122.88257,199.54736 124.53125,197.96875 C 126.68889,202.48424 134.2202,199.36697 131.8125,194.6875 C 129.55685,191.28406 130.12368,184.27488 124.4375,186.21875 C 119.47191,185.77037 116.01825,189.7244 115.125,194.28125 C 114.22128,195.82067 112.75026,198.9583 110.78125,198.625 C 110.36627,193.22262 110.34248,185.73882 103.69359,184.18944 C 100.04109,182.93388 95.925767,179.6054 92.25,180.09375 z"
       id="path2578" />
    <path
       style="fill:#bf8040;fill-opacity:1"
       d="M 87.65625,182.78125 C 83.139779,183.34193 77.753613,188.49542 79.8125,193.25 C 83.679702,195.40934 91.076736,198.912 93.71875,193.46875 C 95.212361,189.58054 92.057422,182.95383 87.65625,182.78125 z"
       id="path2576" />
    <path
       style="fill:#bf8040;fill-opacity:1"
       d="M 59.0625,183.625 C 55.72966,185.66509 52.915501,190.60461 53.90625,194.59375 C 55.791443,198.65595 58.040041,194.42423 58.625,192.125 C 61.396951,193.93741 64.843499,201.39068 67.9375,196.84375 C 68.177916,194.86852 68.300748,194.54091 69.6875,196.15625 C 74.597971,197.14973 74.828314,187.9174 70.5625,186.6875 C 66.615132,186.04132 63.006803,183.83233 59.0625,183.625 z"
       id="path2582" />
    <path
       style="fill:#bf8040;fill-opacity:1"
       d="M 70.03125,139.875 C 65.109459,140.8668 63.180829,146.68453 58.985197,149.12254 C 51.295484,155.9954 43.762007,164.46499 41.21875,174.6875 C 42.330826,179.02218 46.486784,174.40191 47.96875,174.34375 C 50.525588,177.96534 54.836228,174.42261 54.625,170.9375 C 55.733831,164.55873 56.736754,157.33392 62.9375,153.75 C 66.678887,149.71516 73.361151,147.95392 75.40625,142.65625 C 75.350535,140.04228 72.016753,139.7706 70.03125,139.875 z"
       id="path2574" />
    <path
       style="fill:#bf8040;fill-opacity:1"
       d="M 52.1875,174.3125 C 47.477732,176.00871 46.482712,182.17662 46.125,186.59375 C 49.914945,190.04129 53.116276,183.29549 55.625,180.875 C 57.43913,178.3929 55.523685,173.81192 52.1875,174.3125 z"
       id="path2586" />
    <path
       style="fill:#bf8040;fill-opacity:1"
       d="M 55.5625,180.4375 C 51.867181,181.9266 48.514545,189.01884 53.15625,191.15625 C 56.576662,188.99634 58.556295,184.22168 58.5,180.21875 C 57.556214,180.37273 56.421205,179.94184 55.5625,180.4375 z"
       id="path2590" />
    <path
       style="fill:#bf8040;fill-opacity:1"
       d="M 341.125,4.40625 C 330.89165,4.2894881 319.64732,5.6947986 312.59375,13.875 C 294.84975,29.920434 288.58714,54.004992 281.625,76.03125 C 279.99498,80.902983 283.81097,85.013146 283.28125,89.90625 C 285.99998,94.03075 288.69063,87.945919 288.83361,85.296538 C 293.04871,67.487625 297.55101,48.705273 310.6875,35.09375 C 318.24537,26.965336 329.60484,17.779135 341.5,21.65625 C 353.18272,27.007681 354.44884,40.836594 355.76916,52.056105 C 357.62749,64.26654 356.50452,77.126472 359.8125,89 C 362.64078,94.911381 370.90469,96.862743 375.6875,92 C 383.73345,84.000501 385.10362,71.763819 387.25,61.125 C 389.79735,43.735333 384.67641,24.023241 370.5625,12.875 C 361.74807,8.1149783 351.35425,3.9062396 341.125,4.40625 z"
       id="path2550" />
    <path
       style="fill:#bf8040;fill-opacity:1"
       d="M 230.625,336.03125 C 231.67035,344.2752 230.43205,354.21298 224.125,359.96875 C 218.1108,361.94749 209.6651,360.07279 205.40625,365.59375 C 204.76065,370.64567 211.68202,372.20405 215.28125,373.53125 C 221.5725,376.18064 225.28442,368.31991 230.53125,366.125 C 235.74419,363.32332 243.80248,361.38223 243.5625,354 C 243.88425,347.26289 242.64638,340.57298 242.125,333.875 C 239.44609,334.99744 229.14426,331.43817 230.625,336.03125 z"
       id="path2552" />
    <path
       style="fill:#bf8040;fill-opacity:1"
       d="M 123.34375,367.125 C 119.91425,369.01589 115.49698,372.44544 115.46875,376.6875 C 117.00117,380.8159 118.68495,382.01983 124.83818,384.7271 C 124.95598,378.42817 125.55523,374.72706 126.03125,368.6875 C 125.78677,367.55384 124.43523,366.82335 123.34375,367.125 z"
       id="path2556"
       sodipodi:nodetypes="ccccc" />
    <path
       style="fill:#bf8040;fill-opacity:1"
       d="M 165.25,329.90625 C 159.04039,331.82771 161.29767,340.29643 159.93847,345.11728 C 159.3656,353.1831 157.04334,363.7092 147.625,365.46875 C 140.72111,368.1367 129.96004,366.19461 126.09375,373.90625 C 123.20521,379.00814 127.89532,384.27625 133,384.96875 C 137.39606,385.41804 142.89282,388.43714 146.875,386.28125 C 148.69501,381.38478 145.8813,373.47458 152.5,371.40625 C 159.38988,368.60061 168.34094,366.30116 170.34375,358.03125 C 172.32432,349.53475 169.87992,340.49487 168.75,332 C 168.31885,330.51438 166.75255,329.67483 165.25,329.90625 z"
       id="path2554" />
    <path
       style="fill:#bf8040;fill-opacity:1"
       d="M 272.34375,155.65625 C 267.96249,155.46773 261.86445,155.58839 260.84375,161 C 256.4217,176.00315 252.03649,191.27694 247.46875,206.15625 C 246.0225,208.44439 251.44159,211.25812 247.59375,211 C 242.97931,212.33266 241.743,218.85611 236.1875,218.71875 C 231.35689,218.5646 226.99684,220.45611 222.46875,221.625 C 220.07271,217.36615 214.44435,222.33163 211.15625,223.1875 C 208.5395,223.8962 205.00462,226.96864 202.90625,226.1875 C 202.74595,223.88384 211.85455,214.2725 199.5625,221.0625 C 195.25267,223.45759 190.82275,226.84455 186.03125,227.78125 C 186.3525,224.61637 193.62058,216.26901 180.5,224.09375 C 171.96014,229.39593 161.22344,235.57239 151.0625,230.875 C 146.95572,232.27979 145.69754,226.57783 144.375,223.75 C 140.8517,215.34859 144.18702,203.62505 135.90625,197.65625 C 130.8521,196.49906 132.52506,203.89046 132.0785,206.87446 C 132.20424,226.65098 131.77833,246.59243 126.96875,265.78125 C 126.11102,275.13443 123.1369,287.02385 124.94168,296.33679 C 128.83034,299.80741 131.67554,290.10267 133.5,288.34375 C 134.48667,292.29066 136.93444,313.23248 137.99861,303.67637 C 140.12189,309.47784 140.31268,312.96911 143.875,318.21875 C 145.71701,324.14547 149.47379,320.25127 148,313.59375 C 150.33873,316.85115 151.30784,324.38519 156.71875,323.9375 C 158.58436,323.35876 158.33714,319.8484 159.25,323.46875 C 159.87894,327.26718 165.34549,328.7114 166.78125,324.65625 C 168.18356,321.38525 168.1719,317.7338 168.21875,314.21875 C 168.98449,329.67243 172.32758,345.22951 170.8125,360.6875 C 168.71965,367.63597 159.73005,368.22874 154.59375,372.09375 C 150.02038,373.53166 146.50669,378.50893 149.3125,383 C 152.10574,387.05167 158.53763,385.909 162.28125,384.125 C 169.43171,382.93602 171.65652,391.86262 176.5625,395.09375 C 178.59082,398.17928 182.22256,398.46478 184.19106,395.21468 C 186.80661,393.41204 190.02537,387.28368 193.4375,389.5 C 198.97153,394.64676 206.73164,387.90702 207.46875,381.8125 C 208.41119,374.40802 200.10127,368.96354 193.28125,369.375 C 187.94266,368.73379 181.25245,369.56394 176.78125,369.8125 C 179.16168,366.6379 183.50157,366.36126 186.9375,364.96875 C 185.83737,362.97006 181.50819,360.60638 182.21875,358.4375 C 185.62348,353.60199 183.12837,346.45903 184.04101,340.87502 C 184.09413,333.18737 183.9896,325.489 184.46875,317.8125 C 184.84712,320.7214 183.16272,328.71176 188.25,326.90625 C 189.90459,325.69521 193.18867,322.19019 192.78125,326.34375 C 190.70064,336.59608 198.58748,328.64529 199.90625,325.84375 C 201.48911,324.57598 200.32141,329.17162 201.5625,330.21875 C 202.97292,333.63363 206.98917,331.82561 207.5625,329 C 208.75433,328.32198 208.80472,323.19194 209.84375,326.53125 C 210.16629,332.58172 219.55602,333.99774 218.5625,326.84375 C 219.17962,323.93717 220.99852,329.59429 223.03125,329.21875 C 228.3202,328.29251 224.02164,321.15973 224,317.90625 C 222.70168,305.96934 223.36897,293.56229 224.59375,281.625 C 227.82551,273.37694 226.9846,263.70511 229.625,255.5 C 231.16879,256.61573 228.99607,261.3742 229.10593,263.54701 C 225.44223,283.26267 221.23337,304.03932 226,323.875 C 228.79108,332.12405 242.46238,333.00593 245.4375,324.40625 C 247.60702,323.47073 247.48129,320.05832 249.03125,319.3125 C 245.94261,325.10403 242.53768,330.73179 243.75261,337.62208 C 242.97309,345.25047 244.47123,354.01964 241.8125,361 C 234.9012,366.68988 222.71882,368.12364 220.90625,378.375 C 222.95297,382.63859 229.70803,384.0213 234.09375,382.625 C 236.29757,380.88077 241.22058,379.52187 241.25,383.75 C 242.57344,387.24115 243.62471,393.08628 248.6875,392.09375 C 253.82157,391.97055 252.56342,385.19275 255.8125,382.53125 C 257.05659,381.34111 259.21858,384.70176 261.375,383.96875 C 266.59253,384.50003 275.519,381.0851 273.4375,374.5 C 269.82976,366.82292 261.63714,361.89004 257.69263,354.81251 C 257.44023,348.74232 257.51103,342.52867 260.6875,337.25 C 263.1402,330.07197 266.1322,323.10963 267.34375,315.5 C 271.05583,309.45644 262.90514,304.35484 257.75,303.6875 C 256.7411,297.08956 262.67874,292.9611 265.34375,287.625 C 268.85893,275.59929 266.77539,262.54328 267.28125,250.125 C 268.02093,244.11693 263.24328,239.52113 264.09375,233.59375 C 263.0867,220.11333 260.97597,206.16293 263.25,192.8125 C 265.63645,187.56254 266.37698,181.53124 269.375,176.59375 C 270.84108,169.59133 273.9221,162.76759 274.9375,155.53125 C 274.07292,155.57292 273.20833,155.61458 272.34375,155.65625 z"
       id="path2548"
       sodipodi:nodetypes="cccccccccccccccccccccccccccccccccccccccccccccccccccccccccccccccccccccccccc" />
    <path
       style="fill:#000000"
       d="M 174.33197,397.36943 C 172.31793,395.03193 169.53729,391.88193 168.15276,390.36943 C 165.59948,387.58016 161.98752,386.79304 160.15419,388.62637 C 158.85282,389.92774 129.6436,388.18655 124.76113,386.51656 C 122.83613,385.85814 119.98877,384.8679 118.43367,384.31602 C 113.93662,382.72012 112.42209,379.59223 113.75306,374.64939 C 114.36552,372.37489 115.71915,369.66141 116.76113,368.61943 C 119.3824,365.99816 126.32875,364.31176 131.73576,364.98396 C 137.5937,365.71222 149.15046,363.46084 152.58008,360.92327 C 156.83076,357.77819 157.59972,354.98345 157.85924,341.73663 L 158.10182,329.35383 L 155.18148,327.84127 C 153.57529,327.00936 151.99344,325.91803 151.66627,325.41608 C 151.3391,324.91413 149.96941,324.78003 148.62252,325.11808 C 145.62354,325.87078 143.67115,323.93093 140.72548,317.27174 C 139.09457,313.58481 138.31877,312.74166 137.31996,313.5706 C 135.3407,315.21324 133.98164,312.87511 133.26499,306.59443 C 132.92139,303.58318 132.39931,299.99443 132.10481,298.61943 C 131.59426,296.23573 131.49906,296.29387 130.05829,299.86943 C 128.22557,304.41767 127.29456,304.55165 125.23241,300.56389 C 124.09266,298.35987 123.64782,294.60292 123.63614,287.08262 C 123.62723,281.34847 123.87119,276.25036 124.17827,275.7535 C 124.48535,275.25663 125.19077,271.76071 125.74587,267.98477 C 130.70606,234.24412 130.9471,231.82962 130.50177,220.3448 C 130.25066,213.86875 129.77771,208.30268 129.45078,207.97575 C 129.12386,207.64882 128.08737,208.15033 127.14749,209.09021 C 125.48576,210.75194 122.33047,210.79494 118.64709,209.20604 C 117.43349,208.68253 116.89053,209.20566 116.45857,211.31462 C 116.1426,212.85726 114.91896,214.70914 113.73936,215.42989 C 111.93293,216.53365 111.21343,216.49058 109.17788,215.15684 C 107.84867,214.28591 106.75424,213.0212 106.74582,212.34638 C 106.70686,209.22469 105.19826,208.55465 101.90628,210.1969 C 96.621167,212.83347 94.552267,209.77337 97.257907,203.32151 C 97.939777,201.69554 97.579687,201.73357 93.492627,203.71922 C 88.581517,206.10523 85.216947,205.71683 86.025767,202.85728 C 86.296127,201.90146 86.684677,200.49545 86.889227,199.7328 C 87.291057,198.23462 82.126107,196.27583 80.471027,197.29873 C 79.935647,197.62961 79.751157,200.23389 80.054737,203.17529 C 80.439947,206.90761 80.183427,208.99488 79.180527,210.28853 C 77.810267,212.05605 77.708377,212.05109 76.237137,210.14549 C 75.398947,209.05982 74.442787,206.48082 74.112347,204.41437 C 73.312447,199.41205 71.904757,198.36149 67.984587,199.84119 C 65.284607,200.86032 64.572387,200.75859 62.729247,199.09057 C 60.731037,197.28222 60.536387,197.26964 59.629457,198.89024 C 58.600557,200.72878 54.761127,201.30385 54.761127,199.61943 C 54.761127,199.06943 54.311127,198.61943 53.761127,198.61943 C 52.290947,198.61943 52.565297,206.3014 54.261127,212.61943 C 56.928197,222.5559 56.326937,223.66997 47.526367,225.09822 C 45.434947,225.43764 42.366797,227.0057 40.553507,228.66188 C 38.772557,230.28853 36.996337,231.61943 36.606367,231.61943 C 36.216387,231.61943 34.920897,232.9907 33.727477,234.66669 C 31.856827,237.29378 31.719567,238.10488 32.732047,240.54921 C 33.377967,242.1086 35.230927,244.6534 36.849737,246.20432 C 38.468547,247.75524 40.262637,250.84561 40.836597,253.0718 C 41.410567,255.298 42.138197,258.01943 42.453557,259.11943 C 43.026757,261.1188 43.026227,261.1188 40.791477,259.12163 C 39.561967,258.02284 36.746057,254.07722 34.533887,250.35359 C 32.321717,246.62995 30.117867,243.33991 29.636447,243.04237 C 29.155027,242.74483 28.761127,240.89359 28.761127,238.92849 C 28.761127,236.20178 29.531977,234.61711 32.015907,232.23751 C 33.806027,230.52256 35.821377,227.88193 36.494467,226.36943 C 37.372317,224.3968 38.447177,223.61943 40.296877,223.61943 C 41.715117,223.61943 44.915947,223.10564 47.409827,222.47767 L 51.944167,221.33591 L 51.362047,217.22767 C 49.781917,206.07598 49.538077,197.59312 50.755487,196.12623 C 51.616977,195.08819 51.656827,194.61943 50.883577,194.61943 C 50.266227,194.61943 49.761127,195.10163 49.761127,195.691 C 49.761127,196.28036 48.660617,196.61835 47.315547,196.44208 C 45.610207,196.21861 43.794107,197.16437 41.315547,199.56668 C 39.360617,201.46148 37.742397,203.48599 37.719507,204.0656 C 37.629737,206.33818 30.883737,212.63795 26.551297,214.49505 C 21.541957,216.64231 20.968237,217.27134 18.761127,223.03626 C 17.936127,225.19114 16.698627,227.1414 16.011127,227.37017 C 14.271037,227.94917 14.425367,224.14298 16.201767,222.6687 C 16.994127,222.0111 17.781627,220.2685 17.951767,218.79625 C 18.198077,216.66505 19.371387,215.57855 23.708037,213.46586 C 27.532037,211.60291 31.058677,208.62342 35.544417,203.46586 C 39.058617,199.42532 42.376867,195.302 42.918277,194.30293 C 43.973837,192.35511 45.742537,182.61943 45.040837,182.61943 C 43.538157,182.61943 33.418097,192.70042 32.283677,195.32734 C 30.504077,199.44828 25.844047,201.42774 14.761127,202.77049 C 8.4396068,203.53638 5.6514468,204.35379 3.8822568,205.95987 C 1.0741868,208.50904 -1.2388732,213.53498 -1.2388732,217.08731 C -1.2388732,218.47998 -1.6888732,219.61943 -2.2388732,219.61943 C -2.7888732,219.61943 -3.2388732,217.67158 -3.2388732,215.29087 C -3.2388732,210.03257 1.3911768,202.38362 5.5302568,200.80408 C 7.0322368,200.2309 11.636127,199.57744 15.761127,199.35193 C 23.523437,198.92759 29.761127,196.63848 29.761127,194.21421 C 29.761127,193.46959 31.786127,191.20102 34.261127,189.17294 C 37.876087,186.21076 38.761987,184.8595 38.765487,182.30248 C 38.771557,177.87039 42.936637,166.42955 46.382967,161.37842 C 47.965957,159.05829 52.973627,153.46193 57.511127,148.94205 C 62.048627,144.42217 65.761127,140.53848 65.761127,140.31164 C 65.761127,140.08479 64.249217,138.29609 62.401327,136.33675 C 60.215597,134.01921 58.813667,131.34946 58.389507,128.69687 C 57.794377,124.97512 57.475087,124.61943 54.729447,124.61943 C 50.896987,124.61943 44.707597,120.72687 41.174317,116.0945 C 36.855917,110.43279 34.150107,103.70518 31.266457,91.460039 C 26.594987,71.623099 21.197367,60.631506 10.649447,49.476053 C 1.8952568,40.217636 0.73139676,37.345681 5.2717968,36.206113 C 7.1072568,35.745442 11.074037,37.092796 20.021797,41.216087 C 26.753427,44.318148 32.711127,47.198602 33.261127,47.617095 C 33.811127,48.035589 36.961127,49.131191 40.261127,50.051766 C 47.547357,52.084346 62.860207,58.572184 71.932227,63.470362 C 78.400827,66.962896 78.663707,67.017574 80.592877,65.271698 C 81.687137,64.281408 85.097277,63.129899 88.170967,62.712791 C 94.792197,61.81427 95.868787,61.10988 92.057697,60.169787 C 90.519587,59.790376 86.654157,58.316138 83.467847,56.893702 C 75.567577,53.366852 75.950747,51.230334 84.556977,50.820786 C 92.558057,50.440036 100.95383,52.581431 112.06174,57.836049 L 120.86236,61.999197 L 126.10353,60.217665 C 128.98618,59.237823 132.00091,58.581903 132.80292,58.760065 C 133.60494,58.938227 136.74297,57.243328 139.77634,54.993623 C 148.99256,48.158374 151.9954,48.398154 148.23545,55.669093 C 146.4678,59.08735 147.23637,59.37654 150.76113,56.619433 C 154.1349,53.980432 157.16494,53.967261 156.47788,56.594582 C 156.1938,57.680914 163.70332,51.268414 173.1657,42.344582 C 195.27804,21.490764 209.46841,10.665011 209.83544,14.369433 C 210.09696,17.008959 210.91928,20.046418 211.83613,21.759565 C 212.68597,23.34752 213.18899,23.509227 214.33087,22.561555 C 215.47127,21.61511 215.76113,21.703357 215.76113,22.996988 C 215.76113,23.889333 216.1725,24.619433 216.67529,24.619433 C 217.17807,24.619433 216.31278,27.254951 214.75242,30.47614 C 208.71208,42.945691 207.89439,51.524727 210.30298,77.158666 C 212.02676,95.504398 212.0346,96.910561 210.44139,101.96483 C 206.72841,113.74376 195.49468,126.28656 184.76113,130.63764 C 178.04627,133.35965 178.35064,132.88445 181.29033,136.05644 C 184.765,139.80567 190.9379,148.95165 193.70495,154.45035 C 198.56418,164.10667 201.92784,186.62028 198.51113,186.61894 C 197.27404,186.61845 189.88839,178.66173 186.51283,173.69292 C 184.79738,171.16779 184.77665,171.26506 185.40957,178.86943 C 186.15785,187.85995 185.61497,188.28906 179.95808,183.1784 L 176.14926,179.73736 L 174.97966,185.31347 C 174.33638,188.38033 173.98041,191.1663 174.1886,191.50451 C 174.3968,191.84271 180.64976,191.71541 188.08407,191.22161 C 198.34365,190.54015 203.42764,190.64835 209.18106,191.67063 C 213.3501,192.41139 216.76113,193.34912 216.76113,193.75447 C 216.76113,194.15983 208.77363,194.41058 199.01113,194.3117 C 189.24863,194.21281 178.01757,194.3541 174.05321,194.62567 L 166.84529,195.11943 L 160.55321,188.5451 C 153.37869,181.04874 146.5641,177.33017 144.34048,179.69816 C 142.5074,181.65026 141.53468,194.94995 143.0777,196.96373 C 143.93792,198.0864 147.38174,198.758 155.68722,199.42282 L 167.1133,200.33744 L 170.11334,204.07707 C 173.44843,208.23435 178.82469,211.94479 183.01113,212.9785 C 185.99193,213.71452 186.63742,215.34594 184.30237,216.24198 C 181.58245,217.28571 175.76886,214.47919 170.30314,209.48383 C 167.3086,206.74699 163.48416,204.11359 161.8044,203.63184 C 157.678,202.4484 142.76113,201.19344 142.76113,202.02972 C 142.76113,202.39741 143.2346,206.94438 143.81329,212.13408 C 144.7615,220.63769 145.16716,221.87161 147.91941,224.62386 C 152.09904,228.80349 155.93651,230.61943 160.58935,230.61943 C 165.80634,230.61943 169.92198,228.79023 180.84962,221.61476 C 189.75007,215.77042 193.76113,214.30478 193.76113,216.89692 C 193.76113,217.59955 193.04023,219.20365 192.15913,220.46159 C 189.7886,223.846 191.21561,224.24621 195.51316,221.40223 C 200.42508,218.15167 207.36412,214.61943 208.83787,214.61943 C 210.01749,214.61943 209.74122,217.38088 208.18784,221.11672 C 207.39667,223.01947 207.47342,223.03997 209.80925,221.54982 C 212.23222,220.00408 221.14994,216.35253 225.51113,215.12035 C 227.18175,214.64835 227.76113,214.90282 227.76113,216.10858 C 227.76113,217.57882 228.04144,217.56692 230.72322,215.98275 C 232.9674,214.65708 233.42507,213.91943 232.61155,212.9392 C 230.12701,209.94551 234.3822,204.61943 239.25849,204.61943 C 240.03028,204.61943 241.10036,203.83568 241.63644,202.87776 C 242.17252,201.91984 242.96646,201.49143 243.40076,201.92572 C 244.70865,203.23361 242.2345,206.09835 239.51422,206.42582 C 236.47049,206.79223 232.98879,210.25459 234.33476,211.57651 C 236.18318,213.39191 242.15507,211.1586 244.41346,207.80737 C 247.08116,203.84877 252.24333,187.94677 254.37549,177.11943 C 255.24196,172.71943 256.62326,167.09443 257.44506,164.61943 C 258.31794,161.9906 259.11045,154.92174 259.35099,147.61943 C 259.57746,140.74443 260.44522,130.39443 261.27935,124.61943 C 262.11348,118.84443 262.67562,113.28722 262.52854,112.27006 C 262.29086,110.62632 259.63272,109.20179 252.64029,106.97085 C 251.70014,106.67089 249.54491,107.74839 247.50828,109.53658 C 245.57713,111.23216 243.49401,112.61944 242.87911,112.61944 C 241.39061,112.61944 241.3978,100.51095 242.88825,97.239776 C 243.84059,95.149619 244.64121,94.793416 248.0512,94.942723 C 251.79986,95.106859 252.14747,94.892635 252.93645,91.932042 C 253.4063,90.168962 255.44616,87.3761 257.50134,85.682042 C 262.13258,81.864588 266.48427,81.631377 269.67669,85.029555 C 271.90727,87.403899 271.96931,87.411253 273.85561,85.524949 C 275.78334,83.597222 278.88383,76.225366 287.0667,54.11368 C 298.31931,23.706957 310.78181,7.5763714 326.56675,2.9875632 C 335.27003,0.45745119 352.07599,1.5089192 361.26113,5.158225 C 374.52883,10.429554 380.67043,16.6791 386.38547,30.724168 C 390.0618,39.758986 390.86696,57.521398 388.14799,69.606776 C 385.70421,80.468989 380.30344,91.429704 375.98784,94.28547 C 370.98194,97.598031 365.11518,98.268336 361.89388,95.895773 C 358.24333,93.207067 355.85803,85.658006 355.80306,76.619433 C 355.75234,68.279187 353.28327,44.158186 351.89391,38.429947 C 350.00366,30.636527 344.53379,24.884613 337.41531,23.204788 C 332.99659,22.162057 323.91926,25.292444 317.83221,29.958167 C 306.51914,38.629639 299.09077,52.099484 293.75383,73.619433 C 289.95177,88.950353 289.62255,91.477181 291.12167,93.821459 C 292.42886,95.865584 292.39248,96.751746 290.79241,101.84346 C 289.36761,106.37742 289.25305,107.78279 290.24136,108.60302 C 291.11883,109.33126 291.24722,110.7485 290.674,113.379 C 289.60254,118.29589 287.94422,126.43729 287.32645,129.81353 C 286.95027,131.86938 287.29873,132.65528 288.79731,133.13091 C 290.8301,133.77609 291.4188,136.50781 289.88315,138.16943 C 289.40025,138.69193 287.54151,141.81943 285.75261,145.11943 C 283.96371,148.41943 281.05948,153.15264 279.29876,155.63768 C 277.21797,158.57445 274.31099,165.74984 270.99357,176.13768 C 265.23519,194.16882 263.76113,200.57583 263.76113,207.57353 C 263.76113,214.33643 266.66362,238.56872 267.70724,240.51873 C 268.18007,241.40223 269.11131,247.40516 269.77666,253.85857 C 271.56618,271.21568 270.10091,282.54224 264.7024,293.08265 C 260.89742,300.51174 260.74188,301.13219 262.38362,302.33265 C 263.35149,303.04038 264.65394,303.61943 265.27795,303.61943 C 265.90195,303.61943 267.4458,304.71933 268.70872,306.06365 C 271.73759,309.28772 271.15215,313.16895 264.68164,332.76189 C 258.15944,352.51132 258.19417,353.56442 265.59907,360.58471 C 271.27907,365.96968 276.76113,374.72176 276.76113,378.40486 C 276.76113,380.37909 271.6904,385.64448 267.92394,387.58128 C 266.43426,388.34731 263.82331,388.54059 260.72371,388.11428 C 255.88758,387.44915 255.85256,387.46485 254.39556,390.95195 C 250.95488,399.18664 240.76113,398.17356 240.76113,389.59692 C 240.76113,385.49854 239.15917,384.62396 234.7934,386.33889 C 231.3965,387.67323 230.41457,387.6606 225.45483,386.21876 C 220.56142,384.79621 219.77779,384.19993 218.76376,381.1274 C 217.41481,377.04005 217.38217,377.01417 212.3982,376.07917 C 208.62905,375.37207 208.57539,375.40385 209.76992,377.63585 C 211.37078,380.62708 209.85118,385.81458 205.6923,391.55575 C 202.84284,395.48931 202.32635,395.77781 198.93409,395.33064 C 196.91396,395.06435 194.35128,394.54474 193.23924,394.17597 C 191.72853,393.67499 190.10631,394.53118 186.82285,397.56245 C 181.19266,402.76021 178.94687,402.72551 174.33197,397.36943 z M 185.63699,393.02217 C 189.33749,389.0898 190.3463,388.52509 192.61216,389.11767 C 194.06909,389.49869 196.81223,389.87996 198.70803,389.96493 C 201.59141,390.09417 202.53145,389.56393 204.45803,386.72155 C 207.33771,382.473 207.34867,380.48768 204.51627,376.16681 C 202.91374,373.72212 201.04069,372.39766 197.97021,371.53798 C 192.41806,369.98347 184.16664,370.00046 179.392,371.57624 C 177.32132,372.25962 175.36815,372.55979 175.05163,372.24326 C 174.05842,371.25005 177.10687,368.37163 181.00099,366.62574 L 184.74086,364.94901 L 182.25099,362.60991 C 179.24878,359.78947 179.03657,358.19669 181.75784,358.90832 C 183.59806,359.38955 183.69603,359.10478 183.00784,355.27495 C 181.99121,349.61728 182.34679,317.82803 183.46746,314.18459 C 183.96395,312.57043 184.91379,311.06854 185.57821,310.84707 C 186.49404,310.54179 186.62437,312.55042 186.11701,319.15094 C 185.45398,327.77676 185.46726,327.84707 187.54876,326.73309 C 188.7043,326.11466 189.92636,325.16109 190.26445,324.61405 C 190.60254,324.06701 191.75261,323.61943 192.82015,323.61943 C 194.39442,323.61943 194.76323,324.32791 194.77222,327.36943 L 194.78331,331.11943 L 197.3447,327.86943 C 200.89303,323.36715 202.76113,323.615 202.76113,328.58805 C 202.76113,331.70373 203.0833,332.43303 204.26017,331.98143 C 205.08464,331.66505 206.12574,329.99167 206.57373,328.26281 C 207.51871,324.61602 210.99367,323.82632 211.60504,327.11943 C 212.45255,331.68448 216.76113,333.45806 216.76113,329.24187 C 216.76113,327.93422 217.38772,326.34429 218.15356,325.7087 C 219.25662,324.79325 219.96705,325.1311 221.57206,327.33443 C 222.68639,328.86417 223.87808,329.83581 224.22026,329.49364 C 224.56243,329.15147 224.08769,325.55334 223.16527,321.4978 C 221.1259,312.53135 221.66464,289.44634 224.18928,277.61943 C 225.06983,273.49443 226.37143,266.74443 227.08172,262.61943 C 228.16971,256.30103 228.67944,255.11943 230.31715,255.11943 C 232.68312,255.11943 232.65792,256.00544 229.9332,268.61943 C 226.10053,286.36258 225.39226,292.10191 225.367,305.62057 C 225.34469,317.56291 225.5986,319.65224 227.56621,323.71678 C 229.83714,328.40789 232.93549,330.61943 237.23675,330.61943 C 240.04578,330.61943 241.10529,329.64648 245.75832,322.79398 C 249.22282,317.69185 251.76113,315.60002 251.76113,317.84706 C 251.76113,318.48774 250.5954,320.69407 249.17063,322.75003 C 245.47986,328.0758 244.74913,332.55778 245.43784,345.64522 C 246.16403,359.44482 245.20982,362.17878 238.57477,365.30909 C 226.37291,371.06572 224.28215,372.2919 224.55285,373.53266 C 224.7133,374.26806 224.06837,375.72743 223.11969,376.77572 C 221.48797,378.57875 221.48777,378.77452 223.11596,380.40056 C 224.77863,382.06103 228.94431,382.31637 239.16054,381.38403 C 241.82132,381.14121 242.19826,381.53094 243.74061,386.11943 C 245.09981,390.16309 245.90235,391.1771 247.93648,391.42092 C 250.11922,391.68256 250.73567,391.03907 252.60014,386.55265 C 254.50545,381.96795 255.00394,381.46466 257.00486,382.10543 C 262.02401,383.71274 265.60864,383.74965 268.55817,382.22438 C 275.03653,378.87429 273.64914,374.17323 263.23578,364.1899 C 256.12524,357.37301 255.76113,356.80672 255.76113,352.56508 C 255.76113,347.61278 256.35326,345.31859 260.26381,335.11943 C 263.50701,326.66079 266.76113,315.08649 266.76113,312.00964 C 266.76113,309.11809 262.30727,305.61943 258.62627,305.61943 C 256.40466,305.61943 255.76113,305.15906 255.76113,303.56977 C 255.76113,301.07387 258.24701,296.07284 261.31589,292.39483 C 265.55222,287.31766 266.26113,283.25791 266.26113,264.07464 C 266.26113,248.55173 266.0158,245.65555 264.50571,243.35156 C 262.51192,240.30957 261.34827,226.91835 261.35727,207.11943 C 261.36264,195.30202 261.44076,194.89119 266.49143,180.11943 C 269.31222,171.86943 271.91501,163.49554 272.2754,161.51079 L 272.93067,157.90216 L 268.68366,157.22303 C 266.34781,156.84951 264.14155,156.8984 263.78087,157.33167 C 262.98072,158.29286 259.53429,170.12664 256.71389,181.59708 C 255.56741,186.25978 253.10839,194.12404 251.24941,199.0732 C 247.91015,207.96332 247.89288,208.09352 249.81529,209.88451 C 252.41519,212.30669 252.26988,212.82397 249.09714,212.441 C 247.00425,212.18837 246.07668,212.76256 244.77034,215.11943 C 242.55248,219.12084 239.13557,220.78793 234.15284,220.29964 C 231.227,220.01292 229.35616,220.42634 227.65284,221.736 C 224.66481,224.03346 220.28969,224.29035 221.12276,222.11943 C 222.0476,219.70932 219.79386,220.36681 211.06506,225.05358 C 204.2402,228.71807 202.6761,229.2219 201.71605,228.06511 C 200.82145,226.98718 201.07968,225.82932 202.86849,222.89767 C 204.14242,220.80987 204.52228,219.59764 203.71751,220.18826 C 200.27764,222.71276 191.04681,228.31001 188.58707,229.36281 C 186.45428,230.27568 185.67561,230.22131 184.74022,229.09424 C 183.81866,227.98383 184.01961,227.10629 185.67829,224.99761 C 186.83926,223.52168 187.62953,222.15449 187.43445,221.95941 C 187.23936,221.76433 183.74556,223.8121 179.67044,226.51 C 168.08388,234.1808 159.09652,236.39559 152.78985,233.13428 C 150.58135,231.99222 149.81091,231.93447 149.45477,232.88428 C 149.14344,233.71459 148.14633,233.30002 146.41257,231.61943 C 143.52302,228.81847 141.30455,221.12687 140.24307,210.22938 C 139.70466,204.70184 139.0658,202.83319 137.01243,200.77982 L 134.45292,198.22031 L 133.54428,200.66987 C 132.99044,202.16296 133.02838,206.82887 133.64145,212.61943 C 135.04435,225.87013 132.16418,255.5583 128.63009,264.27547 C 127.23582,267.71457 126.13769,296.61943 127.4013,296.61943 C 127.88952,296.61943 129.38101,294.25693 130.71573,291.36943 C 133.75289,284.79892 133.68221,284.88061 134.80019,286.64839 C 135.31186,287.45746 135.76592,291.71943 135.8092,296.11943 C 135.86648,301.9414 136.13413,303.50686 136.79229,301.86943 C 138.24224,298.26216 139.27759,299.22203 140.56753,305.36943 C 141.23114,308.53193 142.86068,313.36943 144.18874,316.11943 L 146.60339,321.11943 L 146.68226,317.36943 C 146.79139,312.18051 149.1635,312.47997 151.60102,317.99038 C 153.8849,323.15347 155.65196,324.56589 156.9425,322.25983 C 158.32484,319.78973 159.74562,320.27649 160.91097,323.61943 C 161.48617,325.26943 162.57193,326.61943 163.32377,326.61943 C 165.64754,326.61943 166.99966,322.59933 167.13318,315.29335 C 167.21749,310.67982 167.68746,308.14879 168.51113,307.87232 C 169.40145,307.57349 169.76113,308.90516 169.76113,312.50025 C 169.76113,317.22068 170.36804,324.25281 172.7921,347.61943 C 173.87449,358.05314 173.06154,363.1326 169.8431,366.04525 C 168.79435,366.99435 163.95937,369.48171 159.09871,371.5727 C 150.56975,375.24175 150.25055,375.49667 149.95818,378.87259 C 149.76503,381.10283 150.24397,382.95941 151.27961,383.99505 C 153.06272,385.77816 159.27796,386.21023 160.26113,384.61943 C 160.60105,384.06943 162.2875,383.61943 164.0088,383.61943 C 166.60109,383.61943 168.24866,384.8213 173.60466,390.61943 C 177.16108,394.46943 180.34986,397.61943 180.69084,397.61943 C 181.03181,397.61943 183.25758,395.55066 185.63699,393.02217 z M 146.16101,380.36465 C 145.32582,373.25853 147.07857,371.2634 157.26908,367.72043 C 164.68283,365.14287 165.42978,364.62261 167.5919,360.53062 C 169.68084,356.57711 169.85557,355.2894 169.27598,348.11943 C 168.55944,339.25529 167.1213,328.46067 166.90193,330.29988 C 166.82449,330.94913 165.74863,331.62413 164.51113,331.79988 C 162.37706,332.10297 162.22989,332.68619 161.65473,343.11943 C 160.57822,362.64697 156.57378,366.96672 137.5627,369.10848 C 130.23276,369.93426 126.76113,372.5249 126.76113,377.16896 C 126.76113,381.77108 129.81053,383.62029 138.98904,384.58418 C 142.98869,385.00421 146.37756,385.40897 146.51987,385.48365 C 146.66217,385.55833 146.50068,383.25478 146.16101,380.36465 z M 122.91609,378.09995 C 122.6773,375.09746 123.10219,372.74786 124.18194,371.09995 C 125.66487,368.83671 125.66709,368.61943 124.20726,368.61943 C 122.12243,368.61943 116.76113,373.99686 116.76113,376.08796 C 116.76113,377.74597 121.02296,382.61943 122.47288,382.61943 C 122.91434,382.61943 123.11379,380.58566 122.91609,378.09995 z M 224.82104,368.16016 C 227.44306,365.70757 230.86473,363.42642 232.42474,363.09096 C 241.08916,361.22774 243.5616,357.0371 241.83753,347.13677 C 241.24551,343.73713 240.76113,339.64246 240.76113,338.03752 C 240.76113,335.26072 240.55056,335.11943 236.41215,335.11943 L 232.06316,335.11943 L 232.54448,339.38971 C 233.32929,346.35252 230.93569,355.29194 227.23623,359.21451 C 224.34204,362.28325 223.48364,362.61943 218.54228,362.61943 C 202.75602,362.61943 203.24411,370.46267 219.15743,372.50443 C 219.65039,372.56768 222.19901,370.61276 224.82104,368.16016 z M 203.76113,365.17613 C 203.76113,360.35205 206.58214,358.61943 214.43658,358.61943 C 221.85783,358.61943 225.40771,357.20355 227.33613,353.4744 C 228.85332,350.54047 229.16328,343.83259 228.13,336.29399 C 227.58916,332.34809 227.25467,331.82011 225.79168,332.60308 C 224.85272,333.1056 223.19279,333.28357 222.10295,332.99857 C 220.97403,332.70335 219.56094,333.15572 218.81883,334.04991 C 217.14043,336.07226 214.34003,336.04484 211.18127,333.97514 C 208.77093,332.39583 208.56011,332.43784 205.84584,335.03827 L 203.01991,337.74568 L 200.9848,334.95192 L 198.94968,332.15815 L 196.21904,334.88879 C 194.71719,336.39064 192.59867,337.61943 191.51122,337.61943 C 189.72225,337.61943 189.6011,337.17223 190.23854,332.9215 C 190.88325,328.62229 190.80242,328.34028 189.28615,329.59867 C 184.87343,333.2609 183.62448,341.22099 185.84099,351.55618 C 186.94816,356.71876 191.57624,362.27592 198.41071,366.64926 C 202.67571,369.37841 203.76113,369.07957 203.76113,365.17613 z M 237.17934,216.01244 C 239.47542,215.13135 239.1227,213.71212 236.76113,214.32968 C 235.66113,214.61734 234.76113,215.25021 234.76113,215.73606 C 234.76113,216.78153 235.08013,216.81799 237.17934,216.01244 z M 113.15325,210.03997 C 113.4866,209.17126 113.51468,207.48376 113.21565,206.28997 C 112.91661,205.09617 113.31286,203.24388 114.0962,202.17376 C 115.48677,200.27411 115.57651,200.28994 117.89079,202.84295 C 120.25631,205.45248 124.76664,207.48541 124.75497,205.93682 C 124.75158,205.48725 124.0679,203.81375 123.23567,202.21792 C 121.59097,199.06414 122.10563,195.61943 124.22153,195.61943 C 124.95062,195.61943 125.80617,196.29443 126.12276,197.11943 C 126.85834,199.03632 129.65225,199.06674 130.38171,197.16581 C 130.6885,196.36632 130.22438,194.69119 129.35032,193.4433 C 128.47627,192.19542 127.76113,190.37455 127.76113,189.39692 C 127.76113,187.47882 126.72866,187.27592 121.89129,188.2434 C 119.29729,188.7622 118.59315,189.52955 117.71355,192.79614 C 116.47983,197.37781 113.59906,200.61943 110.76113,200.61943 C 109.09049,200.61943 108.74471,199.91954 108.66145,196.36943 C 108.49724,189.36812 107.58984,187.54649 103.57982,186.16791 C 101.5647,185.47514 98.306117,183.95851 96.338547,182.79761 C 93.620637,181.194 92.761127,181.02201 92.761127,182.08173 C 92.761127,182.84889 93.360227,184.07567 94.092467,184.8079 C 97.562297,188.27774 96.940067,193.45276 92.461857,198.36943 C 89.832377,201.25635 90.801897,201.20647 96.905487,198.14081 C 101.04259,196.06287 101.93253,195.90252 102.41082,197.14891 C 102.7246,197.96661 102.25678,200.16249 101.37123,202.02866 C 100.48567,203.89483 99.761127,205.74628 99.761127,206.143 C 99.761127,207.49701 102.88959,204.27169 104.38934,201.3715 C 106.44469,197.39689 108.76113,199.34168 108.76113,205.04187 C 108.76113,210.44093 111.71116,213.79798 113.15325,210.03997 z M 77.745817,192.36943 C 77.757307,188.80707 77.386087,187.61943 76.261127,187.61943 C 74.625947,187.61943 74.402747,189.81722 75.415487,195.9465 C 76.251747,201.00774 77.725267,198.74589 77.745817,192.36943 z M 115.36182,190.86596 C 115.96231,187.86353 115.81376,187.61943 113.38613,187.61943 C 110.8879,187.61943 110.76113,187.87163 110.76113,192.84165 C 110.76113,198.04246 110.76923,198.05577 112.73682,196.08818 C 113.82346,195.00155 115.00471,192.65155 115.36182,190.86596 z M 66.352177,195.76675 C 66.062337,195.29778 66.453647,194.06028 67.221747,193.01675 C 68.529277,191.24036 68.661527,191.23097 69.296697,192.86943 C 70.350307,195.58728 71.761127,194.93294 71.761127,191.72642 C 71.761127,188.84994 70.323117,187.6258 66.929347,187.61327 C 66.011827,187.60988 63.946067,186.92133 62.338767,186.08315 C 59.162797,184.42694 59.136587,184.44317 56.187327,189.89173 C 55.051807,191.98953 54.955807,193.08438 55.792727,194.39173 C 56.762247,195.90622 56.841287,195.84631 56.433167,193.9062 C 56.168947,192.65015 56.621257,191.15048 57.479007,190.43861 C 58.745277,189.3877 59.474137,189.78722 61.972767,192.90184 C 63.613067,194.94652 65.388027,196.61943 65.917147,196.61943 C 66.446257,196.61943 66.642027,196.23572 66.352177,195.76675 z M 139.76113,190.3873 L 139.76113,184.15516 L 137.26113,187.83424 C 134.30258,192.18814 134.27397,192.42365 136.41612,194.79069 C 139.12579,197.78485 139.76113,196.94849 139.76113,190.3873 z M 92.330597,192.19867 C 92.745627,190.54506 92.228847,188.81849 90.699867,186.75044 C 88.553327,183.84708 88.345947,183.78277 85.640997,185.18155 C 82.912277,186.59263 80.761127,189.389 80.761127,191.5251 C 80.761127,192.63707 85.830117,194.3812 89.492077,194.52924 C 91.057427,194.59252 91.904297,193.8972 92.330597,192.19867 z M 56.719217,182.21444 C 56.742267,181.7167 55.861127,182.12394 54.761127,183.11943 C 53.661127,184.11492 52.779997,186.09716 52.803047,187.52442 C 52.843307,190.01687 52.920697,189.9811 54.761127,186.61943 C 55.815027,184.69443 56.696167,182.71219 56.719217,182.21444 z M 165.89442,184.23451 C 163.80674,175.94357 158.43953,170.0947 156.21782,173.68951 C 155.85408,174.27805 154.64707,175.096 153.53557,175.50717 C 151.7355,176.17306 152.05362,176.64195 156.44671,179.79807 C 159.15933,181.7469 162.47729,184.69465 163.81994,186.34863 C 165.16259,188.00261 166.43139,189.2074 166.63949,189.02595 C 166.84759,188.8445 166.51231,186.68835 165.89442,184.23451 z M 135.88891,184.38067 C 136.86868,182.54996 136.80943,182.54168 134.33431,184.16343 C 132.91906,185.09074 131.76113,186.5278 131.76113,187.35688 C 131.76113,188.60697 132.02653,188.64406 133.31573,187.57412 C 134.17075,186.86451 135.32869,185.42746 135.88891,184.38067 z M 172.12521,182.97986 C 172.47496,180.42809 172.76113,176.8649 172.76113,175.06165 C 172.76113,171.23624 173.61014,168.61943 174.85127,168.61943 C 175.33316,168.61943 176.8676,170.86943 178.26113,173.61943 C 179.65466,176.36943 181.04806,178.61943 181.35757,178.61943 C 181.66708,178.61943 181.60677,175.69157 181.22355,172.11308 C 180.73251,167.52782 180.89008,165.16898 181.75723,164.12413 C 182.7999,162.86779 183.82465,163.66998 188.47184,169.38047 C 196.27479,178.96876 196.10572,178.88495 195.3397,172.78492 C 193.93458,161.59539 187.46302,149.45459 177.08475,138.53819 C 173.98318,135.2758 171.5206,131.6668 171.15758,129.85169 C 170.46042,126.36586 172.33219,110.58147 173.93972,106.39029 C 174.69275,104.42698 174.63211,101.87826 173.72362,97.307672 C 172.55684,91.437597 172.28197,90.988374 170.11094,91.403392 C 166.94218,92.009139 167.14167,91.081391 171.26113,86.054128 C 175.44205,80.951862 175.55837,79.146019 172.18962,71.639445 L 169.61812,65.909366 L 171.664,59.677299 C 174.0996,52.258076 180.53395,42.876686 190.20074,32.650396 C 203.50685,18.574151 185.23971,33.982001 167.49674,51.800621 C 160.47633,58.850968 154.40133,64.612542 153.99674,64.60412 C 151.64166,64.555096 150.59384,62.800527 151.69307,60.746607 C 153.17885,57.970405 152.35869,58.061872 148.35002,61.119433 C 144.96337,63.702555 141.76113,64.407429 141.76113,62.569773 C 141.76113,61.99246 142.44769,60.19246 143.28681,58.569773 C 147.59322,50.242097 135.4363,61.252638 129.16947,71.35587 C 119.0286,87.704731 108.66073,100.02193 97.632047,108.82282 C 94.177207,111.57979 92.829097,113.44361 92.317567,116.17031 C 91.556267,120.22837 92.182357,121.5982 93.977797,119.80276 C 95.435687,118.34488 97.786357,118.29832 101.35887,119.65659 C 105.03798,121.05539 103.37582,122.55426 97.159407,123.44347 C 93.571257,123.95674 92.191677,124.62231 91.933117,125.96489 C 91.653537,127.41666 92.161427,127.75004 94.421487,127.59824 C 95.983287,127.49333 98.553727,127.45519 100.13357,127.51347 C 102.54601,127.60246 102.81017,127.85541 101.78309,129.09297 C 101.11048,129.90341 98.917877,130.83206 96.910647,131.15663 C 86.226347,132.88428 86.154397,135.61943 96.793247,135.61943 C 106.40994,135.61943 111.4086,137.36665 112.33339,141.0513 C 113.33905,145.05819 112.2942,146.37524 105.42075,149.76469 C 101.68342,151.60765 98.342437,154.05821 97.406077,155.64333 C 94.124337,161.19889 86.733907,160.10951 77.910777,152.76962 L 73.261127,148.90163 L 69.656657,151.01053 C 61.687047,155.67337 57.761127,160.68318 57.761127,166.19023 L 57.761127,168.86035 L 62.255617,165.17746 C 66.371547,161.80476 68.761127,161.25871 68.761127,163.69087 C 68.761127,164.21524 66.286127,166.22751 63.261127,168.16258 C 60.236127,170.09765 57.761127,172.4205 57.761127,173.32447 C 57.761127,174.73089 58.085807,174.67324 60.011127,172.92498 C 62.342637,170.8079 67.037167,169.2288 68.034527,170.22616 C 68.348207,170.53984 67.350637,172.92363 65.817707,175.52348 L 63.030567,180.25047 L 65.864387,181.50484 C 71.882597,184.16876 89.761127,182.01059 89.761127,178.6202 C 89.761127,178.08538 87.961127,176.45662 85.761127,175.00073 C 81.281457,172.03622 81.375147,172.20916 82.803117,169.54098 C 84.031287,167.24613 85.771147,167.91371 92.261127,173.16998 C 94.461127,174.95177 98.736127,177.87977 101.76113,179.67664 C 106.55401,182.52365 108.35395,182.99642 115.76113,183.35388 L 124.26113,183.76407 L 120.62825,180.44175 C 115.88663,176.10547 111.89747,170.44548 112.47207,168.86943 C 113.21419,166.83388 115.41159,167.43702 117.20054,170.1673 C 118.11872,171.56863 120.98298,174.72917 123.56555,177.19072 C 127.30566,180.75558 128.75743,181.54624 130.70014,181.07637 C 133.54019,180.38945 138.76113,176.86824 138.76113,175.63971 C 138.76113,175.17576 135.61113,173.56031 131.76113,172.04981 C 126.62189,170.0335 124.76113,168.81381 124.76113,167.46144 C 124.76113,165.0204 125.32645,165.09803 133.79622,168.70225 C 139.57953,171.16326 141.21114,171.51624 141.88562,170.45225 C 143.22579,168.33812 142.89904,160.31927 141.20296,153.69883 C 139.32301,146.36068 140.27111,143.77434 142.93653,148.96978 C 144.3811,151.78555 145.41676,152.61943 147.4693,152.61943 C 151.32219,152.61943 158.22302,148.99342 159.73037,146.1769 C 161.48955,142.88984 160.52962,140.96737 156.23267,139.17199 C 152.67101,137.68383 152.53806,137.10662 155.01742,133.89577 C 155.75513,132.9404 156.58714,132.99522 158.81206,134.14577 C 160.37942,134.95628 163.87906,135.61943 166.58903,135.61943 C 169.45733,135.61943 171.97533,136.1726 172.61489,136.94322 C 174.28987,138.96145 172.0106,140.61943 167.56113,140.61943 C 163.97949,140.61943 163.76113,140.79731 163.76113,143.71506 C 163.76113,145.41766 162.82163,148.13009 161.67336,149.74269 C 159.67315,152.55173 151.22628,157.61943 148.54437,157.61943 C 147.68117,157.61943 147.25876,159.17423 147.25388,162.36943 C 147.2499,164.98193 146.87664,168.58193 146.42443,170.36943 C 145.3143,174.75752 146.69753,174.64184 156.74609,169.50623 C 164.48345,165.55183 165.3674,164.72888 171.42937,155.83632 C 173.44516,152.87926 173.91867,155.18522 172.18526,159.51745 C 171.2725,161.79866 168.69591,165.23133 166.45952,167.1456 L 162.39334,170.6261 L 164.97923,173.37277 C 166.61544,175.11071 167.9944,178.23114 168.73402,181.86943 C 169.37692,185.03193 170.25986,187.61943 170.6961,187.61943 C 171.13235,187.61943 171.77545,185.53162 172.12521,182.97986 z M 122.20607,136.47891 C 119.21663,133.65163 115.59076,128.92663 114.14858,125.97891 C 112.08186,121.75469 111.02661,120.61943 109.16683,120.61943 C 105.4832,120.61943 103.39035,116.57767 104.21757,111.06135 C 105.01649,105.73375 107.08976,105.50714 107.59283,110.69244 C 107.77527,112.57287 108.39287,114.67571 108.96528,115.36542 C 110.27859,116.94785 115.59482,116.93011 118.38214,115.33399 C 121.10254,113.7762 128.73703,105.21853 136.10709,95.465702 C 144.99412,83.705467 144.086,84.109648 152.54402,88.150054 C 156.51343,90.046247 159.76113,92.052573 159.76113,92.608555 C 159.76113,94.086775 157.77336,93.85997 151.34492,91.64826 L 145.61561,89.677088 L 143.21997,92.39826 C 140.30775,95.706214 140.18281,96.619433 142.64247,96.619433 C 144.88426,96.619433 150.54872,102.09652 151.95037,105.61943 C 153.46425,109.42441 153.10883,119.70997 151.30795,124.21082 C 149.10503,129.71645 145.03787,131.91025 135.76113,132.59667 L 128.26113,133.15162 L 132.76113,135.61846 C 137.06785,137.97934 137.14514,138.09941 134.56058,138.41401 C 133.07528,138.59481 130.89924,138.22853 129.72494,137.60006 C 126.895,136.08552 125.97855,137.11376 128.66375,138.79069 C 131.14282,140.33889 131.38615,141.61943 129.20127,141.61943 C 128.34335,141.61943 125.19551,139.3062 122.20607,136.47891 z M 142.73506,127.31299 C 147.21196,125.77483 148.72813,122.62382 148.74639,114.81977 C 148.7678,105.67183 146.48636,102.20076 139.09978,100.14303 C 137.33362,99.651022 136.10335,100.62618 132.37131,105.47624 C 129.8594,108.74066 125.73846,113.22989 123.21366,115.4523 C 118.21458,119.85266 118.1834,120.89541 122.91931,125.2949 C 126.25776,128.39619 136.53572,129.44293 142.73506,127.31299 z M 128.48361,120.86527 C 127.34059,119.60225 127.17377,118.63347 127.88151,117.3688 C 129.29971,114.83463 131.45223,115.22318 132.00467,118.11308 C 132.6541,121.51036 130.55339,123.15235 128.48361,120.86527 z M 54.745817,178.88412 C 54.737397,178.46354 54.302207,177.44443 53.778737,176.61943 C 52.331067,174.33788 49.145247,178.14781 48.343497,183.11943 L 47.698447,187.11943 L 51.229787,183.38412 C 53.172027,181.32969 54.754237,179.30469 54.745817,178.88412 z M 46.761127,177.32267 C 46.761127,175.98054 43.861887,178.55058 42.570817,181.03719 C 41.606097,182.89525 41.773467,182.85842 44.125417,180.69512 C 45.575057,179.36174 46.761127,177.84414 46.761127,177.32267 z M 49.345467,173.06568 C 51.466897,175.96687 52.794167,173.91647 53.741977,166.27385 C 54.833797,157.47013 56.394287,155.60989 71.511127,145.09161 C 74.593177,142.94712 74.332167,141.61943 70.828517,141.61943 C 68.910567,141.61943 67.703177,142.22668 67.338857,143.37452 C 67.032487,144.33983 64.274917,147.08753 61.210927,149.48054 C 54.828967,154.46491 48.687257,161.85829 45.181287,168.77699 C 42.055657,174.94512 42.110657,176.57914 45.341727,173.54374 C 47.872467,171.16626 47.949807,171.15702 49.345467,173.06568 z M 98.033467,150.7533 C 100.35868,148.62692 103.75547,146.1239 105.58189,145.19102 C 109.81942,143.02663 108.49782,141.00241 102.23388,140.06307 C 96.976527,139.27468 82.723877,141.05112 79.108527,142.9454 L 76.510057,144.30687 L 79.385597,147.3992 C 82.552957,150.80535 89.226357,154.61943 92.018667,154.61943 C 93.001597,154.61943 95.708267,152.87967 98.033467,150.7533 z M 281.9888,145.62389 C 284.06358,142.05134 285.76113,138.5491 285.76113,137.84114 C 285.76113,136.85105 283.16434,136.61919 274.51113,136.83668 L 263.26113,137.11943 L 262.96178,144.02991 C 262.75195,148.87388 263.05099,151.1938 263.96178,151.78779 C 264.67642,152.25386 268.17608,152.51914 271.7388,152.37731 L 278.21646,152.11943 L 281.9888,145.62389 z M 82.761127,136.28954 C 84.136127,135.64598 86.305337,133.09443 87.581597,130.61943 C 89.540967,126.81968 89.810897,125.16581 89.316227,119.99126 C 88.994017,116.62077 88.993607,113.17719 89.315307,112.33885 C 89.637007,111.50051 93.551437,107.73338 98.014037,103.96747 C 107.84333,95.672693 116.49823,85.636614 123.45814,74.46291 C 129.77134,64.32748 130.49321,62.619433 128.46358,62.619433 C 127.63224,62.619433 125.49268,65.206933 123.70902,68.369433 C 121.92535,71.531933 118.9278,76.144433 117.04779,78.619433 C 111.64828,85.727777 96.899747,100.62576 89.106467,106.84389 C 82.450757,112.15438 66.442467,122.42103 62.517207,123.89648 C 61.014337,124.46139 60.938487,124.93677 61.968457,127.33571 C 66.364317,137.5743 73.474457,140.6361 82.761127,136.28954 z M 283.79622,129.4891 C 284.73331,126.00902 286.73625,115.26731 286.75534,113.61944 C 286.75852,113.34444 285.52363,113.10709 284.01113,113.09198 C 282.49863,113.07688 278.00778,112.73709 274.03146,112.33689 L 266.80179,111.60926 L 266.08991,114.36434 C 265.69838,115.87964 265.35173,120.49443 265.31958,124.61943 L 265.26113,132.11943 L 269.76113,132.71924 C 272.23613,133.04913 276.15629,133.38663 278.47259,133.46924 C 282.60044,133.61645 282.70612,133.53744 283.79622,129.4891 z M 185.42808,126.02763 C 193.39313,121.8408 198.66413,117.11457 203.20517,110.08784 C 209.24111,100.74795 209.77982,94.232967 206.30333,72.619433 C 203.65286,56.141356 204.84455,42.426211 209.77885,32.619433 C 211.51321,29.172451 211.50566,29.093706 209.28084,27.42106 C 206.71002,25.488285 204.23586,25.944507 198.72606,29.367305 C 193.5631,32.574638 181.73046,46.721153 178.02251,54.119433 C 174.00233,62.140691 174.25481,63.267971 178.88784,57.983009 C 183.60915,52.597344 187.76113,49.025664 187.76113,50.349887 C 187.76113,50.80299 186.48278,52.57332 184.92036,54.283953 C 179.2361,60.507425 174.76113,66.353429 174.76113,67.555758 C 174.76113,69.641896 176.26285,68.388906 182.77477,60.869433 C 186.22797,56.881933 189.21258,53.619433 189.40723,53.619433 C 190.4172,53.619433 189.53936,56.488078 188.01113,58.181686 C 185.94,60.476938 181.88429,66.01443 179.4509,69.869433 C 176.22354,74.982261 179.22756,72.559165 184.72497,65.615275 C 187.73009,61.819455 190.37548,58.900446 190.60362,59.128587 C 191.09322,59.618186 185.56816,68.565462 181.56646,73.763337 C 176.97076,79.732791 178.36126,79.452528 184.76113,73.119433 C 188.06113,69.853867 190.76113,67.630354 190.76113,68.178294 C 190.76113,68.726234 187.17513,73.212147 182.79223,78.146991 C 178.40934,83.081834 174.80934,87.456933 174.79223,87.869433 C 174.71481,89.736465 177.24782,88.241023 181.56751,83.869433 C 184.149,81.256933 187.37459,78.219433 188.73549,77.119433 C 191.08006,75.224339 191.05906,75.329244 188.33513,79.119433 C 186.75403,81.319433 183.67633,84.989192 181.49578,87.274454 C 175.99676,93.037538 177.18437,94.759495 183.07935,89.570531 C 189.92264,83.546826 190.01611,85.452191 183.22652,92.570372 C 176.71618,99.395784 176.89471,100.8676 183.45231,94.431801 C 189.73073,88.270002 189.87947,90.556675 183.63007,97.164498 C 179.20906,101.83906 178.07112,103.8046 177.08416,108.47106 C 175.31901,116.81697 175.37586,129.61943 177.17808,129.61943 C 177.9574,129.61943 181.6699,128.00312 185.42808,126.02763 z M 68.159787,116.79051 C 76.135407,112.54634 77.835567,110.56954 76.016017,107.65596 C 75.142677,106.25751 75.072227,104.9314 75.773307,103.0874 C 76.316607,101.65841 76.761127,100.31471 76.761127,100.10139 C 76.761127,99.888081 74.725977,99.831793 72.238567,99.97631 C 68.359037,100.20171 67.038957,100.90593 62.954217,104.92925 C 60.335237,107.50885 57.545537,109.61943 56.754887,109.61943 C 55.964237,109.61943 58.567197,106.56333 62.539237,102.82809 C 66.511277,99.092861 69.761127,95.523186 69.761127,94.895484 C 69.761127,92.70649 65.671257,92.302731 64.237187,94.350152 C 61.996147,97.549692 53.840807,103.78671 52.766447,103.12272 C 52.213307,102.78085 53.631507,101.06527 55.918017,99.310292 C 60.450917,95.831141 64.461927,90.986898 63.558107,90.083077 C 63.245107,89.770079 60.223967,92.073939 56.844467,95.202766 C 53.464957,98.331593 50.399547,100.59118 50.032437,100.22407 C 49.665327,99.856965 52.219857,96.906585 55.709157,93.667673 L 62.053357,87.778742 L 61.489367,81.558989 C 61.113597,77.414899 60.313957,74.744863 59.093257,73.558188 C 56.947637,71.472388 17.420777,47.631186 16.925217,48.123925 C 16.740467,48.307628 18.463997,51.280347 20.755307,54.729968 C 28.179617,65.907487 30.558237,72.148554 33.290277,87.619433 C 35.910067,102.45461 43.843037,115.90831 52.252557,119.77793 C 57.081407,121.99992 59.073257,121.62584 68.159787,116.79051 z M 94.211417,98.421701 C 104.98763,89.267309 116.74181,76.71247 121.39234,69.389305 C 122.69517,67.337734 123.76113,65.475315 123.76113,65.250596 C 123.76113,65.025876 122.07363,64.534999 120.01113,64.159757 C 117.94863,63.784515 111.53613,61.324001 105.76113,58.691949 C 95.470567,54.001852 86.470817,51.662125 85.397987,53.398003 C 85.100717,53.87899 87.873317,55.292171 91.559317,56.538404 C 100.63887,59.608194 103.25345,61.321292 101.70561,63.186335 C 100.87918,64.182113 98.341217,64.624106 93.388687,64.634746 C 85.837547,64.650969 81.273107,66.060878 85.813287,66.974713 C 87.159597,67.245696 89.567207,67.389114 91.163517,67.293421 C 96.285117,66.986398 94.930777,69.018027 87.366117,72.989851 C 79.501697,77.119065 70.495297,84.69749 72.613397,85.403521 C 73.299427,85.632198 75.679607,84.615618 77.902687,83.144455 C 81.880587,80.512005 84.115997,80.4532 82.225757,83.030733 C 77.816477,89.04325 73.879877,95.071513 74.172057,95.363689 C 74.367077,95.558716 76.217207,94.571042 78.283437,93.168858 C 80.349667,91.766674 82.427427,90.619433 82.900677,90.619433 C 84.252567,90.619433 83.914517,93.009127 82.038287,96.715795 C 81.090727,98.587796 80.262637,102.23428 80.198097,104.81909 C 80.053557,110.60783 79.648917,110.79255 94.211417,98.421701 z M 285.899,106.86943 C 286.49761,105.35693 287.13548,102.09443 287.31649,99.619433 C 287.49751,97.144433 287.4154,96.13119 287.13404,97.367783 C 286.58597,99.776503 285.50258,100.16289 276.58718,101.1293 C 271.41709,101.68972 270.8209,102.00922 269.87342,104.72717 C 268.65894,108.21103 268.94534,108.39855 276.26113,108.90963 C 279.01113,109.10175 282.05977,109.34005 283.03588,109.43918 C 284.13605,109.55092 285.22432,108.57415 285.899,106.86943 z M 253.48981,102.30546 C 253.28921,101.70368 251.62598,100.82286 249.79372,100.34807 C 246.12009,99.396139 244.80353,100.43543 244.77644,104.30873 C 244.76134,106.46771 244.8241,106.47658 249.30783,104.94882 C 251.80851,104.09675 253.6904,102.90724 253.48981,102.30546 z M 266.7785,103.09133 C 273.48941,92.232848 266.94627,81.280449 258.68421,89.54251 C 255.54488,92.681837 254.95165,96.360151 256.80044,101.22284 C 259.11821,107.31903 263.64207,108.16617 266.7785,103.09133 z M 279.88613,96.619433 C 281.26863,96.619433 281.75711,95.8971 281.74582,93.869433 C 281.71587,88.490993 280.35646,88.086797 275.88472,92.126745 C 270.92208,96.61019 270.63232,98.095195 274.88613,97.244433 C 276.60488,96.900683 278.85488,96.619433 279.88613,96.619433 z M 372.56315,92.221812 C 376.77949,90.041461 378.57395,87.50385 381.18575,80.028302 C 389.78548,55.413971 387.64149,34.504067 374.90759,18.798756 C 370.76889,13.694306 367.29207,11.781624 355.43602,8.0869979 C 347.53367,5.624436 345.58602,5.3933588 336.80891,5.8770041 C 325.25684,6.5135584 320.62675,8.2974916 313.10384,15.01036 C 307.29196,20.196434 299.84343,30.955831 295.6261,40.256969 C 294.07151,43.685543 290.28322,53.985624 287.20767,63.146038 C 282.07844,78.4233 281.7459,79.945118 283.18845,81.539125 C 284.05343,82.494909 284.76113,84.928981 284.76113,86.948174 C 284.76113,93.851724 286.26063,90.615729 289.08628,77.614282 C 293.82742,55.799248 300.12913,43.023846 311.8769,31.411081 C 322.98591,20.429738 333.21389,16.611109 342.2622,20.066692 C 348.42348,22.419705 353.05506,28.389936 354.71559,36.119433 C 355.42453,39.419433 356.42649,43.694433 356.94216,45.619433 C 357.45783,47.544433 358.2406,57.219433 358.68165,67.119433 C 359.53845,86.351751 360.3653,89.788717 364.70287,92.147919 C 367.97379,93.926972 369.24267,93.9389 372.56315,92.221812 z M 74.761127,88.028373 C 74.761127,87.837979 74.086127,87.941224 73.261127,88.257807 C 72.436127,88.574389 71.761127,89.290366 71.761127,89.848867 C 71.761127,90.434171 72.396537,90.336982 73.261127,89.619433 C 74.086127,88.934744 74.761127,88.218767 74.761127,88.028373 z M 75.151677,77.258068 C 79.585877,73.628869 79.771297,73.288148 78.235617,71.591241 C 76.489817,69.662155 63.086847,61.619433 61.617887,61.619433 C 61.134677,61.619433 58.831737,60.765119 56.500237,59.720958 C 51.640697,57.544624 31.253497,49.765557 28.261127,48.945875 C 27.161127,48.644557 28.713787,50.056345 31.711467,52.083182 C 38.741477,56.836413 54.451257,65.503557 57.360107,66.233631 C 60.957987,67.136641 62.819867,69.996652 64.060817,76.5265 C 64.697667,79.877613 65.565767,82.619433 65.989927,82.619433 C 66.414087,82.619433 66.762817,83.631933 66.764867,84.869433 C 66.768297,86.931122 66.921987,86.868352 68.601207,84.119433 C 69.609137,82.469433 72.556847,79.381819 75.151677,77.258068 z"
       id="path2384" />
    <path
       style="fill:#bf8040;fill-opacity:1"
       d=""
       id="path2584" />
    <path
       style="fill:#bf8040;fill-opacity:1"
       d=""
       id="path2588" />
  </g>
</svg>
