<?xml version="1.0" encoding="UTF-8" standalone="no"?>
<!-- Created with Inkscape (http://www.inkscape.org/) -->

<svg
   xmlns:dc="http://purl.org/dc/elements/1.1/"
   xmlns:cc="http://creativecommons.org/ns#"
   xmlns:rdf="http://www.w3.org/1999/02/22-rdf-syntax-ns#"
   xmlns:svg="http://www.w3.org/2000/svg"
   xmlns="http://www.w3.org/2000/svg"
   version="1.1"
   width="790.13507"
   height="693.24731"
   id="svg4749">
  <defs
     id="defs3" />
  <metadata
     id="metadata4">
    <rdf:RDF>
      <cc:Work
         rdf:about="">
        <dc:format>image/svg+xml</dc:format>
        <dc:type
           rdf:resource="http://purl.org/dc/dcmitype/StillImage" />
        <dc:title></dc:title>
      </cc:Work>
    </rdf:RDF>
  </metadata>
  <g
     transform="translate(98.19387,-122.59307)"
     id="layer1">
    <path
       d="m 448.03197,813.07882 c -66.66142,-0.37967 -146.9102,1.40941 -205.78848,-0.0606 -38.3788,4.26297 -192.981738,4.99386 -206.407838,-7.15659 -7.37883,-6.67774 -7.44902,-22.00997 -0.14213,-31.03371 4.90879,-6.06209 55.14535,-16.3857 81.770028,-18.63134 16.66566,-1.40564 38.54076,-2.73161 48.61133,-2.94662 10.07058,-0.21502 18.31013,-1.14987 18.31013,-2.07747 -30.48402,-30.8236 -70.83821,-53.55063 -95.684538,-88.41443 -25.56327,-40.44987 -27.36834,-73.92399 -7.25503,-132.99236 6.66678,-19.57883 12.12138,-37.68074 12.12138,-40.22646 23.189408,-73.56362 2.95495,-80.60069 -43.82261,-46.78869 -27.63493,20.69046 -98.544521,85.02721 -145.224656,145.55561 -11.035706,14.30961 9.759882,-67.48938 96.3412365,-160.53423 C 47.467662,377.68575 109.78399,345.93882 137.54261,394.42556 c 6.6575,11.62892 7.29258,15.79967 7.29258,47.89365 0,27.57516 -1.5648,41.47254 -7.25706,64.45175 -5.45678,22.0285 -7.23513,36.9271 -7.16855,60.05714 0.10612,36.85168 6.06768,53.53703 26.18231,73.27804 16.01637,14.79945 25.40468,13.68038 45.3709,15.33614 l 0.0234,-30.39139 c 1.25311,-39.3529 11.04482,-164.19689 42.61113,-162.23266 23.77696,-5.35932 40.37087,45.83302 47.01645,76.72802 1.00796,5.37297 2.88545,10.41953 4.17216,11.21481 11.93612,12.77996 19.34923,-7.94377 26.98412,-27.0254 6.01767,-15.03954 1.68456,-69.03609 -3.39478,-87.89933 -3.71652,-13.80217 -2.43753,-13.31128 -48.56523,-18.63682 -16.11294,-1.86014 -33.45049,-5.20882 -38.52785,-7.44128 -5.07739,-2.23262 -10.92011,-4.05933 -12.98378,-4.05933 -2.06369,0 -13.95411,-2.75268 -26.42317,-6.11723 -27.19874,-7.33891 -86.64909,-58.18522 -93.281508,-70.57803 -5.60899,-13.55015 41.519458,3.4415 63.299738,-9.53552 20.19066,-14.25757 13.79284,-40.45357 14.34296,-48.10762 2.87907,-30.62832 7.51249,-59.03766 12.65168,-91.24238 1.70308,-34.22729 2.22219,-36.67729 7.94432,-37.49476 4.27874,-0.61134 9.3419,3.05453 16.81496,12.17441 5.88102,7.17698 19.29906,19.89739 29.81786,28.26738 l 19.12506,15.21836 c 24.4093,1.07254 84.35013,-1.08808 90.56834,-12.03416 1.55282,-2.9013 7.60523,-10.99898 13.44986,-17.99442 5.84461,-6.99561 14.5322,-20.45618 19.30573,-29.91254 10.70436,-21.20523 15.64535,-21.04638 24.11636,0.77549 3.44326,8.86992 9.79497,22.05323 14.11493,29.29625 12.05932,20.21885 22.95131,39.05973 28.77951,68.60833 2.37168,21.73332 8.87043,59.99111 32.84114,66.0418 5.23665,1.04679 34.58372,-10.27075 40.1483,-6.47844 0,0 -11.62924,24.93116 -21.29054,32.73945 -27.80209,29.10088 -77.06328,50.71885 -110.40683,67.10462 -20.89082,10.20933 -37.98264,20.09685 -37.98184,21.97219 -9.40971,28.72636 16.19238,114.20623 45.86296,97.02757 20.84279,-5.2363 31.22595,-61.3544 45.07659,-63.47697 18.18176,0 29.55421,18.89566 28.3288,59.6299 -1.07664,35.78186 -14.47681,130.14999 -24.06097,150.27616 -43.79255,142.82871 157.46077,121.66819 171.39005,122.02055 186.89011,27.17982 -60.11651,32.6655 -153.51746,28.27108 z M 262.39155,310.65112 c -4.91687,-10.70602 -5.1794,-9.17176 -5.00913,-26.63963 0.0993,-10.18885 7.31504,-18.4365 6.29508,-21.84387 0,0 -18.16695,0.72788 -30.32974,6.6158 -16.90972,8.18588 -26.60596,17.57126 -24.18992,25.18351 2.73868,8.62883 28.95451,22.8695 39.79714,26.01121 9.50045,2.75269 25.37151,6.26022 27.06419,4.81281 1.68536,-1.44127 -10.0832,-6.42214 -13.62762,-14.13983 z m 30.8503,11.55657 c 11.25989,-5.78485 22.74349,-10.92833 26.15356,-21.26085 3.10218,-9.39971 2.70444,-10.66557 -6.2566,-19.91104 -9.1687,-9.45977 -21.06782,-16.80721 -35.57605,-18.33908 l -14.16111,-1.49535 7.22382,5.8154 c 9.38981,7.55918 11.19654,20.5461 10.35353,39.11024 -0.57652,12.69515 -7.3905,18.90401 -6.06408,18.90401 1.32633,0 14.80745,-1.01522 18.32693,-2.82333 z m 85.19451,-8.82607 c 0,-1.41447 -3.47652,-3.61331 -6.02347,-9.70922 -2.97232,-7.11368 -2.89125,-16.28322 -2.26941,-27.26599 0.53284,-9.41131 8.69752,-19.6621 8.21457,-19.6592 -4.69629,0.029 -28.21833,10.34412 -35.33333,18.97585 -8.22607,9.97966 -7.67746,12.82466 -5.18692,19.83614 1.80224,5.07369 8.07693,12.03415 13.43995,15.65959 9.59656,6.48731 33.78805,10.38387 33.46893,6.90654 z m 39.17237,-2.09271 c 14.21953,-6.62109 24.58941,-19.87726 24.5773,-26.83192 -0.0171,-5.1503 -14.42734,-20.55702 -42.50649,-26.86024 -7.9113,-1.77586 -20.31281,-1.53391 -20.79372,-1.05309 -0.48087,0.48099 9.26596,10.65397 11.73058,18.63528 2.65873,8.60972 1.01094,9.98888 0.35028,19.98339 -0.56547,8.55477 -6.24594,22.97818 -6.24594,22.97818 -1.38984,3.46266 19.96256,-0.83298 32.88799,-6.8516 z"
       id="path4322"
       style="fill:#000000" />
  </g>
</svg>
